<svg width="102" height="101" viewBox="0 0 102 101" fill="none" xmlns="http://www.w3.org/2000/svg">
<g filter="url(#filter0_d_454_6953)">
<path d="M11.4751 59.2829C9.70016 54.339 8.91633 49.0939 9.1684 43.8471C9.42047 38.6003 10.7035 33.4545 12.9443 28.7035C15.185 23.9525 18.3396 19.6895 22.2279 16.1576C26.1162 12.6258 30.6621 9.89442 35.606 8.11944C40.5499 6.34445 45.795 5.56061 51.0418 5.81268C56.2886 6.06476 61.4344 7.3478 66.1854 9.58855C70.9364 11.8293 75.1995 14.9839 78.7313 18.8722C82.2631 22.7605 84.9945 27.3064 86.7695 32.2503C88.5445 37.1942 89.3283 42.4393 89.0762 47.6861C88.8242 52.9329 87.5411 58.0787 85.3004 62.8297C83.0596 67.5807 79.905 71.8438 76.0167 75.3756C72.1284 78.9074 67.5825 81.6388 62.6386 83.4138C57.6947 85.1888 52.4496 85.9726 47.2028 85.7205C41.956 85.4684 36.8102 84.1854 32.0592 81.9446C27.3083 79.7039 23.0452 76.5493 19.5133 72.661C15.9815 68.7727 13.2501 64.2268 11.4751 59.2829L11.4751 59.2829Z" stroke="#F1E8BD" stroke-width="10"/>
<path d="M11.4751 59.2829C14.1484 66.7288 18.9696 73.2148 25.3291 77.9207C31.6886 82.6265 39.3007 85.3409 47.2028 85.7205C55.105 86.1002 62.9422 84.128 69.7235 80.0535C76.5048 75.9789 81.9256 69.985 85.3004 62.8297C88.6751 55.6743 89.8523 47.679 88.683 39.8546C87.5137 32.0302 84.0505 24.7283 78.7313 18.8722C73.4121 13.0161 66.4758 8.86884 58.7995 6.95486C51.1233 5.04089 43.0519 5.44616 35.606 8.11944" stroke="#F4CF31" stroke-width="10" stroke-linecap="round"/>
</g>
<defs>
<filter id="filter0_d_454_6953" x="0.12207" y="0.766602" width="102" height="102" filterUnits="userSpaceOnUse" color-interpolation-filters="sRGB">
<feFlood flood-opacity="0" result="BackgroundImageFix"/>
<feColorMatrix in="SourceAlpha" type="matrix" values="0 0 0 0 0 0 0 0 0 0 0 0 0 0 0 0 0 0 127 0" result="hardAlpha"/>
<feOffset dy="4"/>
<feGaussianBlur stdDeviation="2"/>
<feComposite in2="hardAlpha" operator="out"/>
<feColorMatrix type="matrix" values="0 0 0 0 0 0 0 0 0 0 0 0 0 0 0 0 0 0 0.25 0"/>
<feBlend mode="normal" in2="BackgroundImageFix" result="effect1_dropShadow_454_6953"/>
<feBlend mode="normal" in="SourceGraphic" in2="effect1_dropShadow_454_6953" result="shape"/>
</filter>
</defs>
</svg>
