<svg width="26" height="26" viewBox="0 0 26 26" fill="none" xmlns="http://www.w3.org/2000/svg">
<g clip-path="url(#clip0_307_1194)">
<path d="M16.9991 2.7521C16.4795 2.25581 15.7987 1.98242 15.0821 1.98242C14.5636 1.98242 14.0555 2.12905 13.613 2.40642L5.99378 7.1821H3.21241C1.68532 7.1821 0.442871 8.42446 0.442871 9.9516V16.6018C0.442871 18.1289 1.68527 19.3713 3.21241 19.3713H5.97808L13.6129 24.1568C14.0554 24.4342 14.5635 24.5808 15.0821 24.5808C15.7987 24.5808 16.4795 24.3074 16.9992 23.8111C17.2646 23.5577 17.4736 23.2594 17.6206 22.9244C17.775 22.5724 17.8533 22.1975 17.8533 21.8102V13.2865V13.2767V4.75311C17.8533 4.36564 17.775 3.99076 17.6206 3.63877C17.4736 3.30386 17.2645 3.00553 16.9991 2.7521ZM15.8026 13.2767V13.2865V21.8101C15.8026 22.2315 15.4566 22.5299 15.0821 22.5299C14.9546 22.5299 14.8237 22.4953 14.7021 22.419L6.98793 17.5839C6.71334 17.4118 6.39585 17.3205 6.07177 17.3205H3.21241C2.81547 17.3205 2.49368 16.9987 2.49368 16.6017V9.9516C2.49368 9.5547 2.81547 9.23291 3.21241 9.23291H6.08752C6.4116 9.23291 6.72899 9.14162 7.00363 8.96952L14.702 4.14414C14.8237 4.06789 14.9545 4.03327 15.0821 4.03327C15.4565 4.03327 15.8025 4.3318 15.8025 4.75316V13.2767H15.8026Z" fill="#CEC485"/>
<path d="M15.0822 24.6047C14.559 24.6047 14.0465 24.4568 13.6002 24.177L5.9712 19.3952H3.21242C1.67207 19.3952 0.418945 18.142 0.418945 16.6018V9.95161C0.418945 8.4113 1.67207 7.15818 3.21242 7.15818H5.98695L13.6003 2.38618C14.0467 2.10642 14.5591 1.9585 15.0822 1.9585C15.8048 1.9585 16.4915 2.23419 17.0157 2.73478C17.2834 2.99041 17.4942 3.29128 17.6425 3.62915C17.7983 3.98412 17.8772 4.36226 17.8772 4.75312V21.8101C17.8772 22.2009 17.7983 22.579 17.6425 22.934C17.4941 23.272 17.2833 23.5729 17.0158 23.8284C16.4915 24.329 15.8048 24.6047 15.0822 24.6047ZM3.21242 7.20605C1.6985 7.20605 0.466817 8.43768 0.466817 9.95161V16.6018C0.466817 18.1157 1.6985 19.3474 3.21242 19.3474H5.98498L5.99083 19.351L13.6257 24.1365C14.0644 24.4115 14.568 24.5568 15.0822 24.5568C15.7925 24.5568 16.4675 24.2858 16.9827 23.7938C17.2457 23.5427 17.4529 23.247 17.5986 22.9148C17.7517 22.5659 17.8293 22.1943 17.8293 21.8102V4.75312C17.8293 4.36896 17.7517 3.99724 17.5986 3.6484C17.4529 3.31632 17.2457 3.02062 16.9826 2.76939C16.4674 2.27732 15.7925 2.00637 15.0822 2.00637C14.5682 2.00637 14.0645 2.15175 13.6258 2.42672L6.00069 7.20605H3.21242ZM15.0822 22.5539C14.9448 22.5539 14.8089 22.5143 14.6894 22.4393L6.9752 17.6042C6.70406 17.4342 6.3917 17.3444 6.07178 17.3444H3.21242C2.80293 17.3444 2.46975 17.0113 2.46975 16.6017V9.95161C2.46975 9.54212 2.80289 9.20898 3.21242 9.20898H6.08753C6.4074 9.20898 6.71976 9.11917 6.9909 8.94923L14.6894 4.12386C14.8089 4.04894 14.9448 4.0093 15.0822 4.0093C15.4926 4.0093 15.8265 4.34296 15.8265 4.75312V21.81C15.8265 22.2202 15.4926 22.5539 15.0822 22.5539ZM3.21242 9.25685C2.82931 9.25685 2.51762 9.56849 2.51762 9.95161V16.6018C2.51762 16.9849 2.82931 17.2966 3.21242 17.2966H6.07178C6.4007 17.2966 6.72187 17.3889 7.00062 17.5636L14.7148 22.3988C14.8267 22.4689 14.9537 22.506 15.0822 22.506C15.4662 22.506 15.7786 22.1938 15.7786 21.8101V4.75312C15.7786 4.36939 15.4662 4.05717 15.0822 4.05717C14.9537 4.05717 14.8267 4.09422 14.7148 4.1644L7.01628 8.98983C6.73747 9.16451 6.41631 9.25685 6.08748 9.25685H3.21242Z" fill="#CEC485"/>
<path d="M20.7294 8.27523C20.4773 7.76808 19.8617 7.56142 19.3547 7.81346C18.8476 8.06555 18.6409 8.68103 18.893 9.18813C19.4878 10.3847 19.8022 11.8021 19.8022 13.2872C19.8022 14.7954 19.4788 16.2306 18.8671 17.4378C18.6111 17.943 18.813 18.56 19.3182 18.816C19.4668 18.8913 19.625 18.927 19.7809 18.927C20.155 18.927 20.5157 18.7214 20.6964 18.3649C21.4531 16.8717 21.853 15.1159 21.853 13.2872C21.8531 11.487 21.4645 9.75387 20.7294 8.27523Z" fill="#CEC485"/>
<path d="M19.7808 18.9509C19.6153 18.9509 19.456 18.9127 19.3073 18.8374C18.7912 18.5759 18.5841 17.9431 18.8456 17.427C19.4557 16.2232 19.7781 14.7916 19.7781 13.2872C19.7781 11.8057 19.4646 10.3919 18.8715 9.19879C18.7467 8.9478 18.7271 8.6632 18.8164 8.39752C18.9057 8.13183 19.093 7.91679 19.344 7.79204C19.4907 7.71913 19.6476 7.68213 19.8102 7.68213C20.2118 7.68213 20.5721 7.9053 20.7507 8.26458C21.4875 9.74662 21.8768 11.4834 21.8767 13.2872C21.8767 15.1197 21.4759 16.8793 20.7176 18.3757C20.5378 18.7305 20.1788 18.9509 19.7808 18.9509ZM19.8103 7.72995C19.6551 7.72995 19.5054 7.76523 19.3654 7.83484C19.1258 7.95389 18.947 8.15912 18.8618 8.41269C18.7766 8.66627 18.7952 8.93784 18.9143 9.17739C19.5107 10.3771 19.826 11.7982 19.826 13.2871C19.826 14.7991 19.5018 16.2381 18.8884 17.4486C18.6387 17.9412 18.8364 18.545 19.3289 18.7946C19.4709 18.8665 19.6229 18.903 19.7807 18.903C20.1606 18.903 20.5033 18.6926 20.6749 18.354C21.4299 16.8643 21.8289 15.1121 21.8289 13.2871C21.829 11.4907 21.4413 9.76127 20.7079 8.28579C20.5375 7.94298 20.1935 7.72995 19.8103 7.72995Z" fill="#CEC485"/>
<path d="M22.2744 5.00591C21.7673 5.258 21.5606 5.87343 21.8126 6.38058C22.8147 8.3962 23.3442 10.7782 23.3442 13.2691C23.3442 15.799 22.7994 18.2112 21.7687 20.2452C21.5127 20.7504 21.7146 21.3674 22.2198 21.6234C22.3684 21.6987 22.5266 21.7343 22.6826 21.7343C23.0566 21.7343 23.4174 21.5288 23.598 21.1722C24.7737 18.8522 25.395 16.1194 25.395 13.2691C25.395 10.4631 24.7913 7.76545 23.649 5.46763C23.3969 4.96053 22.7816 4.75372 22.2744 5.00591Z" fill="#CEC485"/>
<path d="M22.6826 21.7582C22.5171 21.7582 22.3577 21.72 22.209 21.6447C21.959 21.518 21.7733 21.3015 21.6861 21.0352C21.599 20.7688 21.6207 20.4844 21.7474 20.2344C22.7764 18.2037 23.3203 15.7951 23.3203 13.2691C23.3203 10.7818 22.7916 8.40344 21.7913 6.39122C21.5337 5.87306 21.7457 5.24202 22.2638 4.98447C22.4105 4.91152 22.5674 4.87451 22.7302 4.87451C23.1316 4.87451 23.4919 5.09774 23.6705 5.45696C24.8144 7.75799 25.419 10.4594 25.419 13.2691C25.419 16.1231 24.7967 18.8597 23.6194 21.1829C23.4397 21.5378 23.0807 21.7582 22.6826 21.7582ZM22.7302 4.92238C22.575 4.92238 22.4252 4.95771 22.2851 5.02736C22.0456 5.14642 21.8668 5.35164 21.7815 5.60522C21.6963 5.85879 21.715 6.13037 21.8341 6.36991C22.8378 8.38874 23.3682 10.7745 23.3682 13.2691C23.3682 15.8027 22.8226 18.2187 21.7901 20.256C21.6692 20.4946 21.6484 20.766 21.7316 21.0203C21.8148 21.2745 21.992 21.4811 22.2307 21.602C22.3726 21.6739 22.5246 21.7104 22.6826 21.7104C23.0625 21.7104 23.4051 21.5 23.5767 21.1614C24.7506 18.8448 25.3711 16.1157 25.3711 13.2691C25.3711 10.4667 24.7682 7.77273 23.6276 5.47831C23.4572 5.13536 23.1133 4.92238 22.7302 4.92238Z" fill="#CEC485"/>
</g>
<defs>
<clipPath id="clip0_307_1194">
<rect width="25" height="25" fill="white" transform="translate(0.418945 0.781738)"/>
</clipPath>
</defs>
</svg>
