<svg width="90" height="90" viewBox="0 0 90 90" fill="none" xmlns="http://www.w3.org/2000/svg">
<path d="M7.35284 58.5163C5.57785 53.5724 4.79401 48.3273 5.04608 43.0805C5.29815 37.8337 6.5812 32.6879 8.82195 27.9369C11.0627 23.1859 14.2173 18.9228 18.1056 15.391C21.9939 11.8592 26.5398 9.12782 31.4837 7.35283C36.4276 5.57785 41.6727 4.79401 46.9195 5.04608C52.1663 5.29815 57.3121 6.5812 62.0631 8.82195C66.8141 11.0627 71.0772 14.2173 74.609 18.1056C78.1408 21.9939 80.8722 26.5398 82.6472 31.4837C84.4222 36.4276 85.206 41.6727 84.9539 46.9195C84.7018 52.1663 83.4188 57.3121 81.178 62.0631C78.9373 66.8141 75.7827 71.0772 71.8944 74.609C68.0061 78.1408 63.4602 80.8722 58.5163 82.6472C53.5724 84.4222 48.3273 85.206 43.0805 84.9539C37.8337 84.7018 32.6879 83.4188 27.9369 81.178C23.1859 78.9373 18.9228 75.7827 15.391 71.8944C11.8592 68.0061 9.12782 63.4602 7.35283 58.5163L7.35284 58.5163Z" stroke="#F1E8BD" stroke-width="10"/>
<path d="M7.35284 58.5163C10.0261 65.9622 14.8473 72.4482 21.2068 77.1541C27.5663 81.8599 35.1784 84.5743 43.0805 84.9539C50.9826 85.3336 58.8199 83.3614 65.6012 79.2869C72.3825 75.2123 77.8033 69.2184 81.178 62.0631C84.5528 54.9077 85.73 46.9124 84.5607 39.088C83.3914 31.2636 79.9282 23.9617 74.609 18.1056C69.2898 12.2495 62.3535 8.10224 54.6772 6.18826C47.001 4.27428 38.9296 4.67956 31.4837 7.35284" stroke="#F4CF31" stroke-width="10" stroke-linecap="round"/>
</svg>
