<svg width="64" height="64" viewBox="0 0 64 64" fill="none" xmlns="http://www.w3.org/2000/svg">
<g clip-path="url(#clip0_277_165)">
<path d="M11.665 25.3301C12.5846 25.3301 13.3301 24.5846 13.3301 23.665C13.3301 22.7455 12.5846 22 11.665 22C10.7455 22 10 22.7455 10 23.665C10 24.5846 10.7455 25.3301 11.665 25.3301Z" fill="#CEC485"/>
<path d="M21.8634 25.3301C22.783 25.3301 23.5284 24.5846 23.5284 23.665C23.5284 22.7455 22.783 22 21.8634 22C20.9438 22 20.1984 22.7455 20.1984 23.665C20.1984 24.5846 20.9438 25.3301 21.8634 25.3301Z" fill="#CEC485"/>
<path d="M31.9577 25.3301C32.8773 25.3301 33.6228 24.5846 33.6228 23.665C33.6228 22.7455 32.8773 22 31.9577 22C31.0382 22 30.2927 22.7455 30.2927 23.665C30.2927 24.5846 31.0382 25.3301 31.9577 25.3301Z" fill="#CEC485"/>
<path d="M42.052 25.3301C42.9716 25.3301 43.7171 24.5846 43.7171 23.665C43.7171 22.7455 42.9716 22 42.052 22C41.1325 22 40.387 22.7455 40.387 23.665C40.387 24.5846 41.1325 25.3301 42.052 25.3301Z" fill="#CEC485"/>
<path d="M11.665 34.0718C12.5846 34.0718 13.3301 33.3263 13.3301 32.4067C13.3301 31.4872 12.5846 30.7417 11.665 30.7417C10.7455 30.7417 10 31.4872 10 32.4067C10 33.3263 10.7455 34.0718 11.665 34.0718Z" fill="#CEC485"/>
<path d="M21.8634 34.0718C22.783 34.0718 23.5284 33.3263 23.5284 32.4067C23.5284 31.4872 22.783 30.7417 21.8634 30.7417C20.9438 30.7417 20.1984 31.4872 20.1984 32.4067C20.1984 33.3263 20.9438 34.0718 21.8634 34.0718Z" fill="#CEC485"/>
<path d="M31.9577 34.0718C32.8773 34.0718 33.6228 33.3263 33.6228 32.4067C33.6228 31.4872 32.8773 30.7417 31.9577 30.7417C31.0382 30.7417 30.2927 31.4872 30.2927 32.4067C30.2927 33.3263 31.0382 34.0718 31.9577 34.0718Z" fill="#CEC485"/>
<path d="M42.052 34.0718C42.9716 34.0718 43.7171 33.3263 43.7171 32.4067C43.7171 31.4872 42.9716 30.7417 42.052 30.7417C41.1325 30.7417 40.387 31.4872 40.387 32.4067C40.387 33.3263 41.1325 34.0718 42.052 34.0718Z" fill="#CEC485"/>
<path d="M52.2504 34.0718C53.17 34.0718 53.9154 33.3263 53.9154 32.4067C53.9154 31.4872 53.17 30.7417 52.2504 30.7417C51.3308 30.7417 50.5854 31.4872 50.5854 32.4067C50.5854 33.3263 51.3308 34.0718 52.2504 34.0718Z" fill="#CEC485"/>
<path d="M11.665 42.813C12.5846 42.813 13.3301 42.0675 13.3301 41.1479C13.3301 40.2284 12.5846 39.4829 11.665 39.4829C10.7455 39.4829 10 40.2284 10 41.1479C10 42.0675 10.7455 42.813 11.665 42.813Z" fill="#CEC485"/>
<path d="M21.8634 42.813C22.783 42.813 23.5284 42.0675 23.5284 41.1479C23.5284 40.2284 22.783 39.4829 21.8634 39.4829C20.9438 39.4829 20.1984 40.2284 20.1984 41.1479C20.1984 42.0675 20.9438 42.813 21.8634 42.813Z" fill="#CEC485"/>
<path d="M31.9577 42.813C32.8773 42.813 33.6228 42.0675 33.6228 41.1479C33.6228 40.2284 32.8773 39.4829 31.9577 39.4829C31.0382 39.4829 30.2927 40.2284 30.2927 41.1479C30.2927 42.0675 31.0382 42.813 31.9577 42.813Z" fill="#CEC485"/>
<path d="M42.052 42.813C42.9716 42.813 43.7171 42.0675 43.7171 41.1479C43.7171 40.2284 42.9716 39.4829 42.052 39.4829C41.1325 39.4829 40.387 40.2284 40.387 41.1479C40.387 42.0675 41.1325 42.813 42.052 42.813Z" fill="#CEC485"/>
<path d="M52.2504 42.813C53.17 42.813 53.9154 42.0675 53.9154 41.1479C53.9154 40.2284 53.17 39.4829 52.2504 39.4829C51.3308 39.4829 50.5854 40.2284 50.5854 41.1479C50.5854 42.0675 51.3308 42.813 52.2504 42.813Z" fill="#CEC485"/>
<path d="M11.665 51.5547C12.5846 51.5547 13.3301 50.8092 13.3301 49.8896C13.3301 48.9701 12.5846 48.2246 11.665 48.2246C10.7455 48.2246 10 48.9701 10 49.8896C10 50.8092 10.7455 51.5547 11.665 51.5547Z" fill="#CEC485"/>
<path d="M21.8634 51.5547C22.783 51.5547 23.5284 50.8092 23.5284 49.8896C23.5284 48.9701 22.783 48.2246 21.8634 48.2246C20.9438 48.2246 20.1984 48.9701 20.1984 49.8896C20.1984 50.8092 20.9438 51.5547 21.8634 51.5547Z" fill="#CEC485"/>
<path d="M31.9577 51.5547C32.8773 51.5547 33.6228 50.8092 33.6228 49.8896C33.6228 48.9701 32.8773 48.2246 31.9577 48.2246C31.0382 48.2246 30.2927 48.9701 30.2927 49.8896C30.2927 50.8092 31.0382 51.5547 31.9577 51.5547Z" fill="#CEC485"/>
<path d="M42.052 51.5547C42.9716 51.5547 43.7171 50.8092 43.7171 49.8896C43.7171 48.9701 42.9716 48.2246 42.052 48.2246C41.1325 48.2246 40.387 48.9701 40.387 49.8896C40.387 50.8092 41.1325 51.5547 42.052 51.5547Z" fill="#CEC485"/>
<path d="M52.2504 51.5547C53.17 51.5547 53.9154 50.8092 53.9154 49.8896C53.9154 48.9701 53.17 48.2246 52.2504 48.2246C51.3308 48.2246 50.5854 48.9701 50.5854 49.8896C50.5854 50.8092 51.3308 51.5547 52.2504 51.5547Z" fill="#CEC485"/>
<path d="M52.2439 20.561C52.2439 19.6244 50.5789 19 49.3301 19C47.4569 19 46 20.3528 46 21.9138C46 22.5382 46.2081 23.1626 46.6244 23.5789L52.2439 29.1984V20.561Z" fill="#D81665"/>
<path d="M52.2439 20.561C52.2439 19.5203 54.013 19 55.2618 19C57.135 19 58.4878 20.4569 58.4878 21.9138C58.4878 22.5382 58.2797 23.2667 57.8634 23.5789L52.2439 29.1984V20.561Z" fill="#A3024B"/>
<path d="M56.6748 0H7.76423C4.12195 0 1 2.70569 1 6.34797V12.4878H63.439V6.34797C63.439 2.70569 60.3171 0 56.6748 0Z" fill="#3A3459"/>
<path d="M63.439 12.4878V6.34797C63.439 2.70569 60.3171 0 56.6748 0H8.28455" fill="#104C75"/>
<path d="M18.1626 4.03577C18.1626 5.28455 17.3301 6.22114 16.0813 6.22114C14.8325 6.22114 14 5.18049 14 4.03577V0.185366C14 -1.06341 14.8325 -2 16.0813 -2C17.3301 -2 18.1626 -0.95935 18.1626 0.185366V4.03577Z" fill="#F4CF31"/>
<path d="M16.1854 -2C17.4341 -2 18.1626 -0.95935 18.1626 0.185366V4.03577C18.1626 5.28455 17.3301 6.22114 16.0813 6.22114" fill="#F2B233"/>
<path d="M49.3821 4.03577C49.3821 5.28455 48.5496 6.22114 47.3008 6.22114C46.0521 6.22114 45.2195 5.18049 45.2195 4.03577V0.185366C45.2195 -1.06341 46.0521 -2 47.3008 -2C48.5496 -2 49.3821 -0.95935 49.3821 0.185366V4.03577Z" fill="#F4CF31"/>
<path d="M47.0927 -2C48.3415 -2 49.3821 -0.95935 49.3821 0.185366V4.03577C49.3821 5.28455 48.3415 6.22114 47.0927 6.22114" fill="#F2B233"/>
</g>
<rect x="0.5" y="0.5" width="63" height="63" rx="15.5" stroke="#959BA5"/>
<defs>
<clipPath id="clip0_277_165">
<rect width="64" height="64" rx="16" fill="white"/>
</clipPath>
</defs>
</svg>
