<svg width="62" height="62" viewBox="0 0 62 62" fill="none" xmlns="http://www.w3.org/2000/svg">
<g clip-path="url(#clip0_277_205)">
<path d="M18.5003 14.4544V15.1822L22.4775 18.9522L22.9425 19.3959L33.0948 29.0266C33.6197 29.5361 33.9273 30.2075 33.9597 30.9145C33.9597 30.9783 34 31.0334 34 31.1001C33.9968 31.4316 33.9252 31.7595 33.7892 32.0657C33.6499 32.4347 33.4316 32.7732 33.1475 33.0604C33.134 33.0878 33.1162 33.1132 33.0948 33.1358C33.0792 33.1491 33.0614 33.1599 33.0421 33.1677C32.7401 33.4359 32.3824 33.6432 31.9912 33.7767C31.6473 33.9192 31.2762 33.9951 30.9001 34C30.8381 34 30.7885 33.971 30.7265 33.9681C29.9608 33.944 29.2323 33.6534 28.6836 33.1532L22.4837 27.4403L17.9144 23.2209L13.8845 19.5003H10.7845C10.3655 19.4699 9.97343 19.2953 9.68404 19.0102L7.47068 16.9599L3.45625 13.2364C3.2387 13.0371 3.09019 12.7813 3.02999 12.5021C2.96979 12.2228 3.00067 11.9332 3.11863 11.6706C3.23659 11.408 3.43618 11.1846 3.69151 11.0295C3.94684 10.8743 4.24612 10.7945 4.55053 10.8004H9.20045V6.45049C9.19412 6.16573 9.27942 5.88575 9.44529 5.64689C9.61115 5.40804 9.84992 5.22132 10.1306 5.11097C10.4113 5.00062 10.721 4.97174 11.0194 5.02806C11.3179 5.08437 11.5914 5.2233 11.8044 5.42681L17.9764 11.2528C18.2811 11.5235 18.4678 11.8903 18.5003 12.2823V14.4544Z" fill="#F4CF31"/>
<path d="M2.26756 20.9123L3.05316 21.6877C4.47081 23.0898 6.32768 23.9614 8.312 24.1563C6.78257 29.2162 6.98704 34.6419 8.89297 39.5723C10.7989 44.5027 14.297 48.6553 18.8322 51.3708C23.3673 54.0863 28.6795 55.2093 33.9256 54.5613C39.1717 53.9134 44.0511 51.5317 47.7893 47.7944C51.5274 44.057 53.9101 39.1782 54.5592 33.9322C55.2082 28.6862 54.0864 23.3738 51.3719 18.8381C48.6573 14.3023 44.5055 10.8033 39.5755 8.89632C34.6455 6.98935 29.2198 6.78371 24.1596 8.31206C23.9665 6.32892 23.0959 4.47291 21.6944 3.05661L20.9122 2.26762C27.4482 -0.0401097 34.5746 -0.0576605 41.1219 2.21784C47.6692 4.49335 53.2486 8.92675 56.9447 14.7906C60.6407 20.6545 62.2338 27.6005 61.4625 34.4889C60.6913 41.3773 57.6016 47.799 52.7003 52.7003C47.799 57.6016 41.3773 60.6914 34.4888 61.4626C27.6004 62.2338 20.6544 60.6407 14.7905 56.9447C8.92669 53.2487 4.49329 47.6693 2.21778 41.122C-0.0577215 34.5746 -0.0401708 27.4483 2.26756 20.9123Z" fill="#F4CF31" fill-opacity="0.3"/>
<path d="M38.2195 23.8246L28.8159 14.289C29.5383 14.1676 30.2679 14.094 31 14.0688C34.3487 14.0688 37.6222 15.0618 40.4065 16.9223C43.1908 18.7827 45.3609 21.427 46.6424 24.5208C47.9239 27.6145 48.2592 31.0188 47.6059 34.3032C46.9526 37.5875 45.3401 40.6044 42.9722 42.9722C40.6043 45.3401 37.5875 46.9527 34.3031 47.606C31.0188 48.2592 27.6145 47.924 24.5207 46.6425C21.4269 45.361 18.7826 43.1909 16.9222 40.4065C15.0618 37.6222 14.0688 34.3487 14.0688 31.0001C14.094 30.268 14.1675 29.5383 14.2889 28.8159L23.811 38.2094H23.8618C25.7533 40.0443 28.2848 41.0708 30.9201 41.0716C33.5554 41.0724 36.0875 40.0475 37.9802 38.2138C39.8729 36.3801 40.9775 33.8816 41.0601 31.2477C41.1427 28.6137 40.1967 26.051 38.4227 24.1023C38.363 24.0041 38.295 23.9112 38.2195 23.8246V23.8246Z" fill="#F4CF31" fill-opacity="0.3"/>
</g>
<defs>
<clipPath id="clip0_277_205">
<rect width="60.9524" height="60.9524" fill="white" transform="translate(0.523804 0.523926)"/>
</clipPath>
</defs>
</svg>
