<svg width="90" height="86" viewBox="0 0 90 86" fill="none" xmlns="http://www.w3.org/2000/svg">
<path d="M45.2607 85.0516C69.4305 85.0516 89.024 66.236 89.024 43.0258C89.024 19.8156 69.4305 1 45.2607 1C21.091 1 1.49756 19.8156 1.49756 43.0258C1.49756 66.236 21.091 85.0516 45.2607 85.0516Z" fill="#FFF7E4" stroke="#263238" stroke-linecap="round" stroke-linejoin="round"/>
<path d="M28.0542 34.5266V50.8117L49.5956 62.3383V23L28.0542 34.5266Z" fill="#DF5F3F"/>
<path d="M26.7707 34.8101H16V50.3925H26.7707V34.8101Z" fill="#DF5F3F"/>
<path d="M67.0287 56.9263C71.2569 52.5927 73.5959 46.8683 73.5648 40.9298C73.5338 34.9913 71.1351 29.2897 66.8618 24.9971" stroke="#F8CC2E" stroke-width="2" stroke-linecap="round" stroke-linejoin="round"/>
<path d="M62.074 53.61C63.8603 51.9445 65.2726 49.9454 66.224 47.7359C67.1753 45.5265 67.6457 43.1534 67.606 40.7627C67.5663 38.3721 67.0175 36.0146 65.9932 33.8354C64.969 31.6562 63.491 29.7013 61.6504 28.0913" stroke="#F8CC2E" stroke-width="2" stroke-linecap="round" stroke-linejoin="round"/>
<path d="M57.1057 49.2088C58.3198 48.1361 59.2805 46.826 59.9233 45.3669C60.5661 43.9078 60.8761 42.3334 60.8323 40.7496C60.7885 39.1658 60.392 37.6094 59.6695 36.1851C58.947 34.7608 57.9152 33.5016 56.6436 32.4922" stroke="#F8CC2E" stroke-width="2" stroke-linecap="round" stroke-linejoin="round"/>
</svg>
