<svg width="13" height="9" viewBox="0 0 13 9" fill="none" xmlns="http://www.w3.org/2000/svg">
<path d="M11.4121 0.0872192H1.58792C0.712381 0.0872192 0 0.7996 0 1.67514V7.32481C0 8.20035 0.712381 8.91273 1.58792 8.91273H11.4121C12.2876 8.91273 13 8.20035 13 7.32481V1.67531C13.0002 0.7996 12.2878 0.0872192 11.4121 0.0872192ZM10.6362 1.12316L6.5 3.78794L2.36384 1.12316H10.6362ZM11.4121 7.87696H1.58792C1.28353 7.87696 1.03594 7.6292 1.03594 7.32498V1.70467L6.18041 5.01276C6.18732 5.01708 6.19474 5.02002 6.20182 5.02399C6.20925 5.02813 6.21684 5.0321 6.22444 5.0359C6.26432 5.05645 6.30542 5.07302 6.34737 5.0839C6.35169 5.08511 6.356 5.08563 6.36032 5.08666C6.40642 5.09754 6.45304 5.10427 6.49965 5.10427C6.49983 5.10427 6.5 5.10427 6.5 5.10427C6.50035 5.10427 6.50052 5.10427 6.50069 5.10427C6.54731 5.10427 6.59392 5.09771 6.64002 5.08666C6.64434 5.08563 6.64866 5.08511 6.65297 5.0839C6.69493 5.07302 6.73585 5.05645 6.77591 5.0359C6.7835 5.0321 6.7911 5.02813 6.79852 5.02399C6.8056 5.02002 6.81303 5.01708 6.81993 5.01276L11.9644 1.70467V7.32481C11.9642 7.6292 11.7165 7.87696 11.4121 7.87696Z" />
</svg>
