<svg width="24" height="24" viewBox="0 0 24 24" fill="none" xmlns="http://www.w3.org/2000/svg">
<path fill-rule="evenodd" clip-rule="evenodd" d="M4.33327 8.28393C4 9.00854 4 9.83289 4 11.4816V16.6306C4 18.9203 4 20.0652 4.71131 20.7765C5.38072 21.4459 6.43408 21.4853 8.46425 21.4876V15.4164C8.46425 14.1935 9.45562 13.2021 10.6785 13.2021H14.3214C15.5443 13.2021 16.5357 14.1935 16.5357 15.4164V21.4876C18.5659 21.4853 19.6193 21.4459 20.2887 20.7765C21 20.0652 21 18.9203 21 16.6306V11.4816C21 9.83289 21 9.00854 20.6667 8.28393C20.3335 7.55932 19.7076 7.02284 18.4558 5.94987L17.2415 4.90906C14.9789 2.96969 13.8476 2 12.5 2C11.1524 2 10.0211 2.96969 7.75852 4.90906L6.54423 5.94987C5.29244 7.02284 4.66655 7.55932 4.33327 8.28393ZM14.5357 21.4878V15.4164C14.5357 15.2981 14.4397 15.2021 14.3214 15.2021H10.6785C10.5602 15.2021 10.4642 15.2981 10.4642 15.4164V21.4878H14.5357Z" fill=""/>
</svg>
