<svg xmlns="http://www.w3.org/2000/svg" width="63.29670341762562" height="65.3956045568342" fill="none" style=""><rect id="backgroundrect" width="100%" height="100%" x="0" y="0" fill="none" stroke="none" style="" class=""/>

<defs>
<filter id="filter0_dd_1_107" x="0.35600000619888306" y="0.9879999756813049" width="89.28800201416016" height="106.02400207519531" filterUnits="userSpaceOnUse" color-interpolation-filters="sRGB">
<feFlood flood-opacity="0" result="BackgroundImageFix"/>
<feColorMatrix in="SourceAlpha" type="matrix" values="0 0 0 0 0 0 0 0 0 0 0 0 0 0 0 0 0 0 127 0" result="hardAlpha"/>
<feOffset dy="-8.368"/>
<feGaussianBlur stdDeviation="7.322"/>
<feColorMatrix type="matrix" values="0 0 0 0 0.455 0 0 0 0 0.482857 0 0 0 0 0.65 0 0 0 1 0"/>
<feBlend mode="normal" in2="BackgroundImageFix" result="effect1_dropShadow_1_107"/>
<feColorMatrix in="SourceAlpha" type="matrix" values="0 0 0 0 0 0 0 0 0 0 0 0 0 0 0 0 0 0 127 0" result="hardAlpha"/>
<feOffset dy="8.368"/>
<feGaussianBlur stdDeviation="7.322"/>
<feColorMatrix type="matrix" values="0 0 0 0 0.208542 0 0 0 0 0.227257 0 0 0 0 0.320833 0 0 0 1 0"/>
<feBlend mode="normal" in2="effect1_dropShadow_1_107" result="effect2_dropShadow_1_107"/>
<feBlend mode="normal" in="SourceGraphic" in2="effect2_dropShadow_1_107" result="shape"/>
</filter>
<linearGradient id="paint0_linear_1_107" x1="0.02336269403677909" y1="0.976355801685992" x2="0.884525311395471" y2="0.11515791992206581">
<stop stop-color="#FF86AA"/>
<stop offset="1" stop-color="#FF9B8C"/>
</linearGradient>
<linearGradient id="paint1_linear_1_107" x1="0.11773103182589534" y1="0.8822785777952228" x2="0.840516877695776" y2="0.15934339965164487">
<stop stop-color="#43496C"/>
<stop offset="1" stop-color="#8C96CA"/>
</linearGradient>
<linearGradient id="paint2_linear_1_107" x1="0.14626163347167684" y1="0.8533770035623467" x2="0.8535864758254011" y2="0.14601997752403775">
<stop stop-color="#8C96CA"/>
<stop offset="1" stop-color="#FFF6F7"/>
</linearGradient>
</defs>
<g class="currentLayer" style=""><title>Layer 1</title><g filter="url(#filter0_dd_1_107)" id="svg_1" class="">
<path d="M0.6802349165916437,62.60547827920914 C0.27223491659164445,62.19737827920913 0.09003491659164453,61.614378279209134 0.19313491659164406,61.04477827920914 C0.5819349165916439,58.92167827920913 4.429734916591645,46.41897827920914 7.414034916591643,43.43487827920913 C10.842734916591645,40.00617827920914 16.422434916591644,40.00617827920914 19.851234916591643,43.43487827920913 C23.279934916591642,46.863578279209136 23.279934916591642,52.443178279209135 19.851234916591643,55.87187827920914 C16.866934916591646,58.85607827920914 4.363934916591646,62.70377827920913 2.2410349165916443,63.09247827920913 C1.6714349165916431,63.19567827920913 1.0884349165916447,63.01357827920914 0.6802349165916437,62.60547827920914 z" fill="url(#paint0_linear_1_107)" id="svg_2"/>
<path d="M23.58233491659164,49.65317827920914 L23.607434916591643,49.67827827920914 L23.58233491659164,49.65317827920914 z" fill="#BCC2DA" id="svg_3"/>
<path d="M4.930234916591644,28.506178279209138 C4.761334916591643,28.337278279209137 4.626534916591645,28.132178279209135 4.536634916591645,27.90137827920914 C4.285234916591644,27.251578279209134 4.434634916591644,26.51437827920914 4.926534916591645,26.02247827920914 C17.981934916591648,12.967378279209136 26.279934916591642,15.532478279209137 26.626034916591642,15.647878279209138 L26.903034916591643,15.725578279209138 C27.46653491659164,15.888278279209139 27.91603491659164,16.32067827920914 28.093334916591644,16.884278279209134 C28.271934916591647,17.44417827920914 28.157734916591643,18.05627827920914 27.789634916591645,18.51667827920914 C24.59903491659164,22.494178279209137 21.427734916591646,27.603878279209134 18.363334916591647,33.70207827920914 C18.10823491659164,34.21207827920914 17.618834916591645,34.56567827920914 17.056434916591645,34.65177827920914 C16.491734916591643,34.73567827920914 15.958434916591646,34.559578279209134 15.524934916591643,34.13317827920914 C10.865834916591645,29.168078279209134 6.293034916591644,29.030878279209134 6.101034916591645,29.023678279209136 C5.652834916591644,29.002878279209135 5.236234916591645,28.812178279209135 4.930234916591644,28.506178279209138 z" fill="#BCC2DA" id="svg_4"/>
<path d="M35.09843491659164,58.68137827920914 C34.79233491659164,58.37537827920913 34.604034916591644,57.961178279209136 34.58473491659164,57.51177827920914 C34.574934916591644,57.31017827920914 34.288334916591644,52.53207827920913 29.155634916591644,47.80997827920913 C28.724434916591647,47.46857827920914 28.526534916591643,46.847978279209144 28.606634916591645,46.27477827920913 C28.685534916591642,45.70267827920914 29.040234916591643,45.20717827920913 29.555234916591644,44.94737827920913 C35.77503491659164,41.80537827920914 40.94173491659164,38.57707827920914 44.908634916591645,35.353678279209134 C45.35803491659164,34.989378279209134 45.956834916591646,34.869078279209134 46.51063491659164,35.02927827920914 C47.065734916591644,35.19327827920914 47.50663491659164,35.617178279209135 47.68753491659164,36.16247827920914 L47.96093491659165,36.98237827920914 C48.076234916591645,37.328478279209136 50.64143491659165,45.62627827920913 37.58603491659164,58.68137827920914 C37.09053491659164,59.176878279209134 36.34963491659165,59.32987827920914 35.698634916591644,59.07487827920913 C35.46893491659164,58.98387827920914 35.26603491659164,58.84907827920914 35.09843491659164,58.68137827920914 z" fill="#BCC2DA" id="svg_5"/>
<path d="M58.530434916591645,19.629778279209134 L45.45523491659164,16.694678279209135 L43.65553491659164,4.755178279209137 C43.92913491659164,4.680478279209137 44.202934916591644,4.605878279209136 44.501334916591645,4.5561782792091385 C51.78953491659165,2.939478279209137 58.18213491659165,3.1134782792091364 58.45573491659164,3.1382782792091355 C59.37623491659164,3.163078279209138 60.12253491659165,3.909378279209136 60.147334916591646,4.829878279209137 C60.172134916591645,5.103378279209139 60.34623491659164,11.495878279209137 58.72943491659164,18.783878279209134 C58.67973491659164,19.082378279209138 58.60513491659164,19.356078279209136 58.530434916591645,19.629778279209134 z" fill="#BCC2DA" id="svg_6"/>
<path d="M50.943934916591644,34.72797827920914 C49.774834916591644,35.89697827920914 48.481434916591645,37.04107827920914 47.113234916591644,38.110778279209136 C42.95943491659165,41.468678279209136 37.58643491659164,44.85147827920913 31.144034916591643,48.110078279209134 C27.139234916591647,50.07507827920914 24.37813491659164,51.244078279209134 24.253834916591643,51.26907827920914 C23.58213491659164,51.54257827920914 22.835934916591647,51.39337827920913 22.33833491659164,50.89587827920914 L12.388534916591645,40.94627827920914 C11.891034916591643,40.44877827920914 11.741734916591643,39.702578279209135 11.990434916591646,39.05587827920914 C12.065334916591645,38.931578279209134 13.209534916591643,36.09587827920914 15.224234916591644,32.091078279209135 C18.383234916591647,25.798078279209136 21.691634916591646,20.499878279209135 25.049634916591643,16.296378279209137 C26.144134916591646,14.90347827920914 27.338034916591646,13.56017827920914 28.556834916591647,12.341278279209135 C32.064234916591644,8.834078279209137 37.138534916591645,6.296978279209139 43.655634916591644,4.754878279209137 L58.53053491659165,19.629378279209135 C56.98843491659164,26.146378279209138 54.45133491659165,31.220578279209136 50.943934916591644,34.72797827920914 z" fill="url(#paint1_linear_1_107)" id="svg_7"/>
<path d="M32.28863491659165,30.99767827920914 C28.859934916591648,27.568978279209134 28.859934916591648,21.98947827920914 32.28863491659165,18.56077827920914 C35.71743491659164,15.13207827920914 41.297134916591645,15.13207827920914 44.725834916591644,18.56077827920914 C48.15463491659165,21.98947827920914 48.15463491659165,27.568978279209134 44.725834916591644,30.99767827920914 C41.297134916591645,34.42637827920914 35.71743491659164,34.42637827920914 32.28863491659165,30.99767827920914 z" fill="url(#paint2_linear_1_107)" id="svg_8"/>
</g></g></svg>