<svg width="25" height="24" viewBox="0 0 25 24" fill="none" xmlns="http://www.w3.org/2000/svg">
<path d="M24.7392 2.72181C24.5727 2.59093 24.3581 2.54377 24.1541 2.59093L21.3371 3.26749V1.90763C21.3371 0.867288 20.6741 0.218637 19.6058 0.218637C17.6906 0.218637 13.6717 2.54955 12.4687 3.50231C11.3052 2.54088 7.44794 0.0348206 5.46252 0.0348206C4.33749 0.0348206 3.66382 0.73544 3.66382 1.90763V3.31946C3.00843 3.21841 1.66493 2.91333 0.848828 2.71411C0.643839 2.66311 0.427301 2.71026 0.260808 2.84115C0.0981638 2.97011 0 3.16932 0 3.38105V21.2449C0 21.4422 0.0866151 21.6308 0.233861 21.7637C0.383994 21.8926 0.585133 21.9513 0.779536 21.9225C0.842091 21.9148 6.94653 20.5424 9.95785 22.1409C10.0724 22.2006 10.2543 22.3498 10.4323 22.4912C10.9424 22.9041 11.6411 23.469 12.4966 23.4729C12.4995 23.4729 12.5034 23.4729 12.5053 23.4729C13.3609 23.4729 14.0855 22.881 14.6149 22.4479C14.7967 22.2978 14.9892 22.1419 15.1047 22.0803C18.1093 20.4895 24.1512 21.9128 24.2128 21.9234C24.4101 21.9523 24.6102 21.8955 24.7604 21.7646C24.9124 21.6357 25 21.4451 25 21.2459V3.25786C25.001 3.04806 24.9038 2.84981 24.7392 2.72181ZM5.0333 1.90763C5.0333 1.42644 5.16611 1.40623 5.46156 1.40623C7.03796 1.40623 10.5122 3.58411 11.5131 4.33863L12.4851 5.03925L13.4273 4.50031C14.4647 3.7891 18.0236 1.591 19.6058 1.591C19.9657 1.591 19.9657 1.66415 19.9657 1.90763V15.5678C17.963 15.6053 14.4666 16.1366 13.4378 16.7101C12.4091 17.2818 12.5072 17.3473 12.5072 17.3473C12.5072 17.3473 12.436 17.2577 11.514 16.688C10.4477 15.9662 7.01775 15.6053 5.03426 15.5678V1.90763H5.0333ZM23.6286 19.0228C21.9839 18.301 17.1989 17.7938 14.4647 19.2422C14.228 19.3683 13.9941 19.5579 13.7477 19.759C13.358 20.0785 12.872 20.475 12.5063 20.475H12.5053C12.13 20.4731 11.668 20.1007 11.2946 19.7994C11.0579 19.6079 10.8336 19.4251 10.6017 19.3038C7.86272 17.8506 3.19321 18.5704 1.37237 19.2037V4.2472C2.10475 4.41562 3.11237 4.63697 3.66382 4.70626V16.9344H4.4472C6.27286 16.9344 9.66624 17.1201 11.8576 18.3799L12.0655 18.4992V19.0093L12.5053 18.7504L12.8845 18.9689V18.53L13.0991 18.4049C15.2876 17.124 18.7079 16.9344 20.5528 16.9344H21.3371V4.67835L23.6286 4.12786V19.0228Z" fill="#CEC485"/>
<path d="M7.0918 9.26318C7.0918 9.86371 7.0918 10.9108 7.0918 11.3304C7.0918 11.4911 7.31796 11.6153 7.59705 11.7105V8.75407C7.31796 8.87052 7.0918 9.03413 7.0918 9.26318Z" fill="#CEC485"/>
<path d="M12.056 14.0597C12.056 13.5987 12.056 6.72824 12.056 6.30768C12.056 5.94678 11.5882 6.29902 11.5882 6.29902L8.62697 8.51059C8.62697 8.51059 8.35076 8.54042 8.03125 8.61645V11.8241C8.35076 11.8934 8.62697 11.9242 8.62697 11.9242L11.5238 14.0742C11.5238 14.0751 12.056 14.5198 12.056 14.0597Z" fill="#CEC485"/>
<path d="M13.3079 12.6113C13.4311 12.7384 13.5947 12.8009 13.7564 12.8009C13.9142 12.8009 14.072 12.7413 14.1923 12.6219C14.9863 11.8482 15.3713 11.007 15.3405 10.1197C15.2904 8.7329 14.2077 7.79938 14.1606 7.75992C13.8978 7.53761 13.5004 7.57033 13.2771 7.83307C13.0538 8.0958 13.0856 8.49134 13.3512 8.71654C13.3579 8.72328 14.0566 9.33824 14.0865 10.164C14.1057 10.6846 13.8478 11.2082 13.3165 11.725C13.0702 11.9685 13.0654 12.365 13.3079 12.6113Z" fill="#CEC485"/>
<path d="M16.6514 10.1284C16.6841 11.0369 16.2481 11.9406 15.355 12.8125C15.1077 13.054 15.1029 13.4505 15.3444 13.6969C15.4667 13.8249 15.6293 13.8865 15.7939 13.8865C15.9498 13.8865 16.1076 13.8268 16.2308 13.7104C17.3847 12.5796 17.9496 11.3612 17.9063 10.0841C17.8332 8.08329 16.2635 6.73114 16.1981 6.67339C15.9344 6.45108 15.5369 6.4838 15.3136 6.74653C15.0904 7.00927 15.1241 7.40673 15.3868 7.63001C15.3993 7.64156 16.6023 8.69826 16.6514 10.1284Z" fill="#CEC485"/>
</svg>
