<svg width="30" height="31" viewBox="0 0 30 31" fill="none" xmlns="http://www.w3.org/2000/svg">
<path d="M3.36292 26.9162V24.011V18.7022V18.0176H1.99393C1.24088 18.0176 0.625 18.6335 0.625 19.3866V26.1249V26.2319C0.625 26.985 1.24094 27.6008 1.99393 27.6008H3.36286V26.9162H3.36292Z" fill="#657694"/>
<path d="M4.73214 18.7021H3.36304V22.8411V26.9162H4.73214C5.48513 26.9162 6.10107 26.3005 6.10107 25.5473V20.0712C6.10107 19.3181 5.48513 18.7021 4.73214 18.7021Z" fill="#FCD051"/>
<path d="M23.8989 25.4406C23.8989 26.1936 24.515 26.8095 25.268 26.8095H26.6371V22.6704V18.5952H25.268C24.515 18.5952 23.8989 19.2112 23.8989 19.9644V25.4406Z" fill="#FCD051"/>
<path d="M26.637 22.6702V26.8093V27.4937H28.0059C28.7589 27.4937 29.3749 26.8778 29.3749 26.1247V19.2796C29.3749 18.5266 28.7589 17.9106 28.0059 17.9106H26.637V18.595V22.6702Z" fill="#657694"/>
<path d="M15.0001 6.41071C17.3553 6.41071 19.5451 7.1187 21.3682 8.33306C22.6145 9.1631 23.5588 9.35206 24.1967 8.71409C24.8346 8.07601 24.8128 6.94632 22.7547 5.64266C20.5114 4.22158 17.8519 3.39893 15.0002 3.39893C12.1484 3.39893 9.48868 4.22164 7.24565 5.64266C5.18742 6.94626 5.16539 8.07601 5.80354 8.71409C6.44145 9.35206 7.38575 9.16321 8.63204 8.33306C10.4549 7.1187 12.6448 6.41071 15.0001 6.41071Z" fill="#657694"/>
<path d="M26.637 24.0576C26.2917 24.0576 26.012 24.3375 26.012 24.6826V24.7426C26.012 25.0879 26.2918 25.3677 26.637 25.3677C26.9822 25.3677 27.2621 25.0878 27.2621 24.7426V24.6826C27.262 24.3375 26.9822 24.0576 26.637 24.0576Z" fill="#000003"/>
<path d="M28.6201 17.383C28.4964 14.1153 27.227 11.0509 25.0039 8.65306C25.1559 8.34866 25.2172 8.01157 25.1788 7.66569C25.0816 6.78983 24.3785 5.93155 23.089 5.11475C20.6716 3.5834 17.8745 2.77393 15 2.77393C12.1253 2.77393 9.32814 3.58334 6.91109 5.11475C5.62144 5.93155 4.91825 6.78989 4.82116 7.66581C4.78284 8.01169 4.84407 8.34878 4.99606 8.65306C2.74846 11.0773 1.47545 14.1829 1.37602 17.491C0.578204 17.7519 0 18.5028 0 19.3867V26.232C0 27.3314 0.894494 28.2259 1.99395 28.2259H3.36288C3.70805 28.2259 3.9879 27.9461 3.9879 27.6009V27.5413H4.73198C5.8315 27.5413 6.72593 26.6468 6.72593 25.5474V20.0713C6.72593 18.9718 5.83144 18.0773 4.73198 18.0773H3.98802V18.0177C3.98802 17.6725 3.70811 17.3927 3.36299 17.3927H2.63057C2.75075 14.4533 3.89216 11.6968 5.88487 9.53302C6.13999 9.65701 6.4213 9.71994 6.72663 9.71994C7.36654 9.71994 8.10306 9.43652 8.97845 8.85351C10.7633 7.66452 12.8456 7.03604 15 7.03604C17.1544 7.03604 19.2365 7.66452 21.0217 8.85357C21.8971 9.43669 22.6336 9.72005 23.2735 9.71999C23.5789 9.71994 23.8601 9.65718 24.1152 9.53314C26.0838 11.6708 27.2223 14.3866 27.3654 17.2859H26.6371C26.2918 17.2859 26.012 17.5658 26.012 17.9109V17.9702H25.268C24.1684 17.9702 23.2738 18.8649 23.2738 19.9645V25.4407C23.2738 26.5401 24.1684 27.4346 25.268 27.4346H26.012V27.4939C26.012 27.8391 26.2919 28.1189 26.6371 28.1189H28.006C29.1055 28.1189 30 27.2244 30 26.1249V19.2799C30.0001 18.3946 29.42 17.6426 28.6201 17.383ZM2.73792 18.7023C2.73792 19.0475 3.01782 19.3273 3.36294 19.3273H4.73204C5.14226 19.3273 5.47589 19.661 5.47589 20.0712V25.5473C5.47589 25.9575 5.1422 26.2912 4.73204 26.2912H3.98802V22.4932C3.98802 22.148 3.70811 21.8682 3.36299 21.8682C3.01788 21.8682 2.73797 22.148 2.73797 22.4932V26.9758H1.99395C1.58373 26.9758 1.2501 26.6421 1.2501 26.2319V19.3867C1.2501 18.9765 1.58379 18.6428 1.99395 18.6428H2.7378V18.7023H2.73792V18.7023ZM23.2735 8.46972C23.0123 8.46978 22.5299 8.35581 21.7147 7.813C19.7237 6.48684 17.4018 5.78583 15.0001 5.78583C12.5982 5.78583 10.2763 6.48684 8.28547 7.813C7.47048 8.35587 6.98785 8.46972 6.72663 8.46972C6.5304 8.46972 6.38199 8.40884 6.24546 8.2722C6.1039 8.13064 6.04443 7.97735 6.06376 7.80356C6.08784 7.58618 6.28384 6.99186 7.58011 6.17079C9.79678 4.76635 12.3626 4.02408 15.0001 4.02408C17.6373 4.02408 20.2032 4.76647 22.4202 6.17079C23.7162 6.99175 23.9122 7.58601 23.9364 7.80351C23.9557 7.97735 23.8962 8.13069 23.7547 8.27232C23.6181 8.40884 23.4697 8.46972 23.2735 8.46972ZM28.75 26.1249C28.75 26.5351 28.4163 26.8688 28.0061 26.8688H27.2622V26.8095C27.2622 26.4642 26.9824 26.1844 26.6371 26.1844H25.2681C24.8579 26.1844 24.524 25.8508 24.524 25.4406V19.9645C24.524 19.5542 24.8579 19.2203 25.2681 19.2203H26.0121V22.9757C26.0121 23.321 26.2919 23.6008 26.6372 23.6008C26.9824 23.6008 27.2622 23.321 27.2622 22.9757V18.5359H28.0061C28.4163 18.5359 28.75 18.8696 28.75 19.2798V26.1249Z" fill="#000003"/>
<path d="M3.36306 21.4541C3.70823 21.4541 3.98808 21.1742 3.98808 20.8291V20.7691C3.98808 20.4238 3.70818 20.144 3.36306 20.144C3.01794 20.144 2.73804 20.4239 2.73804 20.7691V20.8291C2.73804 21.1742 3.01788 21.4541 3.36306 21.4541Z" fill="#000003"/>
</svg>
