<svg width="51" height="50" viewBox="0 0 51 50" fill="none" xmlns="http://www.w3.org/2000/svg">
<path d="M25.6372 25.3028C32.6597 25.3028 38.2496 19.6156 38.2496 12.5066C38.2496 5.60821 32.6035 0 25.6372 0C18.7271 0 13.0248 5.66087 13.0529 12.5329C13.081 19.6156 18.6428 25.3028 25.6372 25.3028ZM25.6372 19.5893C22.1822 19.5893 19.2889 16.535 19.2889 12.5329C19.2608 8.71511 22.2102 5.71353 25.6372 5.71353C29.1204 5.71353 32.0136 8.68878 32.0136 12.5066C32.0136 16.5087 29.1484 19.5893 25.6372 19.5893ZM8.39002 50H42.9125C48.081 50 50.6372 48.3412 50.6372 44.8657C50.6372 37.0195 40.3563 27.9884 25.6372 27.9884C10.9181 27.9884 0.637207 37.0195 0.637207 44.8657C0.637207 48.3412 3.19339 50 8.39002 50ZM8.33384 44.2865C7.80013 44.2865 7.6035 44.0758 7.6035 43.7072C7.6035 40.2317 14.2046 33.7019 25.6372 33.7019C37.0698 33.7019 43.6709 40.2317 43.6709 43.7072C43.6709 44.0758 43.5024 44.2865 42.9406 44.2865H8.33384Z" fill="white"/>
</svg>
