<svg width="55" height="128" viewBox="0 0 55 128" fill="" xmlns="http://www.w3.org/2000/svg">
<path fill-rule="evenodd" clip-rule="evenodd" d="M54.4056 -6.74266C54.4056 -10.7892 53.5483 -14.6699 52.0223 -17.5312C50.4963 -20.3925 48.4265 -22 46.2684 -22H8.13725C5.97911 -22 3.90937 -20.3925 2.38334 -17.5312C0.857314 -14.6699 0 -10.7892 0 -6.74266V112.743C9.66067e-05 115.486 0.394684 118.179 1.14222 120.537C1.88975 122.895 2.96258 124.832 4.24774 126.143C5.53291 127.454 6.98286 128.092 8.44494 127.988C9.90702 127.884 11.3271 127.043 12.5558 125.554L27.2028 107.809L41.8499 125.554C43.0785 127.042 44.4983 127.882 45.96 127.985C47.4216 128.088 48.8711 127.45 50.1558 126.139C51.4406 124.828 52.513 122.892 53.2604 120.534C54.0078 118.177 54.4025 115.485 54.4029 112.743V-6.74266H54.4056ZM48.9808 -6.74266V112.743C48.9801 113.656 48.8483 114.552 48.5991 115.337C48.3499 116.122 47.9926 116.766 47.5648 117.203C47.1369 117.64 46.6542 117.852 46.1674 117.818C45.6806 117.784 45.2076 117.505 44.7983 117.01L28.6757 97.4802C28.2368 96.9482 27.7254 96.6652 27.2028 96.6652C26.6802 96.6652 26.1688 96.9482 25.73 97.4802L9.60738 117.01C9.198 117.505 8.72508 117.784 8.23828 117.818C7.75148 117.852 7.26879 117.64 6.84089 117.203C6.41299 116.766 6.05569 116.122 5.80652 115.337C5.55735 114.552 5.4255 113.656 5.42483 112.743V-6.74266C5.42483 -8.09149 5.7106 -9.38508 6.21928 -10.3388C6.72796 -11.2926 7.41787 -11.8284 8.13725 -11.8284H46.2684C46.9878 -11.8284 47.6777 -11.2926 48.1864 -10.3388C48.695 -9.38508 48.9808 -8.09149 48.9808 -6.74266Z" fill=""/>
</svg>
