<svg width="35" height="30" viewBox="0 0 35 30" fill="none" xmlns="http://www.w3.org/2000/svg">
<rect width="35" height="30" rx="10" fill="#C6AD4A"/>
<path d="M9.368 18.552C9.176 18.552 9.01067 18.488 8.872 18.36C8.744 18.2213 8.68 18.056 8.68 17.864V15.464H6.296C6.104 15.464 5.944 15.4 5.816 15.272C5.688 15.144 5.624 14.9787 5.624 14.776C5.624 14.584 5.688 14.424 5.816 14.296C5.944 14.1573 6.104 14.088 6.296 14.088H8.68V11.704C8.68 11.512 8.744 11.352 8.872 11.224C9.01067 11.0853 9.176 11.016 9.368 11.016C9.57067 11.016 9.736 11.0853 9.864 11.224C9.992 11.352 10.056 11.512 10.056 11.704V14.088H12.44C12.632 14.088 12.792 14.1573 12.92 14.296C13.0587 14.424 13.128 14.584 13.128 14.776C13.128 14.9787 13.0587 15.144 12.92 15.272C12.792 15.4 12.632 15.464 12.44 15.464H10.056V17.864C10.056 18.056 9.992 18.2213 9.864 18.36C9.736 18.488 9.57067 18.552 9.368 18.552ZM17.59 21C17.398 21 17.2327 20.936 17.094 20.808C16.966 20.6693 16.902 20.504 16.902 20.312V10.12L15.446 10.664C15.3073 10.728 15.1793 10.76 15.062 10.76C14.8593 10.76 14.694 10.696 14.566 10.568C14.438 10.44 14.374 10.28 14.374 10.088C14.374 9.93867 14.406 9.80533 14.47 9.688C14.5447 9.57067 14.662 9.48533 14.822 9.432L17.286 8.568C17.3393 8.54667 17.3927 8.53067 17.446 8.52C17.51 8.49867 17.5633 8.488 17.606 8.488C17.8087 8.488 17.9687 8.55733 18.086 8.696C18.214 8.824 18.278 8.98933 18.278 9.192V20.312C18.278 20.504 18.2087 20.6693 18.07 20.808C17.942 20.936 17.782 21 17.59 21ZM24.451 21C23.6617 21 22.979 20.7493 22.403 20.248C21.8377 19.7467 21.4057 19.032 21.107 18.104C20.819 17.1653 20.675 16.04 20.675 14.728C20.675 13.4373 20.819 12.3227 21.107 11.384C21.4057 10.4453 21.8377 9.72533 22.403 9.224C22.979 8.72267 23.6617 8.472 24.451 8.472C25.2617 8.472 25.9497 8.728 26.515 9.24C27.0803 9.74133 27.507 10.4613 27.795 11.4C28.0937 12.3387 28.243 13.448 28.243 14.728C28.243 16.0293 28.0937 17.1493 27.795 18.088C27.507 19.016 27.0803 19.736 26.515 20.248C25.9497 20.7493 25.2617 21 24.451 21ZM24.451 19.608C25.0057 19.608 25.459 19.4 25.811 18.984C26.163 18.5573 26.4243 17.976 26.595 17.24C26.7763 16.504 26.867 15.6667 26.867 14.728C26.867 13.8 26.7763 12.9733 26.595 12.248C26.4243 11.512 26.1577 10.9307 25.795 10.504C25.443 10.0773 24.995 9.864 24.451 9.864C23.9177 9.864 23.475 10.0773 23.123 10.504C22.771 10.92 22.5043 11.496 22.323 12.232C22.1417 12.968 22.051 13.8 22.051 14.728C22.051 15.6773 22.1417 16.52 22.323 17.256C22.5043 17.992 22.771 18.568 23.123 18.984C23.475 19.4 23.9177 19.608 24.451 19.608Z" fill="white"/>
</svg>
