<svg width="30" height="30" viewBox="0 0 30 30" fill="none" xmlns="http://www.w3.org/2000/svg">
<g clip-path="url(#clip0_438_6524)">
<path d="M18.2482 10.0487L13.4362 15.8202L11.7516 13.8006C11.5941 13.6116 11.4009 13.4554 11.1831 13.3411C10.9653 13.2267 10.727 13.1564 10.482 13.1342C10.237 13.1119 9.99001 13.1381 9.75512 13.2113C9.52023 13.2845 9.30206 13.4032 9.11306 13.5607C8.92406 13.7182 8.76793 13.9114 8.65359 14.1292C8.53925 14.347 8.46893 14.5853 8.44666 14.8303C8.42438 15.0753 8.45059 15.3223 8.52377 15.5572C8.59695 15.7921 8.71569 16.0102 8.87319 16.1992L11.997 19.9492C12.1725 20.1605 12.3924 20.3306 12.6411 20.4473C12.8898 20.5641 13.1611 20.6247 13.4358 20.6249C13.7105 20.6251 13.9818 20.5648 14.2306 20.4484C14.4794 20.3319 14.6996 20.1621 14.8754 19.9511L21.1266 12.4511C21.2855 12.2622 21.4055 12.0439 21.4798 11.8085C21.5541 11.5732 21.5812 11.3254 21.5595 11.0796C21.5378 10.8338 21.4678 10.5946 21.3535 10.3759C21.2392 10.1572 21.0828 9.96316 20.8933 9.80502C20.7038 9.64688 20.485 9.52772 20.2493 9.45436C20.0137 9.381 19.7659 9.35489 19.5201 9.37754C19.2744 9.40018 19.0355 9.47113 18.8172 9.58631C18.599 9.7015 18.4056 9.85865 18.2482 10.0487Z" fill=""/>
<path d="M15 0C12.0333 0 9.13319 0.879735 6.66645 2.52796C4.19972 4.17618 2.27713 6.51886 1.14181 9.25975C0.00649929 12.0006 -0.290551 15.0166 0.288228 17.9264C0.867006 20.8361 2.29562 23.5088 4.3934 25.6066C6.49119 27.7044 9.16394 29.133 12.0737 29.7118C14.9834 30.2906 17.9994 29.9935 20.7403 28.8582C23.4811 27.7229 25.8238 25.8003 27.472 23.3336C29.1203 20.8668 30 17.9667 30 15C29.9958 11.0231 28.4141 7.2102 25.6019 4.39808C22.7898 1.58595 18.977 0.0042353 15 0V0ZM15 26.25C12.775 26.25 10.5999 25.5902 8.74984 24.354C6.89979 23.1179 5.45785 21.3609 4.60636 19.3052C3.75488 17.2495 3.53209 14.9875 3.96617 12.8052C4.40026 10.6229 5.47171 8.61839 7.04505 7.04505C8.6184 5.47171 10.623 4.40025 12.8052 3.96617C14.9875 3.53208 17.2495 3.75487 19.3052 4.60636C21.3609 5.45784 23.1179 6.89978 24.354 8.74984C25.5902 10.5999 26.25 12.775 26.25 15C26.2468 17.9827 25.0604 20.8423 22.9514 22.9514C20.8423 25.0604 17.9827 26.2467 15 26.25Z" fill="#C6AD4A"/>
</g>
<defs>
<clipPath id="clip0_438_6524">
<rect width="30" height="30" fill="white"/>
</clipPath>
</defs>
</svg>
