<svg width="30" height="30" viewBox="0 0 30 30" fill="none" xmlns="http://www.w3.org/2000/svg">
<path d="M9.22804 12.398H7.68108V9.48883H9.21779V7.94154H10.5904V9.46819H12.1371V12.3882H10.5904V12.3981H9.22804V12.398ZM3.97111 26.0518C3.97189 26.1237 3.97307 26.1773 3.97385 26.2124C3.97424 26.2341 3.97039 26.2541 3.96921 26.2753C4.01748 27.4656 4.99824 28.4187 6.19943 28.4187H26.0392V26.2333C26.0392 25.797 26.3933 25.4426 26.8299 25.4426C27.2661 25.4426 27.6205 25.797 27.6205 26.2333V29.2093C27.6205 29.646 27.266 29.9999 26.8299 29.9999H6.0801C6.03902 29.9999 5.99944 29.9941 5.95947 29.988C3.96706 29.8632 2.38306 28.2075 2.38306 26.1838C2.38306 26.1374 2.38861 26.0926 2.39018 26.0467C2.36569 23.6991 2.39018 5.8411 2.39292 3.89808C2.38985 3.87045 2.38463 3.84406 2.38463 3.81584C2.38463 1.71156 4.09638 0 6.20074 0H7.46411H26.6361H26.8291C27.2657 0 27.6197 0.354198 27.6197 0.790627V23.1371C27.6197 23.5734 27.2656 23.9277 26.8291 23.9277C26.8244 23.9277 26.8206 23.9262 26.816 23.9262C26.758 23.9401 26.6971 23.9493 26.6349 23.9493H6.19943C5.01189 23.949 4.04021 24.8813 3.97111 26.0518ZM18.1799 7.94154H24.3472V9.30412H22.8002V10.8514H21.2637V12.3984H19.7164V13.9354H18.1792V17.1934H26.0686V15.4816H19.891V14.1192H21.4383V12.5723H22.9748V11.025H24.522V9.48883H26.0686V6.22032H18.1799V7.94154ZM14.6923 12.5723H18.3672V10.8511H14.6923V12.5723ZM5.97031 17.1926H7.68154V14.1191H9.22811V14.1093H12.1372V17.1934H13.8585V9.30412H12.3113V7.74697H10.7644V6.22032H9.053V7.76722H7.50604V9.31451H5.96894V17.1926H5.97031Z" fill=""/>
</svg>
