<svg width="39" height="30" viewBox="0 0 39 30" fill="none" xmlns="http://www.w3.org/2000/svg">
<path d="M13.45 9.25496L12.8748 8.81246L14.0237 7.92869L15.7478 9.25496C16.0647 9.49871 16.5799 9.49871 16.8967 9.25496C17.2136 9.01121 17.2136 8.61494 16.8967 8.37119L14.599 6.60371C14.2822 6.35996 13.767 6.35996 13.4501 6.60371L8.8546 10.1387C8.53772 10.3825 8.53772 10.7787 8.8546 11.0225C9.01388 11.1437 9.22182 11.205 9.42985 11.205C9.63787 11.205 9.84582 11.145 10.0018 11.0225L11.726 9.69623L12.3012 10.1387C12.4605 10.26 12.6684 10.3212 12.8765 10.3212C13.0845 10.3212 13.2924 10.26 13.4501 10.1387C13.7669 9.89498 13.7669 9.49871 13.45 9.25496Z" fill="white"/>
<path d="M22.6444 21.6299L24.9421 23.3974C25.1014 23.5186 25.3093 23.5799 25.5174 23.5799C25.7254 23.5799 25.9333 23.5186 26.0926 23.3986C26.4095 23.1549 26.4095 22.7586 26.0926 22.5149L24.3685 21.1886L25.5174 20.3048L26.091 20.7461C26.2503 20.8673 26.4582 20.9286 26.6663 20.9286C26.8743 20.9286 27.0822 20.8674 27.2399 20.7461C27.5568 20.5024 27.5568 20.1061 27.2399 19.8623L26.6663 19.4211L27.8152 18.5361L29.5393 19.8623C29.8562 20.1061 30.3713 20.1061 30.6882 19.8623C31.0051 19.6186 31.0051 19.2223 30.6882 18.9786L28.3905 17.2098C28.2378 17.0936 28.0313 17.0273 27.8152 17.0273C27.5991 17.0273 27.3927 17.0923 27.24 17.2098L22.6445 20.7461C22.3275 20.9899 22.3275 21.3861 22.6444 21.6299Z" fill="white"/>
<path d="M18.0489 10.1389L15.7641 11.8951C15.7527 11.9038 15.743 11.9113 15.7316 11.9201L13.4501 13.6751C13.1332 13.9189 13.1332 14.3151 13.4501 14.5589C13.7669 14.8026 14.2821 14.8026 14.599 14.5589L15.5106 13.8576V15.8839C15.5106 16.2289 15.8746 16.5089 16.3231 16.5089C16.7716 16.5089 17.1356 16.2289 17.134 15.8839V13.8351C17.5581 14.0876 18.0748 14.2239 18.6208 14.2239C19.2725 14.2239 19.8851 14.0289 20.345 13.6752C21.2956 12.9439 21.2956 11.7539 20.345 11.0227L19.1961 10.1389C18.8793 9.89511 18.3657 9.89511 18.0489 10.1389ZM19.1994 12.7913C19.045 12.9088 18.8419 12.9739 18.6241 12.9739C18.4063 12.9739 18.2033 12.9089 18.0489 12.7901L17.4736 12.3488L18.6241 11.4638L19.1994 11.9063C19.5162 12.1513 19.5162 12.5476 19.1994 12.7913Z" fill="white"/>
<path d="M18.0489 18.0937L20.3466 19.8624C20.5059 19.9837 20.7139 20.045 20.9219 20.045C21.1299 20.045 21.3379 19.9837 21.4971 19.8612C21.814 19.6175 21.814 19.2212 21.4971 18.9774L19.773 17.6512L20.9202 16.7687L21.4955 17.2112C21.6547 17.3324 21.8627 17.3937 22.0707 17.3937C22.2787 17.3937 22.4867 17.3325 22.6444 17.2112C22.9612 16.9674 22.9612 16.5712 22.6444 16.3274L22.0691 15.8862L23.2197 14.9999L24.9422 16.3262C25.259 16.5699 25.7742 16.5699 26.0911 16.3262C26.4079 16.0824 26.4079 15.6862 26.0911 15.4424L23.7933 13.6749C23.4765 13.4312 22.9613 13.4312 22.6444 13.6749L18.0489 17.21C17.7304 17.4536 17.7304 17.8499 18.0489 18.0937Z" fill="white"/>
<path d="M32.9778 6.94623C32.4675 6.57123 31.9524 6.195 31.4503 5.80875C30.9466 5.42127 30.4542 5.02377 29.965 4.62873C27.144 2.35248 24.2304 0 19.5 0C8.74735 0 0 6.72873 0 15C0 23.2713 8.74735 30 19.5 30C30.2526 30 39 23.2713 39 15.0012C39 11.3562 35.9369 9.11373 32.9778 6.94623ZM28.7885 5.49C29.2873 5.89248 29.7894 6.29748 30.3013 6.69123C30.8116 7.08498 31.3381 7.46871 31.858 7.84998C33.4489 9.015 34.9699 10.15 36.018 11.4625C35.5387 11.3462 35.0365 11.2587 34.5214 11.1887C34.497 11.185 34.4759 11.1812 34.4515 11.18C34.2549 11.1537 34.0567 11.1275 33.8601 11.1025C31.8174 10.8475 29.4985 10.5575 27.3893 8.93373C25.2801 7.30998 24.9031 5.5275 24.5716 3.95625C24.4513 3.39 24.3197 2.82498 24.1036 2.29875C25.8034 3.10377 27.2772 4.27125 28.7885 5.49ZM22.9661 4.155C23.3187 5.82627 23.7591 7.90623 26.2405 9.81627C28.7219 11.7263 31.4259 12.0638 33.6002 12.335C33.6327 12.3388 33.6587 12.3425 33.6912 12.3475C33.9625 13.2113 34.125 14.0988 34.125 15C34.125 21.2025 27.5648 26.25 19.5 26.25C11.4352 26.25 4.875 21.2025 4.875 15C4.875 8.7975 11.4352 3.75 19.5 3.75C20.6684 3.75 21.8221 3.87498 22.9499 4.08498C22.9548 4.11 22.9597 4.12998 22.9661 4.155ZM19.5 28.75C9.64435 28.75 1.62497 22.5813 1.62497 15C1.62497 7.41873 9.64435 1.24998 19.5 1.24998C19.8867 1.24998 20.2475 1.28496 20.6082 1.32123C21.8156 1.48248 22.3096 1.95 22.6037 2.75748C21.5832 2.60496 20.548 2.49996 19.4999 2.49996C10.5413 2.50002 3.25003 8.1075 3.25003 15C3.25003 21.8925 10.5398 27.5 19.5 27.5C28.4603 27.5 35.75 21.8925 35.75 15C35.75 14.1925 35.6151 13.3975 35.4169 12.6138C36.465 12.84 37.0744 13.22 37.2824 14.1488C37.3296 14.425 37.375 14.7025 37.375 15C37.375 22.5813 29.3556 28.75 19.5 28.75Z" fill="#2DBFAC"/>
</svg>
