<svg width="30" height="30" viewBox="0 0 30 30" fill="none" xmlns="http://www.w3.org/2000/svg">
<path d="M28.1109 18.8269C28.094 19.1044 28.0622 19.38 28.0228 19.6556C27.9937 19.8488 27.9637 20.0213 27.9037 20.176C27.7181 20.6419 27.495 21.0844 27.3009 21.4556C27.1444 21.7556 26.9522 22.1072 26.7159 22.4419C26.4834 22.771 26.2584 23.0897 25.9659 23.3203C25.7859 23.4591 25.5994 23.6044 25.3828 23.7122C25.1765 23.8163 24.96 23.9044 24.7406 23.985C24.3628 24.1228 23.9765 24.2306 23.5884 24.3385C23.1497 24.4556 22.7119 24.54 22.2497 24.5944C21.8597 24.6403 21.5231 24.6797 21.1875 24.6797L21.0637 24.6778C20.7909 24.6703 20.5547 24.6413 20.3437 24.5888C20.2331 24.5606 20.1253 24.5269 20.0165 24.4922L19.8281 24.4341C18.8456 24.1463 18.0731 23.8153 17.3719 23.0316C16.7747 22.365 16.365 21.5485 16.1119 20.6935L16.094 20.6325L15.8578 20.61C15.674 20.5931 15.4912 20.5763 15.3084 20.551C15.09 20.5256 14.8725 20.5153 14.655 20.5153C14.1094 20.5153 13.5581 20.5819 13.0715 20.641L13.0153 20.6475L12.9947 20.701C12.7594 21.3281 12.4275 21.9075 12.0094 22.4231C11.8781 22.5863 11.7656 22.7269 11.6362 22.8338C11.4319 23.0025 11.2228 23.1619 11.0025 23.3072C10.8403 23.4131 10.6734 23.5135 10.5056 23.6147L10.3387 23.7188C10.2103 23.7985 10.0819 23.8791 9.94498 23.9419C9.78654 24.015 9.37311 24.195 9.37311 24.195C9.15467 24.2906 8.92873 24.3891 8.70092 24.4444C8.34842 24.5278 7.97811 24.571 7.60217 24.571L7.46623 24.5691C7.02186 24.5588 6.60936 24.4997 6.20436 24.3891C5.93904 24.316 5.69811 24.2241 5.46748 24.1106C5.36529 24.0591 5.26967 23.9972 5.17311 23.9344L4.84217 23.73C4.71373 23.6531 4.58529 23.5763 4.46248 23.491C4.21498 23.3175 3.99748 23.1253 3.77904 22.8853C3.39186 22.4616 3.08623 22.0716 2.84248 21.6938C2.57529 21.2766 2.34561 20.8041 2.17873 20.3269C1.98373 19.7644 1.89373 19.3031 1.89467 18.8766C1.89467 18.7116 1.88998 18.5475 1.88529 18.3825C1.87779 18.1341 1.87123 17.8856 1.88061 17.6391C1.89186 17.325 1.91436 17.0119 1.93686 16.6988L1.96311 16.3191C1.99873 15.75 2.05123 15.2541 2.12342 14.8031L2.14311 14.6803C2.20686 14.2735 2.27342 13.8535 2.39061 13.455C2.63717 12.6178 2.93623 11.7731 3.30467 10.8703C3.50623 10.38 3.72186 9.94783 3.96373 9.54752C4.18123 9.18752 4.43717 8.77127 4.72123 8.3869C4.97342 8.04658 5.17873 7.77002 5.44779 7.54221C5.95311 7.10346 6.45748 6.66002 7.01529 6.28783C7.50186 5.96252 8.19279 5.58283 8.77779 5.49846C9.02061 5.46377 9.18186 5.44033 9.34311 5.44033C9.40311 5.44033 9.46404 5.44315 9.52498 5.45158C9.74436 5.4769 9.87654 5.4919 10.0069 5.52471C10.1878 5.57252 10.3603 5.64658 10.5309 5.72065C10.5309 5.72065 10.8375 5.83596 10.9087 5.8669C11.1262 5.95783 11.3812 6.07315 11.6287 6.23627C11.8537 6.3844 12.0637 6.55596 12.2681 6.73408L13.0247 6.77627C13.4953 6.79033 13.9659 6.80533 14.4356 6.80533C14.7319 6.80533 15.0281 6.79971 15.3253 6.78471L15.5812 6.77065C15.8484 6.75565 16.1128 6.74158 16.3809 6.74158L17.5256 6.77252L17.5528 6.72096C17.5912 6.6469 17.61 6.61033 17.6344 6.57658C17.7244 6.44815 17.8284 6.3169 17.9428 6.20815C18.1228 6.03377 18.3234 5.87815 18.524 5.75721C18.854 5.55752 19.2 5.43377 19.5825 5.38221C19.8497 5.34471 20.1244 5.3194 20.3962 5.3194C20.8481 5.3194 21.2372 5.38877 21.584 5.53033C22.1334 5.75533 22.5965 5.98127 23.0015 6.22408C23.4525 6.4969 23.9231 6.79877 24.2934 7.21221C24.5062 7.44846 24.6928 7.71096 24.8784 7.97158L25.0875 8.26127C25.3312 8.59315 25.5375 8.93533 25.725 9.25502C25.9387 9.62721 26.1431 10.0013 26.3372 10.3856C26.519 10.7466 26.7253 11.1675 26.8715 11.6006C27.0037 11.9916 27.1284 12.3638 27.2062 12.7369L27.2972 13.1925C27.3487 13.4494 27.4003 13.7072 27.4575 13.9641L27.5372 14.3194C27.6853 14.9878 27.8353 15.6553 27.9459 16.3313C28.1006 17.2556 28.154 18.0722 28.1109 18.8269ZM26.4637 17.0944C26.3644 16.4428 26.2181 15.796 26.0784 15.1706C26.0175 14.9025 25.9575 14.6344 25.9003 14.3663L25.8009 13.8853C25.6415 13.1063 25.4775 12.301 25.1812 11.5453C24.9581 11.0381 24.689 10.5235 24.3337 9.92065C24.0375 9.41533 23.6887 8.95408 23.3503 8.50783C23.1881 8.31283 23.0062 8.13096 22.8065 7.96502C22.2909 7.59002 21.7303 7.26565 21.1359 6.9994C20.999 6.94783 20.8687 6.90658 20.7319 6.87752C20.6015 6.86815 20.4862 6.8644 20.3709 6.8644C20.2181 6.8644 20.0634 6.8719 19.9087 6.8869C19.7719 6.9094 19.6425 6.93658 19.515 6.97596C19.3865 7.04346 19.2787 7.11283 19.1747 7.18596C19.0894 7.2619 19.0209 7.33221 18.9534 7.40908L18.9009 7.49721C18.8165 7.7119 18.7247 7.87033 18.5344 7.98096C18.4256 8.04377 18.2953 8.07752 18.1594 8.07752C18.105 8.07752 18.0515 8.07283 17.9981 8.06252C17.76 8.06065 17.5622 8.05783 17.3634 8.05783C16.784 8.05783 16.2797 8.08408 15.824 8.13658C15.5578 8.17221 15.2925 8.2069 15.0253 8.22752C14.7956 8.24533 14.565 8.25096 14.3334 8.25658C14.3334 8.25658 13.7972 8.26502 13.59 8.26502C13.2103 8.26502 12.8306 8.26033 12.4519 8.25471C12.2522 8.36908 12.0825 8.42065 11.9081 8.42065C11.6859 8.42065 11.4759 8.33627 11.3175 8.18252C11.1637 8.03533 11.0072 7.89377 10.845 7.75502C10.679 7.63127 10.515 7.51783 10.335 7.42596C10.0434 7.3069 9.76311 7.19815 9.46311 7.13627C9.38248 7.12877 9.31779 7.1269 9.25311 7.1269L9.15092 7.12877C9.06279 7.1494 8.99529 7.16815 8.92592 7.19158C8.71967 7.28627 8.52467 7.38283 8.33061 7.47846L8.17873 7.55346C7.92654 7.67346 7.70061 7.7869 7.49154 7.94065C7.14842 8.20877 6.80623 8.47221 6.46311 8.73377C6.28686 8.88752 6.14529 9.06002 6.00561 9.23721C5.69904 9.64877 5.42717 10.0135 5.20123 10.4006C5.06717 10.6303 4.93686 10.8581 4.81779 11.0963C4.74279 11.2435 4.67904 11.3991 4.61436 11.5538C4.30217 12.3403 4.09498 12.9403 3.93373 13.5131C3.77248 14.0869 3.64123 14.7103 3.53342 15.4191C3.41436 16.5956 3.40029 17.7713 3.49029 18.9178C3.54373 19.2085 3.62904 19.5019 3.74998 19.8253C3.96279 20.2819 4.19342 20.6785 4.45686 21.0422C4.69967 21.3347 4.98936 21.6656 5.32029 21.9488C5.42998 22.0228 5.92311 22.3378 5.92311 22.3378C6.07779 22.4381 6.22967 22.5338 6.39186 22.6163C6.63654 22.7044 6.88873 22.7719 7.15404 22.8188C7.30873 22.831 7.45404 22.8385 7.59936 22.8385C7.69498 22.8385 7.78967 22.8356 7.88436 22.8281C8.19654 22.7691 8.50873 22.6716 8.87717 22.5216C9.37873 22.2966 9.85311 22.0256 10.2909 21.7153C10.5028 21.5381 10.6969 21.3394 10.89 21.1022C11.1215 20.7788 11.3119 20.4535 11.46 20.1319C11.5115 19.9969 11.5565 19.8675 11.5987 19.7363C11.7131 19.3763 12.0309 19.1335 12.3881 19.1335C12.4594 19.1335 12.5315 19.1438 12.6028 19.1625L12.7697 19.2328C13.3106 19.1775 13.8703 19.1203 14.4272 19.1156L14.729 19.1128C14.8753 19.1128 15.0215 19.1166 15.1669 19.1344C15.3459 19.156 15.525 19.1831 15.7031 19.2094L15.8081 19.2253C16.0237 19.2488 16.2365 19.261 16.4494 19.2703C16.6462 19.2778 16.8309 19.3641 16.9678 19.5141C17.1665 19.6256 17.2847 19.771 17.325 19.9435C17.49 20.6625 17.8903 21.1566 18.3056 21.7519L18.495 22.021C18.6281 22.1803 18.7678 22.3219 18.9187 22.4513C19.0219 22.5244 19.1203 22.5863 19.2253 22.6388C19.4531 22.7241 19.679 22.7888 19.9059 22.8375L20.2294 22.9116C20.4019 22.9528 20.5744 22.9931 20.7469 23.025C20.8322 23.0316 20.9062 23.0344 20.9812 23.0344C21.1884 23.0344 21.3965 23.0156 21.6047 22.996C21.9365 22.9678 22.2225 22.9397 22.5084 22.906C22.8094 22.8563 23.099 22.7785 23.3869 22.7006L23.5565 22.6547C23.85 22.5769 24.1415 22.4935 24.4247 22.3847C24.629 22.2853 24.8165 22.1738 24.9937 22.0481C25.1128 21.945 25.2094 21.8372 25.304 21.7238C25.6715 21.226 26.0006 20.6531 26.31 19.9678C26.4028 19.7325 26.4665 19.5122 26.5069 19.29C26.5922 18.4828 26.5284 17.6935 26.4637 17.0944ZM19.4128 16.2056C19.4194 16.6388 19.0575 17.01 18.6244 17.0166C18.1912 17.0231 17.82 16.6622 17.8134 16.2291C17.8069 15.796 18.1678 15.4247 18.6009 15.4191C19.034 15.4125 19.4062 15.7735 19.4128 16.2056ZM16.799 12.166C16.3978 12.166 16.0584 12.5044 16.0584 12.9056C16.0584 13.3069 16.3978 13.6453 16.799 13.6453C17.2003 13.6453 17.5387 13.3069 17.5387 12.9056C17.5387 12.5044 17.2003 12.166 16.799 12.166ZM11.295 13.4025C11.22 13.3894 11.1469 13.3772 11.024 13.3772C11.009 13.3772 10.9931 13.3772 10.9762 13.3772C10.9247 13.3819 10.875 13.3866 10.8084 13.3866C10.8065 13.3866 10.4447 13.3875 10.4447 13.3875C10.3556 13.395 10.2656 13.3978 10.1109 13.4025L9.90373 13.4231L9.90748 12.7125C9.90467 12.3375 9.59998 12.0319 9.22779 12.0319C9.04779 12.0319 8.86967 12.1088 8.73842 12.2419C8.61186 12.3713 8.54436 12.5372 8.54811 12.7097L8.56029 13.3444L8.54061 13.4419L7.76061 13.441C7.32654 13.4438 6.97311 13.7972 6.97311 14.2285C6.97311 14.43 7.05654 14.6306 7.20373 14.7806C7.35279 14.9325 7.54779 15.0169 7.75873 15.0169C7.97623 15.0131 8.63717 14.9869 8.63717 14.9869L8.68217 15.3103C8.69436 15.4256 8.70279 15.541 8.70561 15.6572C8.71311 16.0472 9.02904 16.3631 9.40967 16.3631C9.60279 16.3631 9.80154 16.2731 9.94217 16.1213C10.0659 15.9881 10.1278 15.8269 10.1165 15.6647L10.1081 15.5391C10.0978 15.3797 10.0584 14.9503 10.0584 14.9503L10.1784 14.9447L10.7662 14.9391C10.8234 14.9391 10.8815 14.94 10.9434 14.9456C11.01 14.9531 11.0747 14.9588 11.1365 14.9588C11.2819 14.9588 11.3972 14.9288 11.5134 14.8603C11.6915 14.7563 11.8247 14.5828 11.88 14.385C11.9362 14.1778 11.9072 13.9547 11.7994 13.771C11.7075 13.6144 11.5181 13.4381 11.295 13.4025ZM22.1728 13.8919C21.7528 13.8919 21.3975 14.2472 21.3975 14.6672C21.3975 15.0872 21.7519 15.4425 22.1728 15.4425C22.5928 15.4425 22.9481 15.0872 22.9481 14.6672C22.9481 14.2463 22.5928 13.8919 22.1728 13.8919ZM20.309 10.5056C19.8844 10.5056 19.5253 10.8638 19.5253 11.2894C19.5253 11.715 19.8834 12.0731 20.309 12.0731C20.7347 12.0731 21.0937 11.715 21.0937 11.2894C21.0937 10.8638 20.7337 10.5056 20.309 10.5056Z" fill="#2DBFAC"/>
</svg>
