<svg width="20" height="29" viewBox="0 0 20 29" fill="none" xmlns="http://www.w3.org/2000/svg">
<path d="M16.1758 0.851562C15.7539 0.851562 15.3906 1.14453 15.2852 1.53125H4.66797C4.5625 1.14453 4.19922 0.851562 3.77734 0.851562C3.35547 0.851562 2.99219 1.14453 2.88672 1.53125H0.71875V2.11719H2.86328V5.97266C2.86328 6.23047 2.96875 6.46484 3.14453 6.62891L7.08203 10.5664V10.707V17.7969V27.2539C7.08203 27.9805 7.66797 28.5664 8.39453 28.5664C9.12109 28.5664 9.70703 27.9805 9.70703 27.2539V18.0547C9.70703 17.9141 9.82422 17.7969 9.96484 17.7969C10.1055 17.7969 10.2227 17.9141 10.2227 18.0547V27.2539C10.2227 27.9805 10.8086 28.5664 11.5352 28.5664C12.2617 28.5664 12.8477 27.9805 12.8477 27.2539V17.7969V10.5898L16.7852 6.65234C16.9609 6.48828 17.0664 6.24219 17.0664 5.99609V2.12891H19.2109V1.54297H17.0312C16.9609 1.14453 16.5977 0.851562 16.1758 0.851562ZM15.2617 5.59766L13.2109 7.64844C12.9062 7.95313 12.4844 8.10547 12.0859 8.10547H9.98828H7.89062C7.48047 8.10547 7.07031 7.95313 6.76563 7.64844L4.70313 5.59766V2.12891H15.2617V5.59766Z" fill="#EA5F5F"/>
</svg>
