<svg width="24" height="24" viewBox="0 0 24 24" fill="none" xmlns="http://www.w3.org/2000/svg">
<path d="M11.9969 11.3443C13.7715 11.3443 15.198 9.90958 15.198 8.14631C15.2 6.37788 13.7715 4.94727 11.9969 4.94727C10.2346 4.94727 8.80404 6.37788 8.80404 8.14631C8.80404 9.91168 10.2347 11.3443 11.9969 11.3443Z" fill=""/>
<path d="M14.5645 11.8652H9.43746C8.5208 11.8652 7.76997 12.7057 7.76997 13.7367V18.8864C7.76997 18.9431 7.79881 18.9935 7.80191 19.0523H16.197C16.2032 18.9936 16.2269 18.9431 16.2269 18.8864V13.7367C16.23 12.7057 15.4792 11.8652 14.5645 11.8652Z" fill=""/>
<path d="M20.6073 12.8707C22.0317 12.8707 23.1739 11.7244 23.1739 10.3082C23.1739 8.89203 22.0317 7.74365 20.6073 7.74365C19.1932 7.74365 18.0489 8.89203 18.0489 10.3082C18.0458 11.7234 19.1932 12.8707 20.6073 12.8707Z" fill=""/>
<path d="M22.6662 13.2891H18.5577C17.8202 13.2891 17.2177 13.9626 17.2177 14.7918V18.9178C17.2177 18.9621 17.2393 19.0043 17.2424 19.0527H23.9763C23.9794 19.0043 24 18.9621 24 18.9178V14.7918C24.0031 13.9626 23.4016 13.2891 22.6662 13.2891Z" fill=""/>
<path d="M3.3906 12.8707C4.81296 12.8707 5.95623 11.7244 5.95623 10.3082C5.95623 8.89203 4.81296 7.74365 3.3906 7.74365C1.97546 7.74365 0.83119 8.89203 0.83119 10.3082C0.83119 11.7244 1.97546 12.8707 3.3906 12.8707Z" fill=""/>
<path d="M5.44843 13.2891H1.33583C0.600474 13.2891 0 13.9626 0 14.7918V18.9178C0 18.9621 0.0216297 19.0043 0.025736 19.0527H6.75958C6.76268 19.0043 6.78226 18.9621 6.78226 18.9178V14.7918C6.78431 13.9626 6.18279 13.2891 5.44843 13.2891Z" fill=""/>
</svg>
