<svg width="30" height="31" viewBox="0 0 30 31" fill="none" xmlns="http://www.w3.org/2000/svg">
<g clip-path="url(#clip0_307_1050)">
<path d="M25.3125 26.75H17.7187C16.5937 26.75 15.5625 26.2813 14.7187 25.5313L2.8125 13.625L9.375 6.125C9.375 9.78125 13.2187 13.625 16.875 13.625H17.8125C17.7187 17.8438 19.3125 20.9375 23.4375 22.25C23.7188 22.3438 23.9062 22.4375 24.1875 22.4375C25.3125 22.7187 26.0625 23.9375 25.7812 25.0625L25.3125 26.75Z" stroke="#657694" stroke-width="2" stroke-miterlimit="10" stroke-linecap="round" stroke-linejoin="round"/>
<path d="M0.9375 15.5L13.7812 28.3438C14.5312 29.0938 15.6562 29.5625 16.7812 29.5625H25.3125" stroke="#FCD051" stroke-width="2" stroke-miterlimit="10" stroke-linecap="round" stroke-linejoin="round"/>
<path d="M9.84375 16.4375C10.6204 16.4375 11.25 15.8079 11.25 15.0312C11.25 14.2546 10.6204 13.625 9.84375 13.625C9.0671 13.625 8.4375 14.2546 8.4375 15.0312C8.4375 15.8079 9.0671 16.4375 9.84375 16.4375Z" stroke="#FCD051" stroke-width="2" stroke-miterlimit="10" stroke-linecap="round" stroke-linejoin="round"/>
<path d="M14.0625 18.3125H18.2812" stroke="#FCD051" stroke-width="2" stroke-miterlimit="10" stroke-linecap="round" stroke-linejoin="round"/>
<path d="M15.9375 21.125H21.0938" stroke="#FCD051" stroke-width="2" stroke-miterlimit="10" stroke-linecap="round" stroke-linejoin="round"/>
<path d="M26.25 1.4375L19.4063 8.28125C17.8125 9.875 17.25 12.125 17.8125 14.2812" stroke="#657694" stroke-width="2" stroke-miterlimit="10" stroke-linecap="round" stroke-linejoin="round"/>
<path d="M9.375 7.0625C11.1562 6.5 12.75 5.1875 13.6875 3.59375L15 1.4375" stroke="#657694" stroke-width="2" stroke-miterlimit="10" stroke-linecap="round" stroke-linejoin="round"/>
</g>
<defs>
<clipPath id="clip0_307_1050">
<rect width="30" height="30" fill="white" transform="translate(0 0.5)"/>
</clipPath>
</defs>
</svg>
