<svg width="30" height="30" viewBox="0 0 30 30" fill="none" xmlns="http://www.w3.org/2000/svg">
<g clip-path="url(#clip0_84_887)">
<path d="M0.723877 19.6878C0.538923 19.6878 0.353479 19.6173 0.21199 19.4758C-0.0709887 19.1929 -0.0709887 18.7346 0.21199 18.4516L6.85941 11.8042L9.70599 14.6508L16.1569 8.19998L20.4575 12.5006L27.9775 4.98012C28.2609 4.69714 28.7197 4.69714 29.0022 4.98012C29.2846 5.2631 29.2846 5.72134 29.0022 6.00432L20.4575 14.5485L16.1569 10.2479L9.70605 16.6993L6.85947 13.8527L1.23674 19.4759C1.09476 19.6173 0.909811 19.6878 0.723877 19.6878Z" fill="#00FFCE"/>
<path d="M27.9777 5.98598L20.4578 13.5055L16.1572 9.20492L9.70631 15.6567L6.85973 12.8101L0.212308 19.4575C0.208936 19.4604 0.208446 19.4643 0.206055 19.4663C0.208446 19.4691 0.208936 19.473 0.212308 19.4759C0.353797 19.6174 0.539241 19.6879 0.724195 19.6879C0.910129 19.6879 1.09502 19.6174 1.237 19.4759L6.86022 13.8527L9.7068 16.6993L16.1577 10.2484L20.4583 14.549L29.0029 6.00388C29.0053 6.001 29.0068 5.99713 29.0092 5.99419C29.0068 5.99223 29.0053 5.98837 29.0029 5.98549C28.7204 5.703 28.2612 5.703 27.9777 5.98598Z" fill="#06BCB7"/>
<path d="M26.3078 4.41656H25.1184V5.6069L26.3078 4.41656Z" fill="#A8C5C6"/>
<path d="M25.1184 12.0003V25.9861H28.177V8.94269L25.1184 12.0003Z" fill="#A85379"/>
<path d="M20.4577 16.6611L19.1626 15.3656V25.9862H22.2212V14.8976L20.4577 16.6611Z" fill="#A85379"/>
<path d="M20.4577 10.2667L22.2212 8.50326V4.41656H19.1626V8.97113L20.4577 10.2667Z" fill="#A8C5C6"/>
<path d="M16.1572 5.96614L16.2654 6.07385V4.41656H13.2068V8.91608L16.1572 5.96614Z" fill="#A8C5C6"/>
<path d="M16.1572 12.3606L13.2068 15.311V25.9862H16.2654V12.4682L16.1572 12.3606Z" fill="#A85379"/>
<path d="M9.7062 12.417L10.3093 11.8144V4.41656H7.25073V9.96205L9.7062 12.417Z" fill="#A8C5C6"/>
<path d="M9.7062 18.8118L7.25073 16.3569V25.9861H10.3093V18.2092L9.7062 18.8118Z" fill="#A85379"/>
<path d="M4.35349 12.0776V4.41656H1.29492V15.1362L4.35349 12.0776Z" fill="#A8C5C6"/>
<path d="M1.29492 21.5305V25.9861H4.35349V18.4719L1.29492 21.5305Z" fill="#A85379"/>
<path d="M29.0341 9.44629C28.501 9.44629 28.0683 9.0141 28.0683 8.48051V5.94542H25.5332C24.9996 5.94542 24.5674 5.51322 24.5674 4.97964C24.5674 4.44654 24.9996 4.01385 25.5332 4.01385H29.9999V8.48057C29.9999 9.0141 29.5672 9.44629 29.0341 9.44629Z" fill="#00FFCE"/>
<path d="M24.5795 4.85601C24.5746 4.89751 24.5674 4.93711 24.5674 4.9796C24.5674 5.51319 24.9996 5.94538 25.5332 5.94538H28.0683V8.48054C28.0683 9.01412 28.501 9.44632 29.0341 9.44632C29.0766 9.44632 29.1172 9.43957 29.1577 9.43424C29.1635 9.39366 29.1698 9.35314 29.1698 9.31065V4.84393H24.703C24.6606 4.84393 24.62 4.85123 24.5795 4.85601Z" fill="#06BCB7"/>
</g>
<defs>
<clipPath id="clip0_84_887">
<rect width="30" height="30" fill="white"/>
</clipPath>
</defs>
</svg>
