<svg width="220" height="213" viewBox="0 0 220 213" fill="none" xmlns="http://www.w3.org/2000/svg">
<g opacity="0.7">
<path d="M26.7963 14.3286C12.0262 14.3286 0.0527344 26.3021 0.0527344 41.0721V43.619C0.0527344 58.3891 12.0262 70.3626 26.7963 70.3626C41.5663 70.3626 53.5398 58.3891 53.5398 43.619V41.0721C53.5398 26.3021 41.5663 14.3286 26.7963 14.3286ZM26.8098 66.1792C14.2798 66.1792 4.12225 56.0216 4.12225 43.4916V41.2422C4.12225 28.7122 14.2798 18.5546 26.8098 18.5546C39.3398 18.5546 49.4974 28.7122 49.4974 41.2422V43.4917C49.4974 56.0217 39.3398 66.1792 26.8098 66.1792Z" fill="#231F20"/>
<path d="M189.522 0H68.062C51.4935 0 38.062 13.4314 38.062 30V145.288C38.062 161.856 51.4934 175.288 68.062 175.288H189.522C206.09 175.288 219.522 161.856 219.522 145.288V30C219.522 13.4315 206.09 0 189.522 0Z" fill="#404869"/>
<path d="M161.206 86.9253C183.317 110.432 211.125 159.878 205.971 169.909C200.192 181.079 169.413 148.124 169.521 146.189C169.616 144.766 158.791 114.7 150.53 92.8588C142.269 71.0173 155.739 81.1057 161.206 86.9253Z" fill="#F7A9A0"/>
<path d="M169.29 146.231C168.354 143.016 153.609 103.416 149.404 90.8805C145.199 78.3447 149.092 74.4886 161.124 85.9572C173.157 97.4259 199.527 135.759 205.55 156.092C211.342 175.657 201.725 175.657 189.082 166.65C178.65 159.265 169.29 146.231 169.29 146.231Z" fill="#FFC727"/>
<path opacity="0.1" d="M159.035 87.2524C158.748 89.0098 158.028 90.6579 156.946 92.0334C157.083 91.1573 157.334 90.3051 157.692 89.5006C158.044 88.6924 158.495 87.9365 159.035 87.2524ZM195.498 141.721C195.13 142.522 194.879 143.375 194.752 144.254C195.305 143.577 195.761 142.819 196.109 142.006C196.467 141.201 196.718 140.349 196.855 139.473C196.298 140.147 195.84 140.905 195.498 141.721ZM182.462 120.904C182.096 121.71 181.845 122.568 181.716 123.451C182.266 122.766 182.722 122.005 183.073 121.189C183.434 120.386 183.686 119.533 183.819 118.656C183.269 119.336 182.813 120.092 182.462 120.904ZM168.897 115.682C168.134 115.296 167.32 115.032 166.483 114.899C167.794 116.034 169.365 116.789 171.04 117.091C170.402 116.519 169.69 116.044 168.924 115.682H168.897ZM181.106 136.727C180.337 136.343 179.519 136.079 178.678 135.944C179.33 136.521 180.056 137 180.834 137.367C181.6 137.747 182.413 138.01 183.249 138.15C182.609 137.575 181.897 137.097 181.133 136.727H181.106ZM171.176 100.685C170.413 100.299 169.599 100.035 168.761 99.9021C169.407 100.482 170.129 100.961 170.905 101.325C171.669 101.709 172.482 101.973 173.319 102.108C172.682 101.53 171.969 101.051 171.203 100.685H171.176ZM163.607 128.787C163.894 129.623 164.291 130.414 164.787 131.135C164.621 129.358 164.018 127.656 163.037 126.197C163.124 127.085 163.325 127.956 163.634 128.787H163.607ZM189.15 153.859C189.434 154.696 189.832 155.487 190.33 156.206C190.164 154.429 189.561 152.728 188.58 151.269C188.659 152.158 188.86 153.03 189.177 153.859H189.15ZM171.949 149.59L172.397 150.145C173.137 149.858 173.835 149.466 174.472 148.978C173.614 149.067 172.773 149.288 171.976 149.633L171.949 149.59ZM202.213 164.559C203.012 164.26 203.765 163.844 204.451 163.321C203.605 163.395 202.774 163.596 201.982 163.919C201.181 164.211 200.427 164.628 199.744 165.156C200.596 165.092 201.436 164.905 202.24 164.602L202.213 164.559ZM156.811 106.519C156.258 106.733 155.722 106.995 155.21 107.301L155.332 107.657C155.911 107.55 156.479 107.383 157.028 107.159C157.833 106.867 158.592 106.449 159.279 105.921C158.442 106.017 157.62 106.232 156.838 106.561L156.811 106.519Z" fill="black"/>
<path d="M166.645 175.33H82.542C82.542 175.33 95.9036 106.177 128.134 76.2393C132.122 72.5398 141.102 73.3935 146.976 76.4385C149.065 77.5342 156.58 88.5617 158.723 98.9915C160.867 109.421 166.89 175.017 166.645 175.33Z" fill="#FFC727"/>
<path d="M159.51 103.303C160.175 105.637 160.718 108.041 161.165 110.418C161.158 110.323 161.158 110.228 161.165 110.133C161.165 108.71 161.165 107.387 161.341 106.021C161.341 106.021 161.464 105.936 161.464 106.021C161.635 107.394 161.672 108.781 161.572 110.162C161.572 110.802 161.504 111.456 161.45 112.111C161.626 113.192 161.789 114.288 161.911 115.369C162.169 117.418 162.82 125.088 162.874 126.61C162.874 126.923 162.535 126.98 162.454 126.61C162.06 125.074 161.016 117.162 160.677 115.127C160.021 111.186 159.568 107.21 159.32 103.218C159.361 103.218 159.483 103.218 159.51 103.303Z" fill="#263238"/>
<path opacity="0.1" d="M133.465 94.2958C133.327 95.1735 133.072 96.0263 132.705 96.8285C132.363 97.645 131.906 98.4029 131.349 99.0767C131.488 98.1995 131.744 97.347 132.108 96.5439C132.454 95.7292 132.911 94.9718 133.465 94.2958ZM122.07 129.413C121.702 130.213 121.451 131.067 121.324 131.946C122.406 130.57 123.126 128.922 123.413 127.165C122.865 127.843 122.413 128.6 122.07 129.413ZM94.7637 141.977C94.3977 142.783 94.1464 143.642 94.0177 144.524C94.5672 143.845 95.0238 143.088 95.3742 142.276C95.7402 141.47 95.9916 140.612 96.1203 139.729C95.5707 140.409 95.1141 141.165 94.7637 141.977ZM114.84 164.502C114.472 165.302 114.221 166.156 114.094 167.035C114.639 166.351 115.095 165.595 115.45 164.786C115.804 163.975 116.055 163.119 116.197 162.239C115.642 162.92 115.185 163.683 114.84 164.502ZM149.879 120.989C149.519 121.798 149.268 122.655 149.133 123.536C149.687 122.855 150.144 122.093 150.489 121.274C150.857 120.474 151.108 119.62 151.235 118.741C150.69 119.424 150.234 120.18 149.879 120.989ZM160.921 144.88C160.555 145.686 160.303 146.544 160.174 147.427C160.724 146.747 161.181 145.991 161.531 145.179C161.897 144.373 162.148 143.514 162.277 142.632C161.731 143.314 161.275 144.07 160.921 144.88ZM134.197 162.097C133.843 162.908 133.593 163.765 133.451 164.644C134.006 163.963 134.463 163.201 134.808 162.382C135.174 161.579 135.43 160.727 135.567 159.849C135.014 160.528 134.553 161.285 134.197 162.097ZM108.6 115.525C108.236 116.329 107.98 117.181 107.84 118.058C108.398 117.384 108.855 116.627 109.197 115.81C109.563 115.008 109.819 114.155 109.957 113.277C109.402 113.953 108.945 114.711 108.6 115.525ZM140.369 107.671C139.606 107.285 138.793 107.021 137.955 106.888C138.601 107.468 139.322 107.947 140.098 108.311C140.864 108.689 141.677 108.952 142.513 109.094C141.867 108.514 141.145 108.035 140.369 107.671ZM145.673 136.044C144.91 135.658 144.096 135.394 143.259 135.261C143.908 135.836 144.629 136.315 145.402 136.684C146.168 137.064 146.981 137.327 147.817 137.467C147.174 136.882 146.452 136.403 145.673 136.044ZM96.2423 166.11C95.4775 165.725 94.6645 165.457 93.8278 165.313C94.4701 165.897 95.1926 166.377 95.971 166.736C96.7373 167.116 97.5498 167.384 98.3856 167.533C97.7433 166.948 97.0207 166.469 96.2423 166.11ZM146.542 171.801C145.775 171.424 144.963 171.16 144.127 171.019C144.773 171.598 145.495 172.077 146.27 172.442L146.786 172.684C147.233 172.684 147.668 172.684 148.142 172.769C147.637 172.409 147.102 172.099 146.542 171.844V171.801ZM115.138 143.087C114.373 142.708 113.56 142.444 112.724 142.305C113.366 142.889 114.089 143.369 114.867 143.727C115.632 144.109 116.445 144.373 117.282 144.51C116.63 143.95 115.909 143.486 115.138 143.13V143.087ZM140.369 82.5141C139.605 82.1299 138.792 81.8616 137.955 81.7173C138.601 82.2962 139.323 82.7753 140.098 83.1402C140.867 83.5113 141.679 83.7745 142.513 83.9228C141.867 83.3585 141.145 82.8982 140.369 82.5568V82.5141ZM145.796 95.676C146.077 96.5149 146.475 97.3059 146.976 98.0238C146.9 97.1372 146.708 96.2658 146.406 95.4341C146.119 94.5975 145.722 93.8072 145.226 93.0863C145.303 93.9893 145.504 94.876 145.823 95.7187L145.796 95.676ZM159.238 161.343C159.517 162.183 159.915 162.975 160.419 163.691C160.253 161.914 159.65 160.212 158.669 158.753C158.739 159.641 158.931 160.513 159.238 161.343ZM123.169 112.21C123.459 113.045 123.856 113.835 124.349 114.558C124.283 113.671 124.096 112.799 123.793 111.968C123.503 111.133 123.106 110.343 122.613 109.62C122.663 110.503 122.828 111.374 123.101 112.21H123.169ZM133.56 141.095C133.841 141.934 134.239 142.725 134.74 143.443C134.668 142.556 134.476 141.684 134.17 140.853C133.883 140.017 133.486 139.227 132.99 138.505C133.028 139.388 133.188 140.26 133.465 141.095H133.56ZM85.3903 174.974C85.3836 175.093 85.3836 175.212 85.3903 175.33H85.6073L85.3903 174.974ZM109.048 174.861C108.764 174.018 108.366 173.223 107.868 172.499C107.937 173.386 108.128 174.259 108.437 175.088L108.519 175.33H109.197C109.048 175.174 109.048 175.017 109.048 174.861ZM104.219 154.499C104.506 155.335 104.903 156.125 105.399 156.847C105.33 155.959 105.138 155.087 104.829 154.257C104.548 153.418 104.15 152.627 103.649 151.909C103.699 152.793 103.868 153.665 104.151 154.499H104.219ZM124.566 86.5125C124.842 87.3541 125.24 88.146 125.746 88.8603C125.674 87.9731 125.482 87.1012 125.177 86.2706C124.889 85.4342 124.492 84.6439 123.996 83.9228C124.048 84.8076 124.222 85.68 124.512 86.5125H124.566ZM147.03 153.147C147.827 152.846 148.581 152.429 149.268 151.909C148.423 151.978 147.591 152.175 146.799 152.493C146.003 152.797 145.25 153.213 144.561 153.73C145.406 153.661 146.238 153.465 147.03 153.147ZM125 174.377C125.799 174.078 126.553 173.662 127.239 173.139C125.544 173.312 123.922 173.945 122.531 174.974C123.377 174.901 124.209 174.699 125 174.377ZM87.5743 155.153C87.5743 155.353 87.4522 155.552 87.3979 155.751C87.8033 155.542 88.1893 155.295 88.551 155.011C88.2227 155.036 87.8964 155.083 87.5743 155.153ZM106.755 130.694C107.558 130.396 108.317 129.979 109.007 129.456C108.161 129.528 107.329 129.729 106.538 130.053C105.735 130.351 104.977 130.768 104.286 131.291C105.132 131.212 105.962 131.011 106.755 130.694ZM124.39 154.058C125.204 153.787 125.976 153.394 126.682 152.891C124.988 153.065 123.366 153.697 121.975 154.726C122.811 154.626 123.628 154.401 124.403 154.058H124.39ZM134.821 120.548C135.622 120.244 136.379 119.828 137.073 119.31C136.228 119.378 135.396 119.574 134.604 119.894C133.807 120.195 133.053 120.611 132.366 121.132C133.207 121.063 134.034 120.866 134.821 120.548ZM157 107.201C157.806 106.909 158.565 106.492 159.252 105.964C158.406 106.036 157.574 106.237 156.783 106.561C155.983 106.856 155.229 107.274 154.545 107.799C155.405 107.731 156.251 107.529 157.055 107.201H157ZM117.35 99.404C118.148 99.1056 118.902 98.6887 119.588 98.166C117.894 98.3397 116.272 98.9722 114.881 100.002C115.745 99.9332 116.595 99.7318 117.404 99.404H117.35Z" fill="black"/>
<path d="M55.3984 49.0188C55.222 44.7501 56.0359 25.299 57.4196 19.9347C58.8032 14.5703 63.8494 -0.58361 67.8782 0.113613C71.907 0.810836 70.7676 5.36413 70.7676 5.36413C70.7676 5.36413 73.8604 -0.683207 77.8621 0.3982C81.8638 1.47961 79.8562 8.52298 79.8562 8.52298C79.8562 8.52298 83.4645 2.56101 87.3848 3.94123C91.3051 5.32145 88.158 12.0376 88.158 12.0376C88.158 12.0376 91.2101 6.43131 93.9774 8.99254C97.3009 12.066 90.5454 21.7987 89.4466 27.7891C89.1889 29.212 86.2453 56.0053 86.2453 56.0053L55.3984 49.0188Z" fill="#F7A9A0"/>
<path d="M88.4154 11.4975C83.4506 18.612 82.4603 22.6531 81.9177 31.3186C81.9177 31.4893 81.66 31.5035 81.66 31.3186C81.4565 22.7811 82.0126 17.5449 88.0898 11.2129C88.3882 10.9284 88.7002 11.1702 88.4154 11.4975Z" fill="#263238"/>
<path d="M80.2631 8.01079C75.7324 15.8794 74.62 20.2335 73.3992 29.2547C73.3992 29.3828 73.1821 29.3686 73.1821 29.2547C73.6705 20.2904 74.3352 15.0257 79.8426 7.91118C80.1003 7.49854 80.4666 7.64083 80.2631 8.01079Z" fill="#263238"/>
<path d="M70.7131 5.86219C66.8606 13.8162 65.4498 18.5403 65.287 27.4619C65.277 27.4971 65.2564 27.528 65.2283 27.55C65.2002 27.572 65.1661 27.5838 65.1311 27.5838C65.096 27.5838 65.0619 27.572 65.0338 27.55C65.0057 27.528 64.9851 27.4971 64.9751 27.4619C64.2426 18.3553 65.9653 12.4502 70.4011 5.74835C70.7809 5.30725 70.9572 5.36417 70.7131 5.86219Z" fill="#263238"/>
<path d="M85.9874 61.5975C85.9874 61.5975 93.6516 54.0134 96.3239 49.9155C98.9963 45.8175 103.581 26.651 99.6881 25.3704C94.669 23.734 89.9484 34.235 88.2799 39.699C88.2799 39.699 76.6682 35.8856 71.7305 42.6586C66.7928 49.4317 85.9874 61.5975 85.9874 61.5975Z" fill="#F7A9A0"/>
<path d="M98.1961 25.3985C92.5938 27.3621 90.8439 34.6759 88.8363 39.8552C88.8105 39.9335 88.7671 40.0041 88.7097 40.061C88.6522 40.1178 88.5825 40.1592 88.5065 40.1816C88.4305 40.204 88.3505 40.2067 88.2732 40.1895C88.196 40.1723 88.1238 40.1357 88.063 40.0829C83.0982 38.8165 75.746 38.5604 71.785 42.3169C71.7634 42.3433 71.7327 42.3596 71.6996 42.3623C71.6665 42.365 71.6338 42.3537 71.6086 42.3311C71.5834 42.3085 71.5679 42.2762 71.5653 42.2416C71.5628 42.2069 71.5735 42.1725 71.5951 42.1461C75.4069 37.4932 82.6506 37.1375 88.0088 38.8734C89.9757 33.5375 92.0783 26.2665 98.2504 25.3416C98.1962 25.3274 98.1961 25.3843 98.1961 25.3985Z" fill="#263238"/>
<path d="M132.827 86.5551C127.781 95.7186 98.6163 123.963 73.1411 128.858C69.6956 129.513 56.5646 126.61 53.8109 117.475C48.9139 101.197 52.8342 67.5878 55.3301 47.3541C55.8185 43.4126 90.7892 51.5232 89.8804 57.5563C88.8766 64.2439 85.1326 88.789 85.7159 89.0736C87.8049 90.0839 110.133 79.9528 124.824 76.6374C135.269 74.2754 136.721 79.4975 132.827 86.5551Z" fill="#F7A9A0"/>
<path d="M50.4336 57.3433L90.2877 66.3929C90.2877 66.3929 86.6658 87.7365 87.3712 87.6369C88.0766 87.5373 116.048 76.8086 126.832 75.6845C137.616 74.5604 137.603 79.5405 132.136 88.8748C126.669 98.209 90.8574 129.456 73.2093 129.456C64.2292 129.456 55.8731 123.423 54.2182 120.534C49.1855 111.627 50.4336 57.3433 50.4336 57.3433Z" fill="#455A64"/>
<path d="M50.4336 57.3433L90.2877 66.3929C90.2877 66.3929 86.6658 87.7365 87.3712 87.6369C88.0766 87.5373 116.048 76.8086 126.832 75.6845C137.616 74.5604 137.603 79.5405 132.136 88.8748C126.669 98.209 90.8574 129.456 73.2093 129.456C64.2292 129.456 55.8731 123.423 54.2182 120.534C49.1855 111.627 50.4336 57.3433 50.4336 57.3433Z" fill="#FFC727"/>
<path opacity="0.1" d="M107.542 87.1102C107.181 87.9132 106.929 88.766 106.796 89.643C107.353 88.9692 107.811 88.2113 108.153 87.3948C108.519 86.5936 108.77 85.7402 108.899 84.8621C108.351 85.543 107.895 86.2994 107.542 87.1102ZM75.8815 124.433C75.5136 125.233 75.2621 126.087 75.1354 126.966C76.217 125.59 76.9372 123.942 77.2244 122.185C76.6797 122.865 76.2277 123.622 75.8815 124.433ZM52.4139 98.8207C52.0417 99.6205 51.7857 100.474 51.6543 101.354C52.2062 100.676 52.663 99.9186 53.0108 99.1053C53.366 98.2997 53.6169 97.4479 53.7569 96.5725C53.2075 97.2495 52.7551 98.0069 52.4139 98.8207ZM87.0998 98.9203C86.7398 99.729 86.4887 100.586 86.3537 101.467C86.9111 100.789 87.3684 100.026 87.7102 99.2049C88.0765 98.4027 88.3323 97.5499 88.4699 96.6722C87.9133 97.3544 87.452 98.1162 87.0998 98.9346V98.9203ZM69.7094 109.478C69.3513 110.283 69.1002 111.135 68.9633 112.011C69.5204 111.337 69.9777 110.579 70.3198 109.763C70.6861 108.961 70.9419 108.108 71.0795 107.23C70.5228 107.907 70.0614 108.664 69.7094 109.478ZM71.2558 83.7806C70.8918 84.5826 70.6404 85.4358 70.5097 86.3134C71.5913 84.9379 72.3115 83.2898 72.5988 81.5325C72.0271 82.2062 71.5519 82.9635 71.188 83.7806H71.2558ZM53.4313 64.671C53.065 65.4733 52.8093 66.3261 52.6717 67.2038C53.2331 66.5334 53.6908 65.7748 54.0282 64.9556C54.3925 64.1525 54.6481 63.3001 54.7878 62.4229C54.2353 63.1002 53.7785 63.8574 53.4313 64.671ZM125.096 86.2565C124.811 85.4188 124.414 84.6281 123.915 83.9087C123.984 84.7964 124.176 85.6688 124.485 86.4984C124.762 87.3369 125.155 88.128 125.652 88.8462C125.593 87.9656 125.415 87.0984 125.123 86.2707L125.096 86.2565ZM101.492 103.331C101.205 102.495 100.808 101.705 100.312 100.984C100.383 101.871 100.575 102.743 100.882 103.573C101.161 104.414 101.559 105.205 102.062 105.921C101.993 105.045 101.81 104.184 101.519 103.36L101.492 103.331ZM83.7628 84.0795C83.4784 83.2417 83.0809 82.4511 82.5826 81.7317C82.7481 83.5088 83.3512 85.2102 84.3325 86.6691C84.2682 85.7928 84.0856 84.9304 83.7899 84.1079L83.7628 84.0795ZM81.4703 111.94C81.1859 111.102 80.7884 110.312 80.2901 109.592C80.3606 110.48 80.5525 111.352 80.8599 112.182C81.1413 113.021 81.5389 113.812 82.04 114.53C81.9757 113.653 81.7931 112.791 81.4974 111.968L81.4703 111.94ZM58.7353 108.938C58.4538 108.098 58.0562 107.307 57.5551 106.59C57.6339 107.476 57.8255 108.347 58.1248 109.179C58.4092 110.017 58.8067 110.808 59.305 111.527C59.2422 110.651 59.0594 109.788 58.7624 108.966L58.7353 108.938ZM65.9112 69.5516C65.6271 68.7093 65.2297 67.9139 64.731 67.1896C64.7969 68.081 64.9842 68.9578 65.2872 69.7935C65.58 70.6273 65.9768 71.4168 66.4673 72.1413C66.4091 71.2653 66.2309 70.4027 65.9383 69.5801L65.9112 69.5516ZM63.1982 91.8912C62.9112 91.0546 62.514 90.2643 62.018 89.5434C62.0884 90.4308 62.2803 91.303 62.5877 92.1331C62.8692 92.9722 63.2668 93.7633 63.7679 94.4809C63.7138 93.6057 63.5402 92.7431 63.2524 91.9196L63.1982 91.8912ZM117.187 98.8207C116.388 99.1191 115.635 99.536 114.949 100.059C115.795 99.983 116.626 99.7818 117.418 99.461C118.216 99.1627 118.97 98.7458 119.656 98.2231C118.81 98.297 117.978 98.4983 117.187 98.8207ZM75.0269 97.7962C74.232 98.1034 73.4793 98.5196 72.7886 99.0342C73.6349 98.9619 74.4666 98.7605 75.2575 98.4365C76.0574 98.1413 76.8116 97.7242 77.4957 97.1986C76.6478 97.2529 75.8118 97.435 75.0133 97.7393L75.0269 97.7962ZM79.015 71.5294C78.2175 71.8304 77.4641 72.2471 76.7768 72.7674C77.6184 72.6933 78.4454 72.492 79.2321 72.1698C80.0344 71.8803 80.7894 71.4628 81.4703 70.9318C80.6268 70.9862 79.7953 71.1684 79.0015 71.4725L79.015 71.5294ZM56.3885 79.7681C55.591 80.069 54.8376 80.4857 54.1503 81.006C55.8451 80.8457 57.4693 80.2173 58.8573 79.1847C58.0107 79.2396 57.1754 79.4168 56.375 79.7111L56.3885 79.7681ZM94.0044 115.341C93.2082 115.645 92.4552 116.061 91.7662 116.579C93.4611 116.418 95.0852 115.79 96.4733 114.757C95.6233 114.825 94.7871 115.022 93.9908 115.341H94.0044ZM63.7136 122.299C62.915 122.597 62.1612 123.014 61.4754 123.537C62.3217 123.464 63.1534 123.263 63.9442 122.939C64.7442 122.644 65.4983 122.227 66.1825 121.701C65.3318 121.774 64.4957 121.975 63.7001 122.299H63.7136ZM96.3647 86.9253C95.5672 87.2262 94.8138 87.6429 94.1265 88.1632C94.9706 88.0851 95.8009 87.8889 96.5954 87.5798C97.3903 87.2727 98.1429 86.8564 98.8336 86.3419C97.9834 86.408 97.147 86.6046 96.3512 86.9253H96.3647Z" fill="black"/>
<path d="M87.6833 87.8213C87.3802 91.0079 86.8497 94.1661 86.0962 97.2694C85.4315 100.428 84.4819 103.487 83.6002 106.575H83.4917C84.2649 103.473 84.8482 100.3 85.4722 97.1556C86.0962 94.011 86.571 90.8663 87.3442 87.7644C87.3442 87.5367 87.6969 87.6079 87.6833 87.8213Z" fill="#263238"/>
<path d="M87.9409 74.2754C83.3287 73.0801 78.6623 72.1268 73.9824 71.2019C69.3025 70.277 64.6225 69.3237 59.929 68.5126C57.216 68.0573 54.6115 67.5877 51.9392 67.2178C51.9392 67.2178 51.8442 67.3316 51.9392 67.3459C56.5377 68.5553 61.2177 69.5229 65.8841 70.4905C70.5504 71.458 75.244 72.3687 79.9239 73.2367C82.6369 73.7205 85.2414 74.1616 87.9137 74.5173C88.0087 74.5457 88.0765 74.3181 87.9409 74.2754Z" fill="#263238"/>
<path d="M101.099 116.977C101.831 116.294 102.645 115.711 103.419 115.085C104.192 114.458 104.911 113.847 105.67 113.249L110.282 109.535C113.348 107.045 116.36 104.47 119.398 101.937C121.135 100.514 122.844 99.0911 124.553 97.5544C124.56 97.5478 124.568 97.5428 124.577 97.5396C124.586 97.5365 124.596 97.5352 124.605 97.5358C124.615 97.5365 124.624 97.5391 124.632 97.5435C124.641 97.5479 124.648 97.554 124.655 97.5615C124.661 97.5689 124.666 97.5776 124.669 97.587C124.672 97.5964 124.673 97.6064 124.672 97.6163C124.672 97.6262 124.669 97.6359 124.665 97.6448C124.661 97.6537 124.655 97.6616 124.648 97.6682C122.559 99.7314 120.443 101.766 118.272 103.73L119.086 103.317C119.927 102.876 120.741 102.406 121.555 101.894C121.555 101.894 121.677 101.965 121.555 102.008C120.792 102.574 119.994 103.087 119.168 103.545C118.761 103.772 118.354 104 117.933 104.199L117.323 104.47C116.834 104.911 116.346 105.352 115.844 105.779C112.833 108.359 109.758 110.84 106.62 113.221C105.716 113.875 104.834 114.515 103.975 115.141C103.039 115.782 102.13 116.493 101.14 117.077C101.123 117.067 101.11 117.053 101.102 117.034C101.095 117.016 101.094 116.996 101.099 116.977Z" fill="#263238"/>
<path d="M140.655 97.3553L145.308 89.9277L149.689 96.1743L147.899 101.695L142.934 101.809L140.655 97.3553Z" fill="#263238"/>
<path d="M142.934 101.809L134.686 159.337L143.056 179.614L150.611 158.711L147.898 101.695L142.934 101.809Z" fill="#263238"/>
<path d="M147.03 89.4009C142.187 90.6246 133.818 82.9124 130.494 76.5948C130.264 76.1679 130.874 71.6146 131.349 66.0368C131.634 62.6503 131.864 58.9223 131.851 55.4077L152.578 60.5444C151.422 64.8799 150.78 69.3482 150.665 73.8485C150.664 74.3272 150.714 74.8045 150.815 75.2714C150.815 75.3426 150.815 75.4137 150.815 75.5133C151.222 78.2311 151.656 88.1914 147.03 89.4009Z" fill="#F7A9A0"/>
<path d="M133.248 55.8062C133.886 60.3879 136.843 75.4707 148.658 75.7268C149.37 75.7451 150.082 75.7022 150.788 75.5987C150.783 75.5182 150.783 75.4374 150.788 75.3568C150.689 74.8892 150.635 74.4127 150.625 73.9339C150.749 69.4336 151.396 64.966 152.551 60.6298L133.248 55.8062Z" fill="#263238"/>
<path d="M127.022 31.1755C125.435 39.0442 131.173 60.8431 136.789 65.3252C144.928 71.7852 157.326 71.3156 162.318 61.2699C167.161 51.5372 159.212 23.2784 153.026 19.3369C143.91 13.4461 129.396 19.5361 127.022 31.1755Z" fill="#F7A9A0"/>
<path d="M145.525 44.0957C145.525 44.0957 145.43 44.1953 145.443 44.2522C145.864 45.6751 146.121 47.4538 144.982 48.3075C144.982 48.3075 144.982 48.4071 144.982 48.3787C146.501 47.7099 146.149 45.4048 145.525 44.0957Z" fill="#263238"/>
<path d="M143.87 42.9145C141.577 43.3699 142.622 48.165 144.751 47.7382C146.881 47.3113 145.796 42.5303 143.87 42.9145Z" fill="#263238"/>
<path d="M153.962 41.9043C153.962 41.8331 154.084 41.9043 154.098 42.0039C154.369 43.4979 154.939 45.1627 156.322 45.3477V45.4331C154.722 45.5611 153.989 43.3272 153.962 41.9043Z" fill="#263238"/>
<path d="M154.884 40.0258C157.122 39.3002 158.343 44.0527 156.241 44.7214C154.138 45.3902 153.012 40.6377 154.884 40.0258Z" fill="#263238"/>
<path d="M141.604 41.1646C142.187 40.8516 142.676 40.4532 143.232 40.0832C143.788 39.7133 144.385 39.386 144.683 38.6603C144.749 38.4425 144.743 38.2079 144.667 37.9939C144.591 37.78 144.448 37.5988 144.263 37.4793C143.863 37.2932 143.422 37.224 142.987 37.2792C142.553 37.3343 142.14 37.5116 141.794 37.7924C141.006 38.2473 140.407 38.9925 140.112 39.884C140.059 40.0902 140.065 40.3079 140.127 40.511C140.19 40.7141 140.307 40.894 140.464 41.0292C140.622 41.1643 140.813 41.249 141.015 41.273C141.217 41.297 141.422 41.2594 141.604 41.1646Z" fill="#A6A6A6"/>
<path d="M156.119 37.1951C155.477 37.2304 154.834 37.2304 154.192 37.1951C153.515 37.278 152.831 37.1175 152.253 36.7398C152.089 36.5859 151.979 36.3793 151.94 36.1526C151.901 35.926 151.934 35.692 152.036 35.4876C152.293 35.1175 152.64 34.8261 153.04 34.6435C153.441 34.4609 153.881 34.3938 154.314 34.4489C155.211 34.4159 156.087 34.7357 156.77 35.3453C156.901 35.4957 156.989 35.6809 157.027 35.8806C157.064 36.0804 157.048 36.2871 156.981 36.4781C156.914 36.6691 156.798 36.837 156.646 36.9634C156.494 37.0899 156.311 37.17 156.119 37.1951Z" fill="#A6A6A6"/>
<path d="M148.183 52.9891C148.675 53.483 149.26 53.8645 149.899 54.1094C150.539 54.3543 151.22 54.4573 151.9 54.412C152.495 54.3943 153.085 54.284 153.65 54.0847L153.962 53.9709L154.274 53.8428C154.344 53.8075 154.401 53.7499 154.437 53.6784C154.474 53.6068 154.488 53.5249 154.477 53.4444C154.483 53.3924 154.483 53.3399 154.477 53.2879V53.1599C154.26 52.0073 153.772 50.3141 153.772 50.3141C154.22 50.4279 156.485 50.8974 156.295 50.3141C155.04 45.1956 153.295 40.2233 151.086 35.4732C151.073 35.4373 151.048 35.4082 151.015 35.3922C150.982 35.3762 150.944 35.3746 150.91 35.3878C150.875 35.401 150.848 35.4279 150.832 35.4626C150.817 35.4973 150.816 35.5369 150.828 35.5728C151.968 40.311 153.88 44.8074 155.088 49.5457C154.29 49.366 153.473 49.3085 152.66 49.3749C152.51 49.4603 153.65 52.6618 153.718 53.1883C152.846 53.5018 151.922 53.6256 151.003 53.5522C150.085 53.4788 149.189 53.2097 148.373 52.7614C148.17 52.7614 148.075 52.8895 148.183 52.9891Z" fill="#263238"/>
<path d="M152.891 53.8855C152.426 54.8288 151.74 55.6321 150.897 56.2191C150.431 56.5112 149.892 56.6499 149.35 56.6175C148.143 56.5179 147.994 55.4223 147.994 54.4547C148.017 53.9331 148.104 53.4167 148.251 52.918C149.661 53.7483 151.286 54.0871 152.891 53.8855Z" fill="#263238"/>
<path d="M150.897 56.2191C150.431 56.5111 149.892 56.6499 149.35 56.6175C148.143 56.5179 147.994 55.4223 147.994 54.4547C148.596 54.3647 149.21 54.4898 149.736 54.8098C150.263 55.1298 150.671 55.6261 150.897 56.2191Z" fill="#FF9CBD"/>
<g opacity="0.2">
<path d="M147.708 33.8796C148.461 33.8109 149.208 33.6921 149.946 33.5239C150.693 33.3247 151.384 32.969 152.13 32.784C153.562 32.5206 155.026 32.5206 156.458 32.784C156.58 32.784 156.58 32.8836 156.458 32.8694C154.943 32.6542 153.402 32.7852 151.941 33.2536C150.776 33.7381 149.552 34.0494 148.305 34.1785C145.444 34.1963 142.662 35.1625 140.356 36.9389C140.356 36.9389 140.356 36.9389 140.356 36.9389C142.46 35.1711 145.021 34.1055 147.708 33.8796Z" fill="black"/>
<path d="M147.22 31.8018C147.937 31.7496 148.649 31.6402 149.35 31.4745C150.055 31.2895 150.706 30.948 151.425 30.7773C152.771 30.5313 154.148 30.5313 155.495 30.7773C155.617 30.7773 155.617 30.8769 155.495 30.8627C154.057 30.6706 152.597 30.7967 151.208 31.2326C150.104 31.6916 148.944 31.9839 147.763 32.1006C145.051 32.1236 142.416 33.0449 140.234 34.733C140.234 34.733 140.234 34.733 140.234 34.733C142.233 33.0494 144.665 32.029 147.22 31.8018Z" fill="black"/>
</g>
<path d="M129.084 49.958C129.084 49.958 121.813 37.3937 122.491 30.1227C122.789 26.8358 127.049 24.6303 127.049 24.6303C126.722 23.29 126.758 21.8805 127.153 20.5606C127.549 19.2408 128.288 18.063 129.287 17.1601C132.99 13.5032 141.957 14.3142 141.957 14.3142C141.957 14.3142 147.763 5.50647 155.983 8.99259C164.204 12.4787 158.859 22.254 158.859 22.254C158.859 22.254 161.87 26.7504 154.505 30.265C147.139 33.7796 132.665 30.3361 132.665 30.3361C133.352 35.6298 133.279 41.0018 132.448 46.2727C132.264 47.152 131.853 47.9613 131.26 48.6115C130.666 49.2617 129.913 49.7276 129.084 49.958Z" fill="#231F20"/>
<path d="M143.367 14.4283C141.534 13.6469 139.567 13.2737 137.589 13.3327C135.819 13.3021 134.057 13.5909 132.38 14.1864C130.87 14.6354 129.506 15.5071 128.433 16.7078C127.36 17.9086 126.619 19.3931 126.289 21.0022C126.169 21.8372 126.21 22.6889 126.408 23.5074C126.605 24.3259 126.957 25.0948 127.442 25.7689C127.442 25.7689 127.564 25.7689 127.523 25.7689C125.624 23.293 126.615 19.4512 128.582 17.388C130.984 15.1966 134.066 13.9978 137.25 14.0157C139.289 13.9886 141.324 14.213 143.313 14.6845C143.435 14.6418 143.476 14.4853 143.367 14.4283Z" fill="#231F20"/>
<path d="M133.058 48.8053C133.058 48.8053 127.551 42.2031 124.634 44.3374C121.718 46.4718 126.398 56.4321 130.169 57.4281C130.645 57.5938 131.148 57.6563 131.648 57.6119C132.148 57.5674 132.634 57.4168 133.077 57.1693C133.519 56.9218 133.91 56.5825 134.223 56.1721C134.537 55.7616 134.769 55.2885 134.903 54.7815L133.058 48.8053Z" fill="#F7A9A0"/>
<path d="M126.045 47.1548V47.2544C128.758 48.0513 130.304 50.3706 131.471 52.8322C131.293 52.5834 131.067 52.3775 130.807 52.2283C130.547 52.0791 130.259 51.99 129.963 51.9671C129.668 51.9442 129.371 51.9879 129.093 52.0954C128.815 52.2029 128.562 52.3717 128.351 52.5903C128.333 52.6035 128.321 52.6237 128.317 52.6464C128.313 52.6691 128.318 52.6924 128.331 52.7113C128.343 52.7301 128.362 52.743 128.384 52.747C128.406 52.751 128.428 52.7458 128.446 52.7326C128.876 52.5304 129.355 52.4739 129.817 52.5708C130.279 52.6677 130.701 52.9133 131.023 53.2733C131.542 53.8843 131.997 54.5521 132.38 55.2654C132.515 55.493 132.922 55.2654 132.8 55.052C132.583 51.5801 129.558 47.0979 126.045 47.1548Z" fill="#263238"/>
<path d="M145.117 51.865C143.93 52.0325 142.721 51.8469 141.629 51.3293C140.536 50.8117 139.604 49.983 138.939 48.9373C138.274 47.8916 137.902 46.6711 137.865 45.4145C137.828 44.1578 138.128 42.9157 138.731 41.8292C139.335 40.7428 140.216 39.8557 141.276 39.269C142.336 38.6822 143.532 38.4194 144.727 38.5103C145.923 38.6011 147.07 39.0422 148.038 39.7831C149.006 40.5241 149.757 41.5352 150.204 42.7015C150.518 43.52 150.675 44.3952 150.666 45.2772C150.657 46.1592 150.483 47.0308 150.152 47.842C149.822 48.6533 149.343 49.3885 148.742 50.0055C148.141 50.6225 147.431 51.1094 146.65 51.4382C146.157 51.6416 145.642 51.7849 145.117 51.865ZM143.544 39.4289C143.08 39.4975 142.625 39.6216 142.187 39.7988C140.881 40.3481 139.824 41.3986 139.23 42.7365C138.636 44.0745 138.55 45.5996 138.99 47.0016C139.43 48.4036 140.362 49.5773 141.597 50.284C142.832 50.9907 144.278 51.1773 145.64 50.8059C147.002 50.4345 148.177 49.533 148.928 48.2847C149.679 47.0363 149.948 45.5349 149.681 44.0858C149.414 42.6367 148.631 41.3486 147.491 40.4835C146.351 39.6184 144.94 39.2413 143.544 39.4289Z" fill="#455A64"/>
<path d="M159.333 47.966C156.905 48.3075 154.369 46.0024 153.541 42.6159C153.125 40.9957 153.201 39.2797 153.758 37.7069C153.957 37.0182 154.322 36.3951 154.818 35.8983C155.314 35.4015 155.924 35.0477 156.589 34.8716C157.254 34.6954 157.951 34.7027 158.613 34.8929C159.274 35.083 159.878 35.4495 160.364 35.9567C161.591 37.0657 162.439 38.5646 162.779 40.2254C163.647 43.8111 162.291 47.3399 159.74 47.9518C159.605 47.97 159.469 47.9747 159.333 47.966ZM157.122 35.6863H156.797C156.274 35.8554 155.797 36.1527 155.405 36.5535C155.014 36.9544 154.719 37.4473 154.545 37.9914C154.062 39.3845 154 40.9001 154.369 42.3313C155.128 45.4475 157.434 47.5249 159.523 46.9557C161.612 46.3866 162.711 43.4269 161.951 40.3108C161.63 38.8655 160.885 37.562 159.822 36.5828C159.457 36.2428 159.028 35.9873 158.563 35.8329C158.098 35.6784 157.607 35.6285 157.122 35.6863Z" fill="#455A64"/>
<path d="M150.191 43.4984L149.485 42.972C150.231 41.8906 152.131 40.1973 154.057 41.5491L153.596 42.3032C151.873 41.0937 150.259 43.3988 150.191 43.4984Z" fill="#455A64"/>
<path d="M122.952 52.5334L122.125 52.3342C122.206 51.9216 123.047 48.3359 124.838 47.5248C126.628 46.7137 137.887 44.8924 138.403 44.8213L138.538 45.7035C135.269 46.2442 126.506 47.7525 125.217 48.3501C123.929 48.9477 123.169 51.5516 122.952 52.5334Z" fill="#455A64"/>
<path d="M150.774 75.0721L144.982 87.5368L130.915 70.3623L126.289 75.2429C126.289 75.2429 139.406 101.965 139.569 100.855L145.307 90.2118L152.09 98.3935L152.755 79.1274L150.774 75.0721Z" fill="#EBEBEB"/>
<path d="M152.89 88.7749C152.89 85.5876 152.999 82.3861 152.89 79.1988C152.89 79.0992 152.714 79.0281 152.687 79.1988C151.886 82.2154 151.9 94.3954 151.696 97.2981C151.425 96.9566 145.429 90.084 145.361 90.1836C144.154 91.8484 139.935 99.6032 139.651 100.315C137.589 96.046 129.585 80.6075 127.076 76.5522C127.06 76.5318 127.039 76.5176 127.014 76.512C126.99 76.5063 126.965 76.5096 126.942 76.5213C126.92 76.533 126.902 76.5523 126.892 76.576C126.882 76.5998 126.88 76.6266 126.886 76.6518C128.663 81.1055 139.23 101.908 139.406 101.866C141.594 98.2259 143.6 94.4691 145.416 90.6105C146.406 92.0334 152.402 99.774 152.456 99.3044C152.773 95.8047 152.918 92.2903 152.89 88.7749Z" fill="#263238"/>
<path d="M205.943 169.966C200.965 177.422 187.413 178.859 153.636 185.788C148.956 186.756 133.614 153.972 138.552 152.677C144.778 151.041 169.277 146.132 171.108 146.004C186.586 144.922 209.321 164.843 205.943 169.966Z" fill="#F7A9A0"/>
<path d="M145.321 150.999C145.321 150.999 130.997 153.275 123.834 156.904C116.474 160.881 110.144 166.672 105.386 173.779C100.231 181.434 92.7973 203.66 98.5354 207.047C103.731 210.092 110.228 186.955 110.228 186.955C110.228 186.955 99.8918 209.395 106.783 211.856C113.674 214.318 119.765 187.041 119.765 187.041C119.765 187.041 109.632 210.362 117.12 211.714C122.79 212.738 129.626 188.321 129.626 188.321C129.626 188.321 121.053 208.427 126.832 209.75C133.221 211.173 140.885 189.075 140.885 189.075C156.105 189.83 163.648 183.654 168.518 178.589C169.698 177.322 145.321 150.999 145.321 150.999Z" fill="#F7A9A0"/>
<path d="M113.321 178.944C111.965 181.534 110.676 184.152 109.604 186.856C108.533 189.559 107.529 192.305 106.688 195.094C105.532 198.73 104.772 202.492 104.422 206.307C105.508 199.591 109.238 189.844 110.323 187.14C111.408 184.437 112.344 181.676 113.43 178.987C113.457 178.916 113.362 178.887 113.321 178.944Z" fill="#263238"/>
<path d="M122.708 182.858C121.175 186.244 119.534 189.546 118.15 193.003C116.766 196.461 115.749 199.833 114.596 203.362C114.501 203.632 114.677 203.59 114.772 203.362C116.061 199.89 117.485 196.774 118.842 193.316C120.198 189.859 121.365 186.33 122.803 182.929C122.803 182.844 122.722 182.773 122.708 182.858Z" fill="#263238"/>
<path d="M131.335 184.707C128.864 189.835 126.909 195.219 125.502 200.772C125.421 201.042 125.638 200.971 125.719 200.686C127.564 195.308 128.975 191.082 131.498 184.792C131.539 184.707 131.39 184.593 131.335 184.707Z" fill="#263238"/>
<path d="M142.337 150.999L171.936 185.618C171.936 185.618 201.874 178.418 206.283 170.365C209.186 165.057 186.64 143.586 169.657 146.09L142.337 150.999Z" fill="#FFC727"/>
<path opacity="0.1" d="M168.612 172.584C168.482 173.462 168.23 174.315 167.866 175.117C167.524 175.933 167.067 176.691 166.51 177.365C166.643 176.488 166.894 175.635 167.256 174.832C167.608 174.021 168.065 173.265 168.612 172.584ZM189.177 170.635C188.817 171.443 188.566 172.301 188.431 173.182C188.985 172.501 189.442 171.739 189.787 170.919C190.154 170.117 190.41 169.264 190.547 168.387C189.993 169.066 189.532 169.822 189.177 170.635ZM174.513 163.378C173.75 162.992 172.936 162.728 172.099 162.595C173.41 163.73 174.981 164.485 176.656 164.787C176.01 164.212 175.288 163.738 174.513 163.378ZM189.177 153.859C189.461 154.696 189.859 155.487 190.357 156.206C190.192 154.429 189.589 152.728 188.607 151.269C188.678 152.156 188.87 153.029 189.177 153.859ZM159.239 161.343C159.518 162.183 159.916 162.975 160.419 163.691C160.254 161.914 159.651 160.212 158.669 158.753C158.74 159.641 158.932 160.513 159.239 161.343ZM147.03 153.147C147.828 152.846 148.581 152.43 149.269 151.909C148.423 151.978 147.592 152.175 146.8 152.493C146.003 152.797 145.25 153.213 144.562 153.731C145.407 153.661 146.238 153.465 147.03 153.147ZM172.234 150.301C173.032 150 173.785 149.584 174.473 149.063C173.627 149.134 172.796 149.331 172.004 149.647C171.209 149.954 170.456 150.37 169.765 150.885C170.601 150.803 171.423 150.602 172.207 150.287L172.234 150.301ZM181.567 180.695C182.366 180.396 183.119 179.979 183.805 179.457C182.959 179.529 182.127 179.73 181.336 180.054C180.536 180.35 179.782 180.767 179.098 181.292C179.935 181.209 180.757 181.003 181.54 180.68L181.567 180.695ZM203.814 163.449C203.207 163.568 202.613 163.744 202.037 163.976C201.238 164.274 200.484 164.691 199.798 165.213C200.643 165.133 201.474 164.931 202.267 164.616C202.881 164.387 203.468 164.086 204.017 163.719L203.814 163.449Z" fill="black"/>
<path d="M189.923 151.668C184.039 147.208 176.794 145.182 169.575 145.976C169.494 145.976 169.494 146.132 169.575 146.132C177.009 145.919 187.033 149.989 189.841 151.753C189.936 151.853 190.004 151.724 189.923 151.668Z" fill="#263238"/>
<path d="M180.034 179.784C176.968 175.8 173.713 172.001 170.43 168.202C167.147 164.402 163.892 160.589 160.527 156.818C158.628 154.727 156.743 152.55 154.776 150.586C154.765 150.571 154.749 150.561 154.731 150.558C154.713 150.556 154.695 150.561 154.681 150.572C154.667 150.583 154.657 150.6 154.654 150.619C154.652 150.637 154.657 150.656 154.667 150.671C157.733 154.641 160.975 158.469 164.163 162.282C167.351 166.096 170.701 169.909 174.025 173.666C175.897 175.786 177.809 177.934 179.776 179.912C179.939 180.054 180.115 179.926 180.034 179.784Z" fill="#263238"/>
<path d="M142.283 150.558C144.1 149.976 145.954 149.529 147.831 149.22C149.689 148.864 151.575 148.523 153.447 148.21C157.177 147.584 165.018 145.805 171.909 145.819C171.99 145.819 171.597 146.218 171.515 146.204C168.233 146.019 144.724 150.928 142.798 151.07C142.866 151.212 142.947 151.34 143.002 151.483C143.021 151.505 143.032 151.535 143.03 151.566C143.029 151.597 143.016 151.625 142.995 151.646C142.973 151.667 142.945 151.678 142.915 151.677C142.886 151.675 142.859 151.662 142.839 151.639C142.595 151.468 142.432 151.255 142.201 151.07C142.158 151.04 142.123 150.997 142.103 150.946C142.082 150.896 142.075 150.84 142.084 150.786C142.092 150.732 142.116 150.682 142.151 150.641C142.186 150.601 142.232 150.572 142.283 150.558Z" fill="#263238"/>
</g>
</svg>
