<svg width="14" height="19" viewBox="0 0 14 19" fill="none" xmlns="http://www.w3.org/2000/svg">
<path d="M6.2991 18.4058C6.81128 18.75 7.50039 18.7866 7.97532 18.4131L10.8528 16.1572C11.3184 15.7837 11.3091 15.2051 10.8342 14.8389L9.59566 13.8574L11.5047 12.356C11.961 11.9897 11.961 11.4111 11.4954 11.0376L9.80984 9.71191C12.2683 8.68652 13.6372 7.03125 13.6372 5.09766C13.6372 2.27783 10.7411 0 7.13721 0C3.52403 0 0.637207 2.27051 0.637207 5.09766C0.637207 7.08984 2.06199 8.87695 4.3342 9.72656V16.5234C4.3342 16.8164 4.45526 17.1606 4.78119 17.3804L6.2991 18.4058ZM7.13721 16.8384L6.15941 16.0767V8.55469C4.15726 8.23242 2.63004 6.81152 2.63004 5.09766C2.63004 3.14941 4.6415 1.57471 7.13721 1.57471C9.6236 1.57471 11.6257 3.14941 11.6257 5.09766C11.6257 6.79688 10.0892 8.23975 7.78907 8.59131V10.3564L9.49322 11.7114L7.71457 13.0884V14.6118L8.84136 15.4834L7.13721 16.8384ZM7.13721 5.09033C8.01257 5.09033 8.7203 4.52637 8.7203 3.84521C8.7203 3.15674 8.01257 2.6001 7.13721 2.6001C6.25254 2.6001 5.55411 3.14941 5.55411 3.84521C5.55411 4.52637 6.26185 5.09033 7.13721 5.09033Z" />
</svg>
