<?xml version="1.0" encoding="UTF-8"?>
<!DOCTYPE svg PUBLIC "-//W3C//DTD SVG 1.1//EN" "http://www.w3.org/Graphics/SVG/1.1/DTD/svg11.dtd">
<!-- Creator: CorelDRAW 2019 (64-Bit) -->
<svg xmlns="http://www.w3.org/2000/svg" xml:space="preserve" width="340px" height="340px" version="1.1" style="shape-rendering:geometricPrecision; text-rendering:geometricPrecision; image-rendering:optimizeQuality; fill-rule:evenodd; clip-rule:evenodd"
viewBox="0 0 340 340"
 xmlns:xlink="http://www.w3.org/1999/xlink">
 <defs>
  <style type="text/css">
   <![CDATA[
    .fil0 {fill:#EF8073}
    .fil7 {fill:#FCFDFE}
    .fil6 {fill:#F6CB57}
    .fil15 {fill:#F2D488}
    .fil5 {fill:#E8A49B}
    .fil3 {fill:#904921}
    .fil1 {fill:#DBCBC4}
    .fil8 {fill:#CEB16E}
    .fil9 {fill:#B08A74}
    .fil11 {fill:#B7A794}
    .fil10 {fill:#906B52}
    .fil13 {fill:#AEB1D2}
    .fil14 {fill:#91799E}
    .fil4 {fill:#33231A}
    .fil2 {fill:#6A82BE}
    .fil12 {fill:#4D6090}
   ]]>
  </style>
 </defs>
 <g id="Слой_x0020_1">
  <metadata id="CorelCorpID_0Corel-Layer"/>
  <g id="_2477172357408">
   <path class="fil0" d="M45.43 265.33l16.43 -57.16c-0.8,-0.51 -0.88,-0.67 -2.48,-1.34 -0.03,-0.01 -1.95,-0.61 -2.15,-0.69l0.8 -4.25 -11.71 -0.17 -0.08 43.47c-2.94,-6.53 -1.48,-40.08 -1.46,-47.05 0.06,-15.34 -0.77,-113.95 0.45,-121.22 0.51,-3.04 1.44,-6.68 2.42,-9.34 1.46,-4 2.35,-6.54 5.21,-8.59 -4.73,8.99 -7.88,15.8 -6.35,28.31l49.39 -0.26 0.23 -48.59c-11,-0.03 -15.3,0.26 -24.44,3.94 2.97,-4.42 14.77,-5.09 19.55,-5.2 3.21,-0.07 17.1,-0.27 20.18,0.84 2.44,0.88 1.46,0.33 2.88,1.72l-16.76 -1.72 -0.26 48.98 48.91 0.02c2.7,-13.91 -3.47,-18.45 -4.47,-27.04 9.21,14.57 6.04,30.86 6.61,50.47l20.14 0.14c3.76,6.2 3.96,23.19 5.09,32.44 0.95,7.8 3.62,26.4 3.18,33.01 7.19,1.54 12.33,-9.78 15.52,-13.05 1.06,0.97 0.29,-0.33 1.71,1.68 0.44,-5.03 2.14,-6.72 5.2,-9.61l23.64 -22.31 1.39 -2.61 3.06 -0.95 3.96 -1.68c0.18,-2.89 0.77,-1.78 -0.67,-3.27l-4.23 -0.33c-1.78,-3.61 -3.66,-8.58 -1.28,-11.89 -2.74,-0.67 -1.44,-0.12 -1.76,-1.57 -0.18,-0.79 -0.09,-3.09 -0.16,-4.26 -0.29,-4.67 -1.12,-5.55 -1,-10.36 -0.52,-1.4 -0.18,-1.11 -1.75,-2.75 -4.66,-3.54 -10.74,-10.02 -14.87,-15.23 -2.65,-3.36 -11.36,-14.98 -13.7,-16.79 -2.1,2.46 -3.15,9.03 -4.18,13.33l1.35 7.85c7.07,1.1 -2.89,12.95 -5.71,16.5l-20 -0.06c-8.22,-11.15 -9.54,-12.96 -5.29,-17.15l0.32 -3.4c-9.02,-5.53 -0.26,1.09 -6.58,-7.46 -5.37,-7.26 -1.62,-6.71 -4.74,-10.2 2.48,-1.11 9.9,-11.37 16.68,-3.87 5.39,5.97 6.25,5.91 10.44,13.4l0.66 1.93c2.3,-2.73 1.21,-2.8 1.61,-6.78 0.67,-6.83 0.56,-1.82 1.76,-6.3 1.43,-5.32 -0.47,-8.76 -0.6,-11.24 -0.24,-4.32 -0.84,-1.58 0.89,-4.1 -2.87,-1.13 -9.6,-7.92 -16.32,-12.25 -5.24,-3.38 -14.41,-6.96 -21.25,-8.76 -50.43,-13.25 -94.92,8.17 -115.65,55.58 -22.77,52.08 -19.29,116.53 9.15,167.93 2.93,5.3 11.02,13.88 11.09,19.31z"/>
   <path class="fil1" d="M271.66 248.65c0.21,-0.26 0.51,-0.97 0.65,-0.76l5 -5.03c0.19,-0.22 0.51,-0.5 0.67,-0.67 0.18,-0.19 0.48,-0.46 0.74,-0.67 -2.22,4.88 -2.12,4.97 -7.06,7.13zm-49.66 -41.17c0.39,-3.88 2.03,-4.56 5.4,-5.72l-0.28 7.88 -5.12 -2.16zm-10.31 -1.65c8.54,3.24 12.75,3.16 14.05,13.41 1.43,11.31 -0.13,14.53 -3.34,23.98l-3.22 3.84 -2.82 2.79 54.21 -0.84c-0.23,0.16 -0.63,0.03 -0.78,0.36l-2.54 0.73c-3.53,0.46 -25.54,-0.76 -33.23,0.29 4.87,0.84 3.64,-0.12 6.75,2.46l1.16 -2 4.24 0.31c6.85,0.18 15.24,0.08 22.1,-0.27 8.16,-0.42 9.73,-2.14 14.03,-8.21l2.5 -7.18c1.68,-7.61 2.89,-20.82 -5.08,-25.91 0.19,9.37 2.3,17.63 0.74,27.27 0.46,-9.39 -0.59,-14.25 -0.97,-22.68 -0.38,-8.45 1.55,-12.85 2.29,-20.22l1.21 -7.58 -27.75 0.23c-2.14,0.03 -6.75,0.38 -8.19,-1.45l37.01 -0.29 2.99 -12.2 -34.85 -0.53c4.91,-2.25 28.04,-0.87 35.51,-0.74 0.66,-7.41 5.9,-15.37 5.92,-15.45 0.1,-0.46 0.41,-0.48 0.63,-0.71 -0.08,-1.11 0.26,-1.35 0,-2.1 -7.48,0 -14.13,0.34 -21.35,-1.1 -35.07,-0.3 -30.65,-3.51 -34.97,10.54 -1.32,4.3 -3.22,6.38 -4.66,11.55 -2.43,8.71 -3.76,15.79 -5.66,25.32 -11.28,-0.12 -6.27,2.17 -15.93,6.38z"/>
   <path class="fil0" d="M96.09 247.14l18.03 63.07c6.79,0.87 14.44,4.1 21.39,5.35 5.72,1.04 18.55,3.32 23.49,2.92l-41.62 0.53 0 1.4c9.51,0.86 69.64,1.59 76.46,0.01l-0.45 -4.41c2.83,-3.08 2.96,-1.4 3.12,-6.6 -0.57,-2.75 -1.13,-4.11 -2.06,-6.5 -1.32,-3.36 -0.84,-2.33 -2.87,-4.55 -7.47,7.65 -2.63,9.28 -15.49,10.58 -29.02,-7.91 -40,-42.64 -42.79,-70.9 -0.57,-5.78 -1.03,-12.17 2.06,-16.83 2.6,-3.94 6.26,-4.28 10.48,-6.96l0.21 -11.38 -48.36 -0.48c1.42,8.55 0.28,23.81 0.53,33.75 0.02,0.93 0.2,5.5 0.11,6.05l-2.24 4.95z"/>
   <path class="fil0" d="M245.46 116.14c3.5,5.33 1.85,5.13 9.41,6.7l-0.35 2.13c9.56,0.4 14.69,9.43 18.57,16.2 0.37,0.65 0.04,-0.59 1.04,2.04 0.03,0.08 0.66,2.3 0.7,2.51 0.62,2.66 0.75,3.17 1.05,6.42l-2.97 -0.1c7.22,1.44 13.87,1.1 21.35,1.1 0.26,0.75 -0.08,0.99 0,2.1 -0.42,6.44 -4.21,12.22 -5.94,18.77 -1.98,7.54 -3.69,12.66 -4.78,20.14l11.8 0.07c5.15,0.78 1.55,-0.8 3.26,1.92 -1.66,2.85 2.04,1.26 -3.24,1.98 -0.79,0.1 -4.21,-0.11 -5.27,-0.12 -0.47,4.16 -2.34,6.09 -3.83,8.88l-4.34 -0.26c-2.93,1.89 -1.04,-1.34 -2.2,2.97 7.97,5.09 6.76,18.3 5.08,25.91l11.54 38.45c1.8,-5.25 17.88,-19.61 26.09,-41.68 13.71,-36.86 9.63,-75.19 -25.27,-97.98 -14.25,-9.31 -41.47,-14.8 -47.71,-21.12 -2.07,1.47 -1.7,1.92 -3.99,2.97z"/>
   <path class="fil0" d="M221.55 80.66c3.18,0.72 6.66,2.29 10.59,3.6 5.18,1.73 3.73,2.7 11.09,3.88 10.05,1.62 13.11,9.65 8.74,19.66 5.47,0.91 6.85,3.54 11.6,6.08 42.92,22.9 38.24,-22.91 7.79,-58.83 -38.42,-45.32 -61.09,-16.57 -60.33,-0.91 0.6,12.44 9.9,18.89 10.52,26.52z"/>
   <path class="fil2" d="M231.22 127.52l-3.96 1.68 -4.45 3.56 -23.64 22.31c-3.06,2.89 -4.76,4.58 -5.2,9.61 0.55,4.41 1.52,5.55 3.31,8.47 0.82,1.34 1.24,2.44 1.73,3.28 2.54,4.38 -0.07,2.01 3.07,3.11 2.06,0.84 0.71,-0.06 2.98,1.75 0.23,0.19 1.5,1.33 1.59,1.43 1.3,1.46 0.48,0.49 1.17,1.77l1.46 2.13c-4.78,2.75 -8.35,6.23 -15.23,7.52 0.33,3.06 -0.46,3.02 -2.66,3.84l-0.4 3.49 20.7 4.36c9.66,-4.21 4.65,-6.5 15.93,-6.38 1.9,-9.53 3.23,-16.61 5.66,-25.32 1.44,-5.17 3.34,-7.25 4.66,-11.55 4.32,-14.05 -0.1,-10.84 34.97,-10.54l2.97 0.1c-0.3,-3.25 -0.43,-3.76 -1.05,-6.42 -0.04,-0.21 -0.67,-2.43 -0.7,-2.51 -1,-2.63 -0.67,-1.39 -1.04,-2.04 -3.88,-6.77 -9.01,-15.8 -18.57,-16.2 -11.31,-1.23 -14.43,0.45 -23.3,2.55z"/>
   <path class="fil3" d="M147.71 214.21l-1.87 0.04c-4.22,2.68 -7.88,3.02 -10.48,6.96 -3.09,4.66 -2.63,11.05 -2.06,16.83 2.79,28.26 13.77,62.99 42.79,70.9 -3.17,-5.58 -3.4,-6.83 -1.27,-13.16 0.71,-2.12 1.1,-3.02 2.09,-4.85 1.88,-3.5 0.67,-3.43 3.42,-3.32 -0.27,-3.69 3.98,-8.53 6.45,-10.99l3.35 -2.6 -1.68 -5.27c-1.65,3.13 -1.37,2.55 -4.26,-1.5 -1.06,-1.48 -1.92,-3.3 -2.85,-5.2 -1.91,-3.9 -4.58,-8.16 -4.82,-11.93 -4.69,0.16 -15.32,1.16 -18.84,-0.98 0.11,-0.38 -1.75,-3.62 7.98,-2.45 4.59,0.55 6.55,0 7.92,0.13 -5.5,-9.11 -12.7,-29.06 -12.11,-40.11l-2.28 4.23 -11.48 3.27z"/>
   <path class="fil4" d="M112.39 143.28c8.61,-8.11 28.12,-31.61 46.74,-17.05 6.27,4.91 11.88,13.67 7.61,25.39 -2.97,8.13 -9.5,13.73 -20.28,14.52 -9.05,-0.19 -19.76,-5.08 -23.12,-9.89 -2.09,-2.31 -2.16,-2.46 -4.84,-3.72 -3.78,2.93 -19.42,17.39 -27.25,12.14 -0.51,2.32 0.77,0.8 -1.89,1.12 -4.63,0.57 -13.15,-5.71 -16.42,-11.36 -4.64,-7.99 -1.93,-20.51 2.89,-25.72 13.25,-14.3 31.66,-4.11 42.52,7.02 -1.4,4.36 -3.07,4.6 -5.96,7.55zm29.74 -27.14c3.29,-1.45 19.18,-1.75 22.91,0 -1.39,1.03 1.81,0.55 -2.73,1l-9.05 -0.14c-5.05,-0.01 -8.05,0.71 -11.13,-0.86zm-35.57 0c4.33,-2.19 23.54,-0.75 29.9,-0.69 -1.3,2.05 2.13,1.05 -3.09,1.64 -4.69,0.53 -24.77,0.25 -26.81,-0.95zm67.37 58.05l0.6 -3.81 -5.7 -53.76c-1.62,-5.42 -0.05,-1.57 -2.07,-3.2 -2.64,-2.39 -42.77,-0.47 -50.5,-0.48 -9,-0.02 -18,-0.05 -27,-0.05l-25.15 1.22c-3,1.63 3.73,55.88 4.95,59.18 8.95,3.33 86.15,-1.21 104.87,0.9z"/>
   <path class="fil0" d="M49.64 269.65c3.88,-0.49 5.27,3.98 12.09,10.05 9.63,8.56 34.24,26.07 46.28,26.63l-27.72 -99.43 -13.37 -0.09c-1.9,10.28 -6.24,21.36 -8.7,31.35 -0.65,2.63 -1.37,5.49 -2.04,7.97 -0.41,1.5 -0.59,2.4 -0.99,3.85l-5.55 19.67z"/>
   <path class="fil4" d="M49.64 269.65l5.55 -19.67c0.4,-1.45 0.58,-2.35 0.99,-3.85 0.67,-2.48 1.39,-5.34 2.04,-7.97 2.46,-9.99 6.8,-21.07 8.7,-31.35l13.37 0.09 27.72 99.43 3.58 13.23 -76 0.03 14.05 -49.94zm8.39 -67.76l-0.8 4.25c0.2,0.08 2.12,0.68 2.15,0.69 1.6,0.67 1.68,0.83 2.48,1.34l-16.43 57.16 -14.67 53.73 -5.16 0.96 91.78 0.39 0 -1.4 -3.26 -8.8 -18.03 -63.07 -0.04 -2.42 -10.52 -36.58 4.62 -1.99 0.6 -8.09 58.5 -0.13 42.14 0.05c2.2,-0.82 2.99,-0.78 2.66,-3.84l-55.6 0.13 -9.81 0.29 -1.9 -0.48 -5.12 -0.03 -0.24 0.17 -21.48 -0.03 -4.64 0.25c-6.23,-0.56 -36.26,-1.29 -39.76,0.7 0.66,5.32 -0.44,0.84 4.25,3.69l-1.72 3.06z"/>
   <path class="fil0" d="M62.51 140.35c-0.37,-7.11 -3.55,-23.05 -1.35,-27.95 3.5,-5.28 21.51,-0.78 35.06,-2.74l-0.11 -21.32 -49.86 -0.33 -0.05 55.68c18.55,-0.21 15.52,0.78 16.31,-3.34z"/>
   <path class="fil0" d="M246.17 251.16l-5.93 23.22c0.61,1.31 0.67,1.63 0.9,2.23 0.31,-0.12 1.12,-0.41 1.31,-0.38 3.36,0.46 1.17,0.19 2.28,0.7l3.79 0.79c2.5,-1.84 10.32,-1 12.67,4.4 2.06,4.74 -0.41,11.02 -1.1,16.02 1.55,2.08 -0.61,0.62 2.79,1.01 12.7,-9.69 8.99,-4.87 24.91,-18.51 2.4,-2.07 1.67,-1.89 4.23,-2.07l-9.72 -35.89c-4.3,6.07 -5.87,7.79 -14.03,8.21 -6.86,0.35 -15.25,0.45 -22.1,0.27z"/>
   <path class="fil3" d="M167.46 209.45c-0.1,6.13 3.71,13.91 5.82,19.77 2.28,6.35 3.85,13.82 8.59,17.82l37.31 0.02 3.22 -3.84c-2.47,-1.36 -0.73,1.21 -0.63,-1.88 0,-0.12 0.46,-1.95 0.47,-2 0.59,-1.61 1.25,-2.03 1.9,-4.17l-1.59 1.17c-2.86,-2.04 -5.33,-5.07 -7.72,-7.78 -9.97,-11.28 -9.59,-8.96 -23.11,-19.19 -3.41,-1.29 -1.98,-1.32 -4.93,-2.28l-19.33 2.36z"/>
   <path class="fil5" d="M176.74 176.05c-1.09,1.36 -0.03,0.73 -0.62,-1.12l-1.59 -4.55 -0.6 3.81 -0.67 3.82 -102.14 0.18 95.43 2.2c-6.83,1.56 -18.54,1.19 -24.85,-0.22 -4.08,-0.92 -16.67,1.68 -25.44,0.21l-0.99 5.76c1.48,0.72 1.62,1.65 2.93,0.42 0.9,-1.17 0.77,-0.2 1.38,-2.36 0.25,-0.89 0.16,-1.48 0.16,-2.34l6.98 -0.05 -2.21 9.76c2.07,0.95 1.01,-1.47 2.23,2.51l1.9 0.48 1.29 -5.58 4.46 -0.86c1.69,2.45 3.08,4.41 4.06,6.15l55.6 -0.13c6.88,-1.29 10.45,-4.77 15.23,-7.52l-1.46 -2.13 -5.74 -4.95c-3.14,-1.1 -0.53,1.27 -3.07,-3.11 -0.49,-0.84 -0.91,-1.94 -1.73,-3.28 -1.79,-2.92 -2.76,-4.06 -3.31,-8.47 -1.42,-2.01 -0.65,-0.71 -1.71,-1.68 -3.19,3.27 -8.33,14.59 -15.52,13.05z"/>
   <path class="fil0" d="M58.03 201.89l1.72 -3.06c-4.69,-2.85 -3.59,1.63 -4.25,-3.69 3.5,-1.99 33.53,-1.26 39.76,-0.7l0 -12.96c-8.25,-1.12 -21.72,2.41 -28.38,-2.29l-3.67 -33.66 -17.07 -0.82 0.07 55.97 11.05 -0.1 0.77 1.31z"/>
   <path class="fil6" d="M112.39 143.28c-1.7,2.99 -6.86,7.22 -10.48,9.48 -2.13,1.33 -4.26,1.94 -7.16,2.86 -4.72,1.49 -2.46,0.83 -5.52,4.19 -0.52,0.99 -2.18,-2 -0.37,2.85 1.06,2.86 -0.27,1.22 2.39,2.01 7.83,5.25 23.47,-9.21 27.25,-12.14 1.61,-3.13 6.04,-6.56 8.06,-8.28 3.07,-3.43 6.77,-6.5 10.69,-9.1 4.33,-2.86 10.33,-4.23 15.07,-1.1 8.87,5.84 5.71,23.33 -8.18,21.17l2.69 1.22c0.23,0.17 2.44,2.78 2.55,3.07 2.14,6.1 -0.5,2.72 -2.92,6.63 10.78,-0.79 17.31,-6.39 20.28,-14.52 4.27,-11.72 -1.34,-20.48 -7.61,-25.39 -18.62,-14.56 -38.13,8.94 -46.74,17.05z"/>
   <polygon class="fil0" points="97.22,110.01 146.68,109.99 146.73,87.97 97.22,88.09 "/>
   <path class="fil7" d="M61.16 112.4c-2.2,4.9 0.98,20.84 1.35,27.95 0.12,0.29 0.36,0.35 0.39,0.85 0.03,0.52 0.27,0.65 0.3,0.92 0.12,1.24 0.12,2.08 0.01,3.41l3.67 33.66c6.66,4.7 20.13,1.17 28.38,2.29l6.33 -0.52c4.45,0.43 11.25,0.91 14.67,-0.58 8.77,1.47 21.36,-1.13 25.44,-0.21 6.31,1.41 18.02,1.78 24.85,0.22l-95.43 -2.2 102.14 -0.18 0.67 -3.82c-18.72,-2.11 -95.92,2.43 -104.87,-0.9 -1.22,-3.3 -7.95,-57.55 -4.95,-59.18l25.15 -1.22c9,0 18,0.03 27,0.05 7.73,0.01 47.86,-1.91 50.5,0.48 2.02,1.63 0.45,-2.22 2.07,3.2l5.7 53.76 1.59 4.55c0.59,1.85 -0.47,2.48 0.62,1.12 0.44,-6.61 -2.23,-25.21 -3.18,-33.01 -1.13,-9.25 -1.33,-26.24 -5.09,-32.44l-20.14 -0.14c-5.08,1.77 -34.83,0.51 -43.07,0.52 -10.81,0 -35.17,-1.03 -44.1,1.42z"/>
   <path class="fil3" d="M216.36 249.85c-7.36,2.48 -9.72,0.72 -13.45,7.95 -2.68,5.19 -3.03,11.83 -0.66,17.34 -0.97,1.91 1.97,1.6 -1.93,1.48l2.12 0.56c10.46,0.04 12.75,5.47 10.26,15.8l4.5 3.22c2.79,2.28 2.34,1.92 5.15,3.24l1.33 -4.92c0.81,-1.59 0.85,-1.37 1.45,-2.14 0.21,4.37 1.4,12.94 -0.84,16.06l-0.18 3.36 2.35 -0.84c0.5,-1.78 -0.08,-0.1 0.63,-2.04 0.51,-1.38 0.78,-1.95 1.17,-2.84 2.44,1.44 0.61,-0.88 1.09,2.1l1.26 0.17c-1.22,-5.65 -0.22,-13.73 -0.11,-19.9l-0.68 0.1 0.06 11.67c-0.44,5.29 -0.36,2.85 -1.62,4.36 -2.23,-5.76 -0.75,-44.12 -0.7,-53.67l2.57 -0.37 3.89 -0.15c7.69,-1.05 29.7,0.17 33.23,-0.29l2.54 -0.73c0.15,-0.33 0.55,-0.2 0.78,-0.36l-54.21 0.84z"/>
   <path class="fil1" d="M91.25 164.67c-2.66,-0.79 -1.33,0.85 -2.39,-2.01 -1.81,-4.85 -0.15,-1.86 0.37,-2.85 1.53,-2.11 1.29,-1.57 2.38,-3.67 -4.37,-2.88 -8.5,-2.89 -10,-9.37 -1.31,-5.63 1.85,-10.77 5.29,-12.96 4.89,-3.11 10.33,-1.2 14.21,1.51 11.07,7.71 5.37,7.59 11.28,7.96 2.89,-2.95 4.56,-3.19 5.96,-7.55 -10.86,-11.13 -29.27,-21.32 -42.52,-7.02 -4.82,5.21 -7.53,17.73 -2.89,25.72 3.27,5.65 11.79,11.93 16.42,11.36 2.66,-0.32 1.38,1.2 1.89,-1.12z"/>
   <path class="fil4" d="M220.37 93.09c1.57,1.64 1.23,1.35 1.75,2.75 4.58,1.02 3.23,0.02 4.66,2.76 2.45,4.68 3.34,10.37 -1.74,13.43 -2.38,3.31 -0.5,8.28 1.28,11.89l4.23 0.33c11.36,-3.05 0.85,-8.78 0.27,-16.21 -0.4,-5.09 3.81,-8.4 7.2,-4.67 2.55,2.79 -0.41,5.63 -1.42,8.22l8.86 4.55c2.29,-1.05 1.92,-1.5 3.99,-2.97l2.52 -5.37c4.37,-10.01 1.31,-18.04 -8.74,-19.66 -7.36,-1.18 -5.91,-2.15 -11.09,-3.88 -3.93,-1.31 -7.41,-2.88 -10.59,-3.6l-1.18 12.43z"/>
   <path class="fil4" d="M161.47 206.71c-0.59,11.05 6.61,31 12.11,40.11 -1.37,-0.13 -3.33,0.42 -7.92,-0.13 -9.73,-1.17 -7.87,2.07 -7.98,2.45 3.52,2.14 14.15,1.14 18.84,0.98l7.28 1.19 4.65 17.44 1.68 5.27c7.44,3.45 1.91,1.41 10.19,2.6 3.9,0.12 0.96,0.43 1.93,-1.48 -2.37,-5.51 -2.02,-12.15 0.66,-17.34 3.73,-7.23 6.09,-5.47 13.45,-7.95l2.82 -2.79 -37.31 -0.02c0.45,0.76 0.98,1.65 1.6,2.37 -7.41,-0.64 -8.65,-2.52 -11.18,-8.4 -1.81,-4.18 -3.43,-8.78 -5.01,-12.98 -2.62,-6.93 -10.39,-24.27 0.35,-26.03 3.62,-1.96 15.97,-0.27 20.69,0.54l2.98 0.32 23.48 5.34c5.07,2.88 7.46,3.16 8.85,9.15 1.58,6.75 0.55,11.26 0.51,17.82 -0.65,2.14 -1.31,2.56 -1.9,4.17 -0.01,0.05 -0.47,1.88 -0.47,2 -0.1,3.09 -1.84,0.52 0.63,1.88 3.21,-9.45 4.77,-12.67 3.34,-23.98 -1.3,-10.25 -5.51,-10.17 -14.05,-13.41l-20.7 -4.36c-5.84,-0.66 -11.72,-1.3 -17.78,-1.49 -3.63,-0.11 -4.94,-0.43 -7.82,1.26 -2.61,1.54 -3.17,2.78 -3.92,5.47z"/>
   <path class="fil1" d="M97.22 88.09l49.51 -0.12 -0.05 22.02 -49.46 0.02 0 -21.92zm-39.19 113.8l-0.77 -1.31 -11.05 0.1 -0.07 -55.97 17.07 0.82c0.11,-1.33 0.11,-2.17 -0.01,-3.41 -0.03,-0.27 -0.27,-0.4 -0.3,-0.92 -0.03,-0.5 -0.27,-0.56 -0.39,-0.85 -0.79,4.12 2.24,3.13 -16.31,3.34l0.05 -55.68 49.86 0.33 0.11 21.32c-13.55,1.96 -31.56,-2.54 -35.06,2.74 8.93,-2.45 33.29,-1.42 44.1,-1.42 8.24,-0.01 37.99,1.25 43.07,-0.52 -0.57,-19.61 2.6,-35.9 -6.61,-50.47 1,8.59 7.17,13.13 4.47,27.04l-48.91 -0.02 0.26 -48.98 16.76 1.72c-1.42,-1.39 -0.44,-0.84 -2.88,-1.72 -3.08,-1.11 -16.97,-0.91 -20.18,-0.84 -4.78,0.11 -16.58,0.78 -19.55,5.2 9.14,-3.68 13.44,-3.97 24.44,-3.94l-0.23 48.59 -49.39 0.26c-1.53,-12.51 1.62,-19.32 6.35,-28.31 -2.86,2.05 -3.75,4.59 -5.21,8.59 -0.98,2.66 -1.91,6.3 -2.42,9.34 -1.22,7.27 -0.39,105.88 -0.45,121.22 -0.02,6.97 -1.48,40.52 1.46,47.05l0.08 -43.47 11.71 0.17z"/>
   <path class="fil4" d="M282.3 242.68l9.72 35.89 11.36 41 -41.12 -0.09 -0.44 -2.41c-1.43,-5.56 -2.86,-0.87 -2.45,-7.41 -0.96,-0.85 -2.13,0.66 -1.87,-1.75l0.69 5.23c-5.11,3.88 -0.67,6.61 -4.93,6.45 -3.41,-1.53 -0.71,0.5 -2.13,-2.37l-3.6 -8.19 0.31 4.29 -2.22 1.33c-1.76,3.25 -0.47,2.27 -1.36,4.65l-16.64 0.34 1.55 -6.53c-1.38,-1.43 0.14,-0.59 -2.71,-2.15l-2.35 0.84 -0.6 3.38 -1.25 4.27 -10 0.09c-2.56,-0.95 -1.13,0.94 -1.58,-1.61l-0.63 -2.32 -2.02 -1.65 -1.59 -0.35c-4.13,2.22 -1.15,2.49 -3.18,6.01 -8.32,-1.09 0.17,0.64 -4.15,-5.2l-2.07 -0.9c0.23,-4.68 0.02,-4.42 2.84,-6.78l-0.01 -0.55c-1.42,1.59 -1.99,2.06 -3.36,3.22 -0.16,5.2 -0.29,3.52 -3.12,6.6l0.45 4.41 120.1 -0.66 -5.39 -0.63 -12.21 -45.18 -11.54 -38.45 -2.5 7.18z"/>
   <path class="fil8" d="M157.97 81.54c3.89,0.97 22.07,0.39 28.76,0.26l-2.35 -6.69c-2.45,4.29 -3.28,1.23 -3.37,6.43 -4.99,-1.85 -1.07,-1.61 -5.82,-0.56 -4.94,1.44 -3.89,-8.31 -3.34,-10.84 0.74,-0.35 0.79,-0.88 2.24,-0.13 -4.19,-7.49 -5.05,-7.43 -10.44,-13.4 -6.78,-7.5 -14.2,2.76 -16.68,3.87 3.12,3.49 -0.63,2.94 4.74,10.2 6.32,8.55 -2.44,1.93 6.58,7.46l-0.32 3.4z"/>
   <path class="fil4" d="M126.56 144.25c1.08,2.85 0.52,1.34 3.02,3.65 5.68,3.77 5.07,5.47 14.56,7.32 13.89,2.16 17.05,-15.33 8.18,-21.17 -4.74,-3.13 -10.74,-1.76 -15.07,1.1 -3.92,2.6 -7.62,5.67 -10.69,9.1z"/>
   <path class="fil4" d="M89.23 159.81c3.06,-3.36 0.8,-2.7 5.52,-4.19 2.9,-0.92 5.03,-1.53 7.16,-2.86 3.62,-2.26 8.78,-6.49 10.48,-9.48 -5.91,-0.37 -0.21,-0.25 -11.28,-7.96 -3.88,-2.71 -9.32,-4.62 -14.21,-1.51 -3.44,2.19 -6.6,7.33 -5.29,12.96 1.5,6.48 5.63,6.49 10,9.37 -1.09,2.1 -0.85,1.56 -2.38,3.67z"/>
   <path class="fil7" d="M159.64 90.14c1.14,-0.65 -0.23,-0.82 3.55,-1.24l15.55 0.03 -0.08 2.33c-4.3,0.03 -15.45,0.99 -19.02,-1.12zm29.33 -7.89c-1.74,1.73 -0.61,1.5 -2.24,-0.45 -6.69,0.13 -24.87,0.71 -28.76,-0.26 -4.25,4.19 -2.93,6 5.29,17.15l20 0.06c2.82,-3.55 12.78,-15.4 5.71,-16.5z"/>
   <path class="fil5" d="M96.05 244.72l0.04 2.42 2.24 -4.95c0.09,-0.55 -0.09,-5.12 -0.11,-6.05 -0.25,-9.94 0.89,-25.2 -0.53,-33.75l48.36 0.48 -0.21 11.38 1.87 -0.04c2.22,-2.24 0.95,0 1.52,-3.93 0.1,-0.68 0.09,-3.27 0.08,-4.09 -0.03,-2.79 -0.1,-5.47 -0.06,-8.26l-58.5 0.13 0.12 7.08c1.58,1.28 1.81,2.02 4.39,0.15 0,7.95 -1.01,33.56 0.79,39.43z"/>
   <path class="fil1" d="M251.92 278.85c4.52,0.06 7.42,0.75 8.06,5.66 1.6,12.22 -15.82,10.13 -9.38,-3.07l1.32 -2.59zm-3.4 -1.13c-3.93,4.06 -3.63,5.41 -3.6,11.56l0.44 1.47c2.65,17.04 0.98,13.75 6.57,13.84 1.23,0.02 2.01,-0.13 3.23,0.64l2.1 2.71c-4.67,-2.33 -5.77,-2.22 -11.21,-1.98 0.77,3.38 -1.19,0.33 1.48,3.07l3.6 8.19c1.42,2.87 -1.28,0.84 2.13,2.37 4.26,0.16 -0.18,-2.57 4.93,-6.45l-0.69 -5.23c-0.26,2.41 0.91,0.9 1.87,1.75 0.5,-7 -0.88,-6.04 2.23,-9.38 0.13,-0.14 0.53,-0.19 0.63,-0.56 0.1,-0.39 0.46,-0.36 0.65,-0.57 -3.4,-0.39 -1.24,1.07 -2.79,-1.01 0.69,-5 3.16,-11.28 1.1,-16.02 -2.35,-5.4 -10.17,-6.24 -12.67,-4.4z"/>
   <path class="fil2" d="M180.33 287.61c6.84,3.33 6.9,4.23 11.82,7.6l-0.57 3.15c2.03,2.22 1.55,1.19 2.87,4.55 0.93,2.39 1.49,3.75 2.06,6.5 1.37,-1.16 1.94,-1.63 3.36,-3.22l0.13 -1.16c1.72,-13.21 -5.02,-16.06 2.44,-27.85l-2.12 -0.56c-8.28,-1.19 -2.75,0.85 -10.19,-2.6l-3.35 2.6c-2.47,2.46 -6.72,7.3 -6.45,10.99z"/>
   <path class="fil2" d="M191.72 209.37c13.52,10.23 13.14,7.91 23.11,19.19 2.39,2.71 4.86,5.74 7.72,7.78 -2.03,-9.65 -7.93,-18.18 -7.77,-28.14l-23.48 -5.34c-1.16,5.03 -1.63,1.51 0.42,6.51z"/>
   <path class="fil1" d="M123.34 156.25c3.36,4.81 14.07,9.7 23.12,9.89 2.42,-3.91 5.06,-0.53 2.92,-6.63 -0.11,-0.29 -2.32,-2.9 -2.55,-3.07l-2.69 -1.22c-9.49,-1.85 -8.88,-3.55 -14.56,-7.32 -2.94,1.59 -0.29,-0.28 -2.79,1.87 -0.25,0.22 -1.31,1.33 -1.42,1.47 -2.02,2.46 -1.78,3.04 -2.03,5.01z"/>
   <path class="fil4" d="M176.09 308.94c12.86,-1.3 8.02,-2.93 15.49,-10.58l0.57 -3.15c-4.92,-3.37 -4.98,-4.27 -11.82,-7.6 -2.75,-0.11 -1.54,-0.18 -3.42,3.32 -0.99,1.83 -1.38,2.73 -2.09,4.85 -2.13,6.33 -1.9,7.58 1.27,13.16z"/>
   <path class="fil1" d="M181.87 247.04c-4.74,-4 -6.31,-11.47 -8.59,-17.82 -2.11,-5.86 -5.92,-13.64 -5.82,-19.77 0.63,-5.28 2.62,-5.54 2.93,-7.12 0.1,-0.55 0.36,-0.64 0.49,-1.01l-3.25 0.68c-10.74,1.76 -2.97,19.1 -0.35,26.03 1.58,4.2 3.2,8.8 5.01,12.98 2.53,5.88 3.77,7.76 11.18,8.4 -0.62,-0.72 -1.15,-1.61 -1.6,-2.37z"/>
   <path class="fil0" d="M147.71 214.21l11.48 -3.27 2.28 -4.23c0.75,-2.69 1.31,-3.93 3.92,-5.47 2.88,-1.69 4.19,-1.37 7.82,-1.26 6.06,0.19 11.94,0.83 17.78,1.49l0.4 -3.49 -42.14 -0.05c-0.04,2.79 0.03,5.47 0.06,8.26 0.01,0.82 0.02,3.41 -0.08,4.09 -0.57,3.93 0.7,1.69 -1.52,3.93z"/>
   <path class="fil9" d="M174.75 71.94l0.44 9.04c4.75,-1.05 0.83,-1.29 5.82,0.56 0.09,-5.2 0.92,-2.14 3.37,-6.43l2.35 6.69c1.63,1.95 0.5,2.18 2.24,0.45l-1.35 -7.85c-1.39,-3.08 -3.28,-11.41 -4.08,-14.02 -1.44,-4.7 -2.44,-9.57 -4.14,-14.01l-0.99 -2.85c-1.73,2.52 -1.13,-0.22 -0.89,4.1 0.13,2.48 2.03,5.92 0.6,11.24 -1.2,4.48 -1.09,-0.53 -1.76,6.3 -0.4,3.98 0.69,4.05 -1.61,6.78z"/>
   <path class="fil5" d="M233.27 109.33c-0.35,-2.33 2.54,-4.58 4.28,-5.65 -0.75,1.58 -2.46,5.7 -4.28,5.65zm-2.72 14.92c1.44,1.49 0.85,0.38 0.67,3.27 8.87,-2.1 11.99,-3.78 23.3,-2.55l0.35 -2.13c-7.56,-1.57 -5.91,-1.37 -9.41,-6.7l-8.86 -4.55c1.01,-2.59 3.97,-5.43 1.42,-8.22 -3.39,-3.73 -7.6,-0.42 -7.2,4.67 0.58,7.43 11.09,13.16 -0.27,16.21z"/>
   <path class="fil1" d="M202.46 291.63c-2.04,-5.99 -2.49,-9.98 3.8,-12.71 8.05,2.78 8.18,16.59 -3.8,12.71zm-2.46 13.4l10.02 -0.26c2.93,-2.58 -0.01,2 1.12,-1.9 0.01,-0.04 0.47,-3.26 0.5,-3.52 0.27,-2.35 0.56,-4.15 1.06,-6.37 2.49,-10.33 0.2,-15.76 -10.26,-15.8 -7.46,11.79 -0.72,14.64 -2.44,27.85z"/>
   <path class="fil1" d="M99.9 194.19l21.48 0.03c0.79,-3.8 0.91,-1.62 -10.1,-2.52 1.5,-0.66 0.97,-0.35 2.65,-0.85l4.27 -4.29c-1.31,1.23 -1.45,0.3 -2.93,-0.42l0.99 -5.76c-3.42,1.49 -10.22,1.01 -14.67,0.58 0.99,5.78 -1.01,7.85 -1.69,13.23z"/>
   <path class="fil0" d="M96.05 244.72c-1.8,-5.87 -0.79,-31.48 -0.79,-39.43 -2.58,1.87 -2.81,1.13 -4.39,-0.15l-0.12 -7.08 -0.6 8.09 -4.62 1.99 10.52 36.58z"/>
   <path class="fil10" d="M281.78 193.96l1.76 0.19c1.09,-7.48 2.8,-12.6 4.78,-20.14 1.73,-6.55 5.52,-12.33 5.94,-18.77 -0.22,0.23 -0.53,0.25 -0.63,0.71 -0.02,0.08 -5.26,8.04 -5.92,15.45 -7.47,-0.13 -30.6,-1.51 -35.51,0.74l34.85 0.53 -2.99 12.2 -37.01 0.29c1.44,1.83 6.05,1.48 8.19,1.45l27.75 -0.23 -1.21 7.58z"/>
   <path class="fil0" d="M229.82 288.55l0.68 -0.1 -0.23 -6.37 -0.14 -18.21c2.58,3.55 2.19,4.62 6.34,6.13l4.3 -17.15c-3.11,-2.58 -1.88,-1.62 -6.75,-2.46l-3.89 0.15 -0.31 38.01z"/>
   <path class="fil4" d="M210.02 304.77l1.17 1.19c7.05,-0.53 6.94,2.47 13.1,2.48 2.24,-3.12 1.05,-11.69 0.84,-16.06 -0.6,0.77 -0.64,0.55 -1.45,2.14l-1.33 4.92c-2.81,-1.32 -2.36,-0.96 -5.15,-3.24l-4.5 -3.22c-0.5,2.22 -0.79,4.02 -1.06,6.37 -0.03,0.26 -0.49,3.48 -0.5,3.52 -1.13,3.9 1.81,-0.68 -1.12,1.9z"/>
   <path class="fil8" d="M187.62 74.4c1.03,-4.3 2.08,-10.87 4.18,-13.33 -1.31,-2.97 -1.41,-7.94 -3.54,-11.08 -3.4,-2.06 -1.97,-0.39 -4.76,-1.2 -3.37,-0.97 -0.59,0.11 -4.1,-2.42 1.7,4.44 2.7,9.31 4.14,14.01 0.8,2.61 2.69,10.94 4.08,14.02z"/>
   <path class="fil6" d="M229.82 288.55l0.31 -38.01 -2.57 0.37c-0.05,9.55 -1.53,47.91 0.7,53.67 1.26,-1.51 1.18,0.93 1.62,-4.36l-0.06 -11.67z"/>
   <path class="fil7" d="M222.55 236.34l1.59 -1.17c0.04,-6.56 1.07,-11.07 -0.51,-17.82 -1.39,-5.99 -3.78,-6.27 -8.85,-9.15 -0.16,9.96 5.74,18.49 7.77,28.14z"/>
   <path class="fil2" d="M230.27 282.08l0.23 6.37 5.79 3.56c5.42,-2.14 3.59,-11.87 4.85,-15.4 -0.23,-0.6 -0.29,-0.92 -0.9,-2.23l-2.09 -0.2c-2.77,1.59 -5.54,5.25 -7.88,7.9z"/>
   <path class="fil0" d="M167.46 209.45l19.33 -2.36 0.92 -1.21 0.61 -3.34c-4.72,-0.81 -17.07,-2.5 -20.69,-0.54l3.25 -0.68c-0.13,0.37 -0.39,0.46 -0.49,1.01 -0.31,1.58 -2.3,1.84 -2.93,7.12z"/>
   <path class="fil11" d="M251.92 278.85l-1.32 2.59c-6.44,13.2 10.98,15.29 9.38,3.07 -0.64,-4.91 -3.54,-5.6 -8.06,-5.66z"/>
   <path class="fil4" d="M230.61 308.35l3.09 -2 2.18 -3.76 4.33 -5.3c-1.08,-1.98 -2.38,-3.29 -3.92,-5.28l-5.79 -3.56c-0.11,6.17 -1.11,14.25 0.11,19.9z"/>
   <path class="fil0" d="M210.05 315.61l0.63 2.32 12.83 -2.75 0.6 -3.38 0.18 -3.36c-6.16,-0.01 -6.05,-3.01 -13.1,-2.48l0.32 0.88c0.15,1.39 0.69,3.58 0.72,4.47 0.17,5.83 0.37,3.27 -2.18,4.3z"/>
   <path class="fil11" d="M202.46 291.63c11.98,3.88 11.85,-9.93 3.8,-12.71 -6.29,2.73 -5.84,6.72 -3.8,12.71z"/>
   <polygon class="fil4" points="240.77,252.85 236.47,270 238.15,274.18 240.24,274.38 246.17,251.16 241.93,250.85 "/>
   <path class="fil0" d="M188.45 268.75l-4.65 -17.44 -7.28 -1.19c0.24,3.77 2.91,8.03 4.82,11.93 0.93,1.9 1.79,3.72 2.85,5.2 2.89,4.05 2.61,4.63 4.26,1.5z"/>
   <path class="fil4" d="M279.72 209.59c1.16,-4.31 -0.73,-1.08 2.2,-2.97l0.36 -8.58 7.81 -0.04c1.06,0.01 4.48,0.22 5.27,0.12 5.28,-0.72 1.58,0.87 3.24,-1.98 -1.71,-2.72 1.89,-1.14 -3.26,-1.92l-11.8 -0.07 -1.76 -0.19c-0.74,7.37 -2.67,11.77 -2.29,20.22 0.38,8.43 1.43,13.29 0.97,22.68 1.56,-9.64 -0.55,-17.9 -0.74,-27.27z"/>
   <path class="fil0" d="M118.2 186.56l-4.27 4.29c-1.68,0.5 -1.15,0.19 -2.65,0.85 11.01,0.9 10.89,-1.28 10.1,2.52l0.24 -0.17c1.39,-3.63 0.2,-1.33 2.89,-2.48l2.21 -9.76 -6.98 0.05c0,0.86 0.09,1.45 -0.16,2.34 -0.61,2.16 -0.48,1.19 -1.38,2.36z"/>
   <path class="fil12" d="M241.14 276.61c-1.26,3.53 0.57,13.26 -4.85,15.4 1.54,1.99 2.84,3.3 3.92,5.28 1.06,2.43 0.86,1.68 2.45,2.72 0.19,-4.74 -1.44,-4.59 1.64,-8.04l0.58 -0.56c0.04,-0.04 0.22,-0.27 0.25,-0.31 0.04,-0.03 0.17,-0.23 0.23,-0.35l-0.44 -1.47c-1.53,-4.5 -5.33,-8.25 -0.19,-12.35 -1.11,-0.51 1.08,-0.24 -2.28,-0.7 -0.19,-0.03 -1,0.26 -1.31,0.38z"/>
   <path class="fil1" d="M199.88 306.74c0.1,4.72 -0.68,3.56 -0.77,7.68 4.32,5.84 -4.17,4.11 4.15,5.2 2.03,-3.52 -0.95,-3.79 3.18,-6.01 0.62,-4.69 0.46,-4.86 2.74,-7.59l-9.3 0.72z"/>
   <path class="fil5" d="M95.26 194.44l4.64 -0.25c0.68,-5.38 2.68,-7.45 1.69,-13.23l-6.33 0.52 0 12.96z"/>
   <path class="fil5" d="M225.04 112.03c5.08,-3.06 4.19,-8.75 1.74,-13.43 -1.43,-2.74 -0.08,-1.74 -4.66,-2.76 -0.12,4.81 0.71,5.69 1,10.36 0.07,1.17 -0.02,3.47 0.16,4.26 0.32,1.45 -0.98,0.9 1.76,1.57z"/>
   <path class="fil3" d="M230.27 282.08c2.34,-2.65 5.11,-6.31 7.88,-7.9l-1.68 -4.18c-4.15,-1.51 -3.76,-2.58 -6.34,-6.13l0.14 18.21z"/>
   <path class="fil2" d="M242.66 300.01l-0.05 4.7 3.44 1.25c5.44,-0.24 6.54,-0.35 11.21,1.98l-2.1 -2.71c-1.22,-0.77 -2,-0.62 -3.23,-0.64 -5.59,-0.09 -3.92,3.2 -6.57,-13.84 -0.06,0.12 -0.19,0.32 -0.23,0.35 -0.03,0.04 -0.21,0.27 -0.25,0.31l-0.58 0.56c-3.08,3.45 -1.45,3.3 -1.64,8.04z"/>
   <path class="fil0" d="M230.61 308.35l-1.26 -0.17 0.05 2.11 -2.94 0.67c2.85,1.56 1.33,0.72 2.71,2.15l14.29 -4.71 0.04 -2.03 -9.8 -0.02 -3.09 2z"/>
   <path class="fil10" d="M106.56 116.14c2.04,1.2 22.12,1.48 26.81,0.95 5.22,-0.59 1.79,0.41 3.09,-1.64 -6.36,-0.06 -25.57,-1.5 -29.9,0.69z"/>
   <path class="fil6" d="M281.92 206.62l4.34 0.26c1.49,-2.79 3.36,-4.72 3.83,-8.88l-7.81 0.04 -0.36 8.58z"/>
   <path class="fil9" d="M118.5 152.53c2.68,1.26 2.75,1.41 4.84,3.72 0.25,-1.97 0.01,-2.55 2.03,-5.01 0.11,-0.14 1.17,-1.25 1.42,-1.47 2.5,-2.15 -0.15,-0.28 2.79,-1.87 -2.5,-2.31 -1.94,-0.8 -3.02,-3.65 -2.02,1.72 -6.45,5.15 -8.06,8.28z"/>
   <path class="fil11" d="M159.64 90.14c3.57,2.11 14.72,1.15 19.02,1.12l0.08 -2.33 -15.55 -0.03c-3.78,0.42 -2.41,0.59 -3.55,1.24z"/>
   <path class="fil3" d="M128.64 194.56l9.81 -0.29c-0.98,-1.74 -2.37,-3.7 -4.06,-6.15l-4.46 0.86 -1.29 5.58z"/>
   <path class="fil10" d="M142.13 116.14c3.08,1.57 6.08,0.85 11.13,0.86l9.05 0.14c4.54,-0.45 1.34,0.03 2.73,-1 -3.73,-1.75 -19.62,-1.45 -22.91,0z"/>
   <path class="fil4" d="M175.19 80.98l-0.44 -9.04 -0.66 -1.93c-1.45,-0.75 -1.5,-0.22 -2.24,0.13 -0.55,2.53 -1.6,12.28 3.34,10.84z"/>
   <path class="fil0" d="M235.88 302.59c1.86,3.96 -1.71,0.81 2.31,2.02 0.17,0.06 4.06,0.1 4.42,0.1l0.05 -4.7c-1.59,-1.04 -1.39,-0.29 -2.45,-2.72l-4.33 5.3z"/>
   <path class="fil2" d="M244.92 289.28c-0.03,-6.15 -0.33,-7.5 3.6,-11.56l-3.79 -0.79c-5.14,4.1 -1.34,7.85 0.19,12.35z"/>
   <path class="fil13" d="M243.46 308.4c0.84,2.36 -0.08,4.45 -0.99,7.74 0.48,-0.28 1.37,-1.02 1.57,-0.57 0.12,0.26 0.6,-0.27 1.58,-0.92l2.22 -1.33 -0.31 -4.29c-2.78,-1.36 -1.89,-1.11 -4.03,-2.66l-0.04 2.03z"/>
   <path class="fil1" d="M208.03 313.96l2.02 1.65c2.55,-1.03 2.35,1.53 2.18,-4.3 -0.03,-0.89 -0.57,-3.08 -0.72,-4.47 -3.38,1.82 -3.27,1.72 -3.48,7.12z"/>
   <path class="fil10" d="M200 305.03l-0.13 1.16 0.01 0.55 9.3 -0.72c-2.28,2.73 -2.12,2.9 -2.74,7.59l1.59 0.35c0.21,-5.4 0.1,-5.3 3.48,-7.12l-0.32 -0.88 -1.17 -1.19 -10.02 0.26z"/>
   <path class="fil2" d="M222 207.48l5.12 2.16 0.28 -7.88c-3.37,1.16 -5.01,1.84 -5.4,5.72z"/>
   <path class="fil3" d="M233.7 306.35l9.8 0.02c2.14,1.55 1.25,1.3 4.03,2.66 -2.67,-2.74 -0.71,0.31 -1.48,-3.07l-3.44 -1.25c-0.36,0 -4.25,-0.04 -4.42,-0.1 -4.02,-1.21 -0.45,1.94 -2.31,-2.02l-2.18 3.76z"/>
   <path class="fil14" d="M186.79 207.09c2.95,0.96 1.52,0.99 4.93,2.28 -2.05,-5 -1.58,-1.48 -0.42,-6.51l-2.98 -0.32 -0.61 3.34 -0.92 1.21z"/>
   <path class="fil2" d="M199.11 314.42c0.09,-4.12 0.87,-2.96 0.77,-7.68 -2.82,2.36 -2.61,2.1 -2.84,6.78l2.07 0.9z"/>
   <path class="fil10" d="M121.62 194.05l5.12 0.03c-1.22,-3.98 -0.16,-1.56 -2.23,-2.51 -2.69,1.15 -1.5,-1.15 -2.89,2.48z"/>
   <path class="fil10" d="M271.66 248.65c4.94,-2.16 4.84,-2.25 7.06,-7.13 -0.26,0.21 -0.56,0.48 -0.74,0.67 -0.16,0.17 -0.48,0.45 -0.67,0.67l-5 5.03c-0.14,-0.21 -0.44,0.5 -0.65,0.76z"/>
   <path class="fil15" d="M226.46 310.96l2.94 -0.67 -0.05 -2.11c-0.48,-2.98 1.35,-0.66 -1.09,-2.1 -0.39,0.89 -0.66,1.46 -1.17,2.84 -0.71,1.94 -0.13,0.26 -0.63,2.04z"/>
   <path class="fil3" d="M233.27 109.33c1.82,0.05 3.53,-4.07 4.28,-5.65 -1.74,1.07 -4.63,3.32 -4.28,5.65z"/>
   <path class="fil4" d="M207.82 184.49c-0.69,-1.28 0.13,-0.31 -1.17,-1.77 -0.09,-0.1 -1.36,-1.24 -1.59,-1.43 -2.27,-1.81 -0.92,-0.91 -2.98,-1.75l5.74 4.95z"/>
   <polygon class="fil14" points="222.81,132.76 227.26,129.2 224.2,130.15 "/>
  </g>
 </g>
</svg>
