<svg width="14" height="13" viewBox="0 0 14 13" fill="none" xmlns="http://www.w3.org/2000/svg">
<path d="M7.13721 6.57873C8.96305 6.57873 10.4164 5.10005 10.4164 3.25171C10.4164 1.45814 8.94844 0 7.13721 0C5.34058 0 3.85799 1.47183 3.8653 3.25856C3.8726 5.10005 5.31867 6.57873 7.13721 6.57873ZM7.13721 5.09321C6.23889 5.09321 5.48665 4.2991 5.48665 3.25856C5.47934 2.26593 6.2462 1.48552 7.13721 1.48552C8.04283 1.48552 8.79507 2.25908 8.79507 3.25171C8.79507 4.29226 8.05013 5.09321 7.13721 5.09321ZM2.65294 13H11.6288C12.9726 13 13.6372 12.5687 13.6372 11.6651C13.6372 9.62507 10.9642 7.27699 7.13721 7.27699C3.31024 7.27699 0.637207 9.62507 0.637207 11.6651C0.637207 12.5687 1.30181 13 2.65294 13ZM2.63833 11.5145C2.49957 11.5145 2.44844 11.4597 2.44844 11.3639C2.44844 10.4602 4.16474 8.76251 7.13721 8.76251C10.1097 8.76251 11.826 10.4602 11.826 11.3639C11.826 11.4597 11.7822 11.5145 11.6361 11.5145H2.63833Z" />
</svg>
