<svg width="40" height="40" viewBox="0 0 40 40" fill="none" xmlns="http://www.w3.org/2000/svg">
<path d="M4.48393 35.2213V31.3476V24.2693V23.3564H2.65861C1.65455 23.3564 0.833374 24.1777 0.833374 25.1818V34.1662V34.3089C0.833374 35.313 1.65463 36.1341 2.65861 36.1341H4.48385V35.2213H4.48393Z" fill="#657694"/>
<path d="M6.30942 24.2695H4.48395V29.7881V35.2216H6.30942C7.31341 35.2216 8.13466 34.4006 8.13466 33.3963V26.0949C8.13466 25.0909 7.31341 24.2695 6.30942 24.2695Z" fill="#FCD051"/>
<path d="M31.8652 33.2542C31.8652 34.2581 32.6867 35.0793 33.6907 35.0793H35.5161V29.5605V24.127H33.6907C32.6866 24.127 31.8652 24.9482 31.8652 25.9526V33.2542Z" fill="#FCD051"/>
<path d="M35.5161 29.5604V35.0792V35.9917H37.3413C38.3454 35.9917 39.1667 35.1706 39.1667 34.1665V25.0397C39.1667 24.0357 38.3454 23.2144 37.3413 23.2144H35.5161V24.1269V29.5604Z" fill="#657694"/>
<path d="M20.0001 7.88095C23.1404 7.88095 26.0602 8.82493 28.491 10.4441C30.1527 11.5508 31.4117 11.8028 32.2623 10.9521C33.1129 10.1013 33.0837 8.59509 30.3396 6.85688C27.3486 4.96211 23.8026 3.86523 20.0003 3.86523C16.1979 3.86523 12.6516 4.96219 9.66089 6.85688C6.91658 8.59501 6.88721 10.1013 7.73807 10.9521C8.58862 11.8028 9.84768 11.551 11.5094 10.4441C13.9399 8.82493 16.8598 7.88095 20.0001 7.88095Z" fill="#657694"/>
<path d="M35.5161 31.4102C35.0558 31.4102 34.6827 31.7833 34.6827 32.2435V32.3235C34.6827 32.7838 35.0559 33.1569 35.5161 33.1569C35.9763 33.1569 36.3495 32.7838 36.3495 32.3235V32.2435C36.3495 31.7833 35.9764 31.4102 35.5161 31.4102Z" fill="#000003"/>
<path d="M38.1601 22.5104C37.9952 18.1536 36.3027 14.0677 33.3386 10.8706C33.5412 10.4647 33.6229 10.0153 33.5717 9.5541C33.4422 8.38628 32.5047 7.2419 30.7854 6.15284C27.5622 4.11104 23.8327 3.03174 20 3.03174C16.1671 3.03174 12.4375 4.11096 9.21478 6.15284C7.49525 7.2419 6.55767 8.38636 6.42822 9.55425C6.37712 10.0154 6.45876 10.4649 6.66142 10.8706C3.66462 14.1029 1.96727 18.2437 1.83469 22.6545C0.770939 23.0023 0 24.0036 0 25.1821V34.3091C0 35.7751 1.19266 36.9677 2.6586 36.9677H4.48384C4.94407 36.9677 5.3172 36.5946 5.3172 36.1344V36.0549H6.30931C7.77533 36.0549 8.96791 34.8623 8.96791 33.3963V26.0949C8.96791 24.6289 7.77525 23.4362 6.30931 23.4362H5.31735V23.3568C5.31735 22.8965 4.94415 22.5234 4.48399 22.5234H3.50743C3.66766 18.6042 5.18954 14.9289 7.8465 12.0439C8.18666 12.2092 8.56174 12.2931 8.96885 12.2931C9.82205 12.2931 10.8041 11.9152 11.9713 11.1378C14.3511 9.55253 17.1275 8.71456 20 8.71456C22.8725 8.71456 25.6487 9.55253 28.029 11.1379C29.1962 11.9154 30.1782 12.2932 31.0314 12.2932C31.4385 12.2931 31.8135 12.2094 32.1537 12.044C34.7784 14.8942 36.2964 18.5153 36.4873 22.3811H35.5161C35.0558 22.3811 34.6827 22.7542 34.6827 23.2144V23.2935H33.6907C32.2245 23.2935 31.0318 24.4863 31.0318 25.9526V33.2541C31.0318 34.72 32.2245 35.9126 33.6907 35.9126H34.6827V35.9916C34.6827 36.452 35.0559 36.825 35.5161 36.825H37.3413C38.8073 36.825 40 35.6324 40 34.1664V25.0397C40.0001 23.8593 39.2267 22.8566 38.1601 22.5104ZM3.65055 24.2695C3.65055 24.7298 4.02376 25.103 4.48392 25.103H6.30939C6.85634 25.103 7.30119 25.5479 7.30119 26.0948V33.3963C7.30119 33.9432 6.85626 34.3881 6.30939 34.3881H5.31735V29.3241C5.31735 28.8638 4.94415 28.4908 4.48399 28.4908C4.02384 28.4908 3.65063 28.8639 3.65063 29.3241V35.3009H2.6586C2.11164 35.3009 1.6668 34.8559 1.6668 34.3091V25.1821C1.6668 24.6351 2.11172 24.1902 2.6586 24.1902H3.6504V24.2696H3.65055V24.2695ZM31.0313 10.6261C30.683 10.6262 30.0398 10.4743 28.9529 9.7505C26.2983 7.9823 23.2024 7.04761 20.0001 7.04761C16.7975 7.04761 13.7017 7.9823 11.0473 9.7505C9.96064 10.4743 9.31713 10.6261 8.96885 10.6261C8.7072 10.6261 8.50931 10.545 8.32728 10.3628C8.13853 10.174 8.05923 9.96964 8.08502 9.73792C8.11713 9.44808 8.37846 8.65566 10.1068 7.56089C13.0624 5.68831 16.4835 4.69862 20.0001 4.69862C23.5165 4.69862 26.9376 5.68846 29.8936 7.56089C31.6216 8.6555 31.883 9.44785 31.9151 9.73785C31.9409 9.96964 31.8616 10.1741 31.673 10.3629C31.4908 10.545 31.2929 10.6261 31.0313 10.6261ZM38.3333 34.1664C38.3333 34.7134 37.8884 35.1582 37.3414 35.1582H36.3496V35.0791C36.3496 34.6188 35.9765 34.2457 35.5162 34.2457H33.6908C33.1438 34.2457 32.6987 33.8009 32.6987 33.254V25.9525C32.6987 25.4054 33.1438 24.9602 33.6908 24.9602H34.6828V29.9675C34.6828 30.4278 35.0559 30.8009 35.5162 30.8009C35.9766 30.8009 36.3496 30.4278 36.3496 29.9675V24.0477H37.3414C37.8884 24.0477 38.3333 24.4926 38.3333 25.0396V34.1664Z" fill="#000003"/>
<path d="M4.48393 27.9386C4.94417 27.9386 5.3173 27.5655 5.3173 27.1053V27.0253C5.3173 26.5649 4.94409 26.1919 4.48393 26.1919C4.02378 26.1919 3.65057 26.565 3.65057 27.0253V27.1053C3.65057 27.5655 4.0237 27.9386 4.48393 27.9386Z" fill="#000003"/>
</svg>
