<svg width="13" height="23" viewBox="0 0 13 23" fill="none" xmlns="http://www.w3.org/2000/svg">
<path d="M1.00552 10.5218C1.10335 10.9022 1.34791 11.2283 1.60878 11.2283H3.72835L3.72835 21.2827C3.72835 21.8805 4.10335 22.3696 4.46204 22.3696H8.53813C8.89683 22.3696 9.27183 21.8805 9.27183 21.2827L9.27183 11.2283H11.3914C11.6523 11.2283 11.8968 10.9022 11.9947 10.5218C12.0925 10.1142 12.0436 9.62506 11.8642 9.32615L6.97292 0.983761C6.84248 0.766369 6.67944 0.657673 6.50009 0.657673C6.32074 0.657673 6.1577 0.766369 6.02726 0.983761L1.13596 9.32615C0.95661 9.62506 0.907698 10.1142 1.00552 10.5218ZM6.50009 3.37506L9.84248 9.05441H8.53813C8.17944 9.05441 7.96748 9.43485 7.96748 10.0327L7.96748 20.1957H5.0327L5.0327 10.0327C5.0327 9.43485 4.82074 9.05441 4.46204 9.05441H3.1577L6.50009 3.37506Z" fill="#C6AD4A"/>
</svg>
