<svg width="13" height="23" viewBox="0 0 13 23" fill="none" xmlns="http://www.w3.org/2000/svg">
<path d="M11.9945 12.4782C11.8967 12.0978 11.6521 11.7717 11.3912 11.7717H9.27165V1.71733C9.27165 1.1195 8.89665 0.630371 8.53796 0.630371H4.46187C4.10317 0.630371 3.72817 1.1195 3.72817 1.71733V11.7717H1.60861C1.34774 11.7717 1.10317 12.0978 1.00534 12.4782C0.907519 12.8858 0.956432 13.3749 1.13578 13.6738L6.02708 22.0162C6.15752 22.2336 6.32056 22.3423 6.49991 22.3423C6.67926 22.3423 6.8423 22.2336 6.97274 22.0162L11.864 13.6738C12.0434 13.3749 12.0923 12.8858 11.9945 12.4782ZM6.49991 19.6249L3.15752 13.9456H4.46187C4.82056 13.9456 5.03252 13.5652 5.03252 12.9673V2.80428H7.9673V12.9673C7.9673 13.5652 8.17926 13.9456 8.53796 13.9456H9.8423L6.49991 19.6249Z" fill="#79B496"/>
</svg>
