<svg width="50" height="50" viewBox="0 0 50 50" fill="none" xmlns="http://www.w3.org/2000/svg">
<g clip-path="url(#clip0_1433_348)">
<path d="M25 50C38.8071 50 50 38.8071 50 25C50 11.1929 38.8071 0 25 0C11.1929 0 0 11.1929 0 25C0 38.8071 11.1929 50 25 50Z" fill="#FFD05B"/>
<path d="M38.8189 9.2915H11.1812V40.6695H38.8189V9.2915Z" fill="white"/>
<path d="M11.1812 14.3701H38.8189" stroke="#84DBFF" stroke-width="0.5" stroke-miterlimit="10"/>
<path d="M11.1812 14.8818H38.8189" stroke="#84DBFF" stroke-width="0.5" stroke-miterlimit="10"/>
<path d="M11.1812 17.2441H38.8189" stroke="#E6E9EE" stroke-width="0.5" stroke-miterlimit="10"/>
<path d="M11.1812 19.6064H38.8189" stroke="#E6E9EE" stroke-width="0.5" stroke-miterlimit="10"/>
<path d="M11.1812 21.9688H38.8189" stroke="#E6E9EE" stroke-width="0.5" stroke-miterlimit="10"/>
<path d="M11.1812 24.3306H38.8189" stroke="#E6E9EE" stroke-width="0.5" stroke-miterlimit="10"/>
<path d="M11.1812 26.6929H38.8189" stroke="#E6E9EE" stroke-width="0.5" stroke-miterlimit="10"/>
<path d="M11.1812 29.0552H38.8189" stroke="#E6E9EE" stroke-width="0.5" stroke-miterlimit="10"/>
<path d="M11.1812 31.4175H38.8189" stroke="#E6E9EE" stroke-width="0.5" stroke-miterlimit="10"/>
<path d="M11.1812 33.7798H38.8189" stroke="#E6E9EE" stroke-width="0.5" stroke-miterlimit="10"/>
<path d="M11.1812 36.1416H38.8189" stroke="#E6E9EE" stroke-width="0.5" stroke-miterlimit="10"/>
<path d="M11.1812 38.4648H38.8189" stroke="#E6E9EE" stroke-width="0.5" stroke-miterlimit="10"/>
<path d="M26.0629 31.1022L24.9605 30.1573L22.677 31.2991L22.7558 32.7164L21.4566 33.3463L21.1416 26.7322L22.3227 26.1416L27.3621 30.4723L26.0629 31.1022ZM22.5196 28.0707L22.5983 29.9999L23.9762 29.3306L22.5196 28.0707Z" fill="#FF7058"/>
<path d="M28.6613 28.7796L27.992 27.3623L26.614 28.0316L26.1416 27.0867L27.5196 26.4174L26.8109 25.0001L27.8739 24.4883L28.5432 25.9056L29.9211 25.2363L30.3936 26.1812L29.0156 26.8505L29.6849 28.2678L28.6613 28.7796Z" fill="#FF7058"/>
<path d="M34.3307 23.7009C34.3307 23.7009 34.4094 23.8583 34.4882 24.0946C34.5669 24.2127 34.6063 24.4095 34.6456 24.6064C34.7244 24.8032 34.7244 25.0395 34.7638 25.315C34.8031 25.8662 34.7244 26.5355 34.4882 27.2442C34.2519 27.9528 33.8582 28.7402 33.3071 29.4883C32.2047 30.9843 30.5512 32.4804 28.5039 33.5828C27.9921 33.8584 27.4409 34.0946 26.9291 34.3702C26.3779 34.6064 25.7874 34.8032 25.1968 35.0001C24.0157 35.3544 22.7953 35.5513 21.5354 35.5906C20.2756 35.5906 19.0157 35.4332 17.8346 34.882C16.6929 34.3702 15.748 33.3072 15.3937 32.1654C15.0787 30.9056 15.3149 29.7639 15.748 28.7402C16.1811 27.756 16.811 26.9292 17.4409 26.2206C18.0708 25.5119 18.7008 24.9607 19.3307 24.5276C19.6456 24.2914 19.9212 24.0946 20.1968 23.9371C20.4724 23.7402 20.7086 23.5828 20.9449 23.4646C21.4173 23.1891 21.7716 22.9922 22.0472 22.8741C22.3228 22.756 22.4409 22.6772 22.4409 22.6772C22.4409 22.6772 22.3228 22.756 22.0472 22.9135C21.811 23.0709 21.4173 23.2678 20.9842 23.5434C20.748 23.7009 20.5118 23.8583 20.2756 24.0552C20 24.252 19.7244 24.4489 19.4488 24.6851C18.8582 25.1576 18.2677 25.7481 17.6771 26.4174C17.0866 27.0867 16.5354 27.9135 16.1417 28.8584C15.748 29.8032 15.5905 30.9056 15.8661 31.9292C16.1811 32.9922 16.9685 33.8583 18.0315 34.3308C19.0945 34.8426 20.2756 35.0001 21.4567 35.0001C22.6378 35.0001 23.8582 34.8032 25 34.4489C25.5905 34.2914 26.1417 34.0946 26.6535 33.8977C27.2047 33.6615 27.7165 33.4253 28.2283 33.1497C29.2126 32.5985 30.1575 32.0473 30.9449 31.378C31.7323 30.7087 32.4409 30.0001 32.9921 29.2914C33.5433 28.5828 33.9764 27.8347 34.2519 27.1654C34.5275 26.4961 34.6456 25.8269 34.6456 25.315C34.6456 25.0395 34.6456 24.8032 34.6063 24.6064C34.5669 24.4095 34.5669 24.2127 34.4882 24.0946C34.3701 23.819 34.3307 23.7009 34.3307 23.7009Z" fill="#FF7058"/>
</g>
<defs>
<clipPath id="clip0_1433_348">
<rect width="50" height="50" fill="white"/>
</clipPath>
</defs>
</svg>
