<svg width="40" height="41" viewBox="0 0 40 41" fill="none" xmlns="http://www.w3.org/2000/svg">
<g clip-path="url(#clip0_277_246)">
<path d="M33.75 35.5H23.625C22.125 35.5 20.75 34.875 19.625 33.875L3.75 18L12.5 8C12.5 12.875 17.625 18 22.5 18H23.75C23.625 23.625 25.75 27.75 31.25 29.5C31.625 29.625 31.875 29.75 32.25 29.75C33.75 30.125 34.75 31.75 34.375 33.25L33.75 35.5Z" stroke="#657694" stroke-width="2" stroke-miterlimit="10" stroke-linecap="round" stroke-linejoin="round"/>
<path d="M1.25 20.5L18.375 37.625C19.375 38.625 20.875 39.25 22.375 39.25H33.75" stroke="#FCD051" stroke-width="2" stroke-miterlimit="10" stroke-linecap="round" stroke-linejoin="round"/>
<path d="M13.125 21.75C14.1605 21.75 15 20.9105 15 19.875C15 18.8395 14.1605 18 13.125 18C12.0895 18 11.25 18.8395 11.25 19.875C11.25 20.9105 12.0895 21.75 13.125 21.75Z" stroke="#FCD051" stroke-width="2" stroke-miterlimit="10" stroke-linecap="round" stroke-linejoin="round"/>
<path d="M18.75 24.25H24.375" stroke="#FCD051" stroke-width="2" stroke-miterlimit="10" stroke-linecap="round" stroke-linejoin="round"/>
<path d="M21.25 28H28.125" stroke="#FCD051" stroke-width="2" stroke-miterlimit="10" stroke-linecap="round" stroke-linejoin="round"/>
<path d="M35 1.75L25.875 10.875C23.75 13 23 16 23.75 18.875" stroke="#657694" stroke-width="2" stroke-miterlimit="10" stroke-linecap="round" stroke-linejoin="round"/>
<path d="M12.5 9.25C14.875 8.5 17 6.75 18.25 4.625L20 1.75" stroke="#657694" stroke-width="2" stroke-miterlimit="10" stroke-linecap="round" stroke-linejoin="round"/>
</g>
<defs>
<clipPath id="clip0_277_246">
<rect width="40" height="40" fill="white" transform="translate(0 0.5)"/>
</clipPath>
</defs>
</svg>
